<svg width="20" height="20" viewBox="0 0 20 20" fill="none" xmlns="http://www.w3.org/2000/svg">
<path d="M17.2904 9.99957C17.2904 9.68827 17.1523 9.39947 17.0216 9.18261C16.8805 8.9486 16.6908 8.707 16.4827 8.47143C16.0652 7.99887 15.5205 7.49139 14.9918 7.03233C14.4601 6.57058 13.9302 6.1454 13.5343 5.83642C13.3361 5.68167 13.1707 5.55548 13.0545 5.46772C12.9964 5.42383 12.9506 5.38952 12.9191 5.36602L12.8828 5.33903L12.8731 5.33191L12.8698 5.32944C12.5919 5.12472 12.2002 5.1838 11.9955 5.46172C11.7908 5.73962 11.8501 6.13085 12.128 6.33558L12.1386 6.34342L12.172 6.36823C12.2015 6.39023 12.2452 6.42293 12.301 6.46511C12.4127 6.54949 12.5729 6.67165 12.7652 6.82179C13.1506 7.1226 13.6624 7.53335 14.1723 7.97614C14.6853 8.42163 15.1822 8.88732 15.546 9.29905C15.569 9.32509 15.5912 9.35068 15.6127 9.37581L3.33203 9.37582C2.98685 9.37582 2.70703 9.65564 2.70703 10.0008C2.70703 10.346 2.98685 10.6258 3.33203 10.6258L15.6106 10.6258C15.5898 10.6502 15.5682 10.6749 15.546 10.7001C15.1822 11.1118 14.6853 11.5775 14.1723 12.023C13.6624 12.4658 13.1506 12.8766 12.7652 13.1774C12.5729 13.3275 12.4127 13.4497 12.301 13.5341C12.2452 13.5762 12.2015 13.6089 12.172 13.6309L12.1386 13.6557L12.128 13.6636C11.8501 13.8683 11.7908 14.2595 11.9955 14.5374C12.2002 14.8154 12.5919 14.8744 12.8698 14.6697L12.8731 14.6673L12.8828 14.6601L12.9191 14.6331C12.9506 14.6096 12.9964 14.5753 13.0545 14.5314C13.1707 14.4437 13.3361 14.3175 13.5343 14.1627C13.9302 13.8538 14.4601 13.4286 14.9918 12.9668C15.5205 12.5078 16.0652 12.0003 16.4827 11.5277C16.6908 11.2922 16.8805 11.0506 17.0216 10.8165C17.1515 10.601 17.2887 10.3143 17.2904 10.0052" fill="white"/>
</svg>
