<svg width="24" height="25" viewBox="0 0 24 25" fill="none" xmlns="http://www.w3.org/2000/svg">
<path fill-rule="evenodd" clip-rule="evenodd" d="M12 23.25C6.06294 23.25 1.25 18.4371 1.25 12.5C1.25 6.56294 6.06294 1.75 12 1.75C17.9371 1.75 22.75 6.56294 22.75 12.5C22.75 18.4371 17.9371 23.25 12 23.25ZM2.75 12.5C2.75 17.6086 6.89137 21.75 12 21.75C14.2843 21.75 16.3753 20.922 17.989 19.5497L4.95034 6.511C3.57804 8.12475 2.75 10.2157 2.75 12.5ZM19.0497 18.489C20.422 16.8753 21.25 14.7843 21.25 12.5C21.25 7.39137 17.1086 3.25 12 3.25C9.71567 3.25 7.62475 4.07804 6.011 5.45034L19.0497 18.489Z" fill="white"/>
</svg>
