<svg width="24" height="25" viewBox="0 0 24 25" fill="none" xmlns="http://www.w3.org/2000/svg">
<path d="M14.1674 7.982C13.8813 7.68245 13.4066 7.67154 13.107 7.95762C12.8075 8.24371 12.7965 8.71845 13.0826 9.018L13.5361 9.49285C13.2635 9.50278 13.0281 9.51941 12.8562 9.54728C10.5089 9.92781 8.68447 11.8077 8.31686 14.1833C8.2499 14.616 8.24994 15.1174 8.25 15.9387L8.25001 16.5C8.25001 16.9142 8.58579 17.25 9.00001 17.25C9.41422 17.25 9.75001 16.9142 9.75001 16.5V16.0176C9.75001 15.0931 9.75223 14.7163 9.79922 14.4126C10.0705 12.6595 11.4098 11.3013 13.0962 11.0279C13.1914 11.0125 13.3305 11.0019 13.5069 10.9945L13.0826 11.4387C12.7965 11.7383 12.8075 12.213 13.107 12.4991C13.4066 12.7852 13.8813 12.7743 14.1674 12.4747L15.3475 11.2391C15.6152 10.9587 15.7494 10.5948 15.75 10.2307L15.75 10.2282L15.75 10.2258C15.7494 9.86177 15.6152 9.49795 15.3475 9.21761L14.1674 7.982Z" fill="white"/>
<path fill-rule="evenodd" clip-rule="evenodd" d="M12 1.75C6.06294 1.75 1.25 6.56294 1.25 12.5C1.25 18.4371 6.06294 23.25 12 23.25C17.9371 23.25 22.75 18.4371 22.75 12.5C22.75 6.56294 17.9371 1.75 12 1.75ZM2.75 12.5C2.75 7.39137 6.89137 3.25 12 3.25C17.1086 3.25 21.25 7.39137 21.25 12.5C21.25 17.6086 17.1086 21.75 12 21.75C6.89137 21.75 2.75 17.6086 2.75 12.5Z" fill="white"/>
</svg>
