<svg width="20" height="20" viewBox="0 0 20 20" fill="none" xmlns="http://www.w3.org/2000/svg">
<path fill-rule="evenodd" clip-rule="evenodd" d="M9.16797 1.04175C4.68065 1.04175 1.04297 4.67943 1.04297 9.16675C1.04297 13.6541 4.68065 17.2917 9.16797 17.2917C11.1867 17.2917 13.0334 16.5556 14.4544 15.337L17.8927 18.7754C18.1368 19.0194 18.5325 19.0194 18.7766 18.7754C19.0207 18.5313 19.0207 18.1356 18.7766 17.8915L15.3382 14.4531C16.5568 13.0322 17.293 11.1854 17.293 9.16675C17.293 4.67943 13.6553 1.04175 9.16797 1.04175ZM2.29297 9.16675C2.29297 5.36979 5.37101 2.29175 9.16797 2.29175C12.9649 2.29175 16.043 5.36979 16.043 9.16675C16.043 12.9637 12.9649 16.0417 9.16797 16.0417C5.37101 16.0417 2.29297 12.9637 2.29297 9.16675Z" fill="#161616"/>
</svg>
