<svg width="24" height="25" viewBox="0 0 24 25" fill="none" xmlns="http://www.w3.org/2000/svg">
<path fill-rule="evenodd" clip-rule="evenodd" d="M4 1.75C3.58579 1.75 3.25 2.08579 3.25 2.5C3.25 2.91421 3.58579 3.25 4 3.25H4.25V5.5C4.25 8.58811 6.05618 11.2544 8.66976 12.5C6.05618 13.7456 4.25 16.4119 4.25 19.5V21.75H4C3.58579 21.75 3.25 22.0858 3.25 22.5C3.25 22.9142 3.58579 23.25 4 23.25H20C20.4142 23.25 20.75 22.9142 20.75 22.5C20.75 22.0858 20.4142 21.75 20 21.75H19.75V19.5C19.75 16.4119 17.9438 13.7456 15.3302 12.5C17.9438 11.2544 19.75 8.58811 19.75 5.5V3.25H20C20.4142 3.25 20.75 2.91421 20.75 2.5C20.75 2.08579 20.4142 1.75 20 1.75H4ZM18.25 3.25H5.75V5.5C5.75 8.95178 8.54822 11.75 12 11.75C15.4518 11.75 18.25 8.95178 18.25 5.5V3.25ZM18.25 21.75V19.5C18.25 16.0482 15.4518 13.25 12 13.25C8.54822 13.25 5.75 16.0482 5.75 19.5V21.75H18.25Z" fill="white"/>
</svg>
