<svg width="16" height="19" viewBox="0 0 16 19" fill="none" xmlns="http://www.w3.org/2000/svg">
<path d="M3.83366 0.541626C5.78314 0.541626 7.37533 2.10644 7.37533 4.05124L7.37533 7.22432C7.37533 8.37255 6.43606 9.29163 5.29199 9.29163C4.14793 9.29163 3.20866 8.37255 3.20866 7.22432L3.20866 4.05124C3.20866 3.70606 3.48848 3.42624 3.83366 3.42624C4.17884 3.42624 4.45866 3.70606 4.45866 4.05124L4.45866 7.22432C4.45866 7.66921 4.82523 8.04163 5.29199 8.04163C5.75876 8.04163 6.12533 7.66921 6.12533 7.22432L6.12533 4.05124C6.12533 2.80978 5.10584 1.79163 3.83366 1.79163C2.56148 1.79163 1.54199 2.80978 1.54199 4.05124V6.35893C1.54199 6.70411 1.26217 6.98393 0.916993 6.98393C0.571815 6.98393 0.291993 6.70411 0.291993 6.35893V4.05124C0.291993 2.10644 1.88418 0.541626 3.83366 0.541626Z" fill="#1B8354"/>
<path fill-rule="evenodd" clip-rule="evenodd" d="M6.05258 18.4583C4.48183 18.4583 3.69423 18.4583 2.99342 18.2133C1.85758 17.8142 0.960918 16.97 0.535085 15.8958C0.267585 15.2217 0.267578 14.4742 0.267578 12.985V9.50028C0.267578 9.15528 0.547578 8.87528 0.892578 8.87528C1.23758 8.87528 1.51758 9.15528 1.51758 9.50028V12.985C1.51758 14.315 1.51758 14.9825 1.69675 15.4341C1.98925 16.1716 2.61258 16.755 3.40675 17.0333C3.90591 17.2083 4.62341 17.2083 6.05258 17.2083C6.31055 17.2083 6.55604 17.2083 6.78902 17.208C7.95791 17.1873 8.90282 16.2296 8.90282 15.0558C8.90282 14.9222 8.89616 14.7783 8.88911 14.626L8.8876 14.5934C8.86682 14.1396 8.84329 13.6258 8.97116 13.1458C9.15616 12.4525 9.70283 11.9067 10.3962 11.7208C10.8761 11.593 11.3899 11.6165 11.8437 11.6373L11.8763 11.6388C12.0286 11.6458 12.1725 11.6525 12.3062 11.6525C13.4818 11.6525 14.4406 10.7046 14.4584 9.53312L14.4584 7.22751C14.4584 4.81835 14.4584 3.60917 13.8867 2.89167C13.7209 2.68334 13.5242 2.49833 13.3026 2.34333C12.5184 1.79167 11.2201 1.79167 8.63273 1.79167H8.40508C8.06008 1.79167 7.78008 1.51167 7.78008 1.16667C7.78008 0.821674 8.06008 0.541674 8.40508 0.541674H8.63258C11.4833 0.541674 12.9143 0.541674 14.0217 1.32083C14.3401 1.54416 14.6242 1.81083 14.8651 2.11333C15.7084 3.1725 15.7084 4.5275 15.7084 7.22751L15.7084 9.48227L15.7087 9.50001C15.7087 9.51394 15.7086 9.52785 15.7084 9.54174C15.7081 11.9596 15.6972 13.1998 15.2726 14.2692C14.5767 16.0233 13.1109 17.4033 11.2509 18.0558C10.2126 18.4192 9.0091 18.4545 6.80077 18.458C6.78398 18.4582 6.76717 18.4583 6.75033 18.4583C6.74411 18.4583 6.73791 18.4582 6.73173 18.458C6.51517 18.4583 6.28904 18.4583 6.05258 18.4583ZM10.8376 16.8758C10.4485 17.0121 10.0035 17.0926 9.43785 17.14C9.88579 16.5638 10.1528 15.8403 10.1528 15.0558C10.1528 14.8968 10.1456 14.7343 10.1386 14.5755L10.137 14.54L10.1369 14.5372C10.1194 14.1564 10.1013 13.7626 10.1795 13.4692C10.2495 13.2067 10.457 12.9992 10.7195 12.9292C11.0097 12.8508 11.4002 12.8688 11.778 12.8861L11.7903 12.8867L11.8258 12.8882C11.9846 12.8953 12.1472 12.9025 12.3062 12.9025C13.1012 12.9025 13.8335 12.6283 14.4134 12.1695C14.3695 12.8639 14.2826 13.3752 14.1109 13.8075C13.5484 15.2258 12.3551 16.3433 10.8376 16.8758Z" fill="#1B8354"/>
</svg>
