<svg width="18" height="18" viewBox="0 0 18 18" fill="none" xmlns="http://www.w3.org/2000/svg">
<g id="elements">
<g id="Icon">
<path fill-rule="evenodd" clip-rule="evenodd" d="M8.99982 0.0416565C6.58357 0.0416565 4.62482 2.00041 4.62482 4.41666C4.62482 6.8329 6.58357 8.79166 8.99982 8.79166C11.4161 8.79166 13.3748 6.8329 13.3748 4.41666C13.3748 2.00041 11.4161 0.0416565 8.99982 0.0416565ZM5.87482 4.41666C5.87482 2.69077 7.27393 1.29166 8.99982 1.29166C10.7257 1.29166 12.1248 2.69077 12.1248 4.41666C12.1248 6.14255 10.7257 7.54166 8.99982 7.54166C7.27393 7.54166 5.87482 6.14255 5.87482 4.41666Z" fill="#161616"/>
<path fill-rule="evenodd" clip-rule="evenodd" d="M14.1905 11.566C14.055 11.4895 13.9353 11.422 13.8384 11.3643C10.8767 9.60078 7.12322 9.60078 4.16152 11.3643C4.06459 11.422 3.94486 11.4896 3.80931 11.566C3.2153 11.9012 2.31737 12.4077 1.70223 13.0099C1.31751 13.3864 0.951962 13.8827 0.885507 14.4906C0.814835 15.1372 1.09689 15.7439 1.66274 16.283C2.63894 17.213 3.81043 17.9583 5.32569 17.9583H12.6742C14.1895 17.9583 15.361 17.213 16.3372 16.283C16.903 15.7439 17.1851 15.1372 17.1144 14.4906C17.048 13.8827 16.6824 13.3864 16.2977 13.0099C15.6826 12.4077 14.7845 11.9011 14.1905 11.566ZM4.80103 12.4383C7.36868 10.9094 10.6312 10.9094 13.1989 12.4383C13.3388 12.5216 13.4921 12.6086 13.6527 12.6997C14.2465 13.0366 14.9399 13.43 15.4233 13.9031C15.7234 14.1969 15.8514 14.4392 15.8718 14.6264C15.8881 14.7751 15.8505 15.0202 15.475 15.3779C14.6118 16.2003 13.7346 16.7083 12.6742 16.7083H5.32569C4.26531 16.7083 3.38817 16.2003 2.52496 15.3779C2.14944 15.0202 2.11186 14.7751 2.12811 14.6264C2.14857 14.4392 2.2765 14.1969 2.5766 13.9031C3.06001 13.43 3.75336 13.0366 4.3472 12.6997C4.50776 12.6086 4.66115 12.5216 4.80103 12.4383Z" fill="#161616"/>
</g>
</g>
</svg>
