<svg width="14" height="14" viewBox="0 0 14 14" fill="none" xmlns="http://www.w3.org/2000/svg">
<path d="M7.43742 2.625C7.43742 2.38338 7.24154 2.1875 6.99992 2.1875C6.75829 2.1875 6.56242 2.38338 6.56242 2.625V7.56112L6.55888 7.55696C6.43599 7.41192 6.31565 7.25864 6.20312 7.1153L6.17703 7.08207C6.0649 6.93931 5.94693 6.78933 5.85531 6.69507C5.6869 6.5218 5.40992 6.51787 5.23665 6.68628C5.06339 6.85469 5.05945 7.13167 5.22786 7.30493C5.27961 7.35817 5.36455 7.46422 5.48891 7.62256L5.51637 7.65752C5.62723 7.79876 5.75731 7.96448 5.89132 8.12262C6.03493 8.29211 6.19569 8.46816 6.35638 8.60502C6.43691 8.67361 6.52767 8.74125 6.62532 8.79351C6.71949 8.8439 6.84925 8.89583 6.99992 8.89583C7.15059 8.89583 7.28035 8.8439 7.37452 8.79351C7.47217 8.74125 7.56293 8.67361 7.64346 8.60502C7.80415 8.46816 7.9649 8.29211 8.10852 8.12262C8.24252 7.96448 8.37258 7.79879 8.48345 7.65755L8.51092 7.62256C8.63529 7.46422 8.72023 7.35817 8.77198 7.30493C8.94039 7.13167 8.93645 6.85469 8.76319 6.68628C8.58992 6.51787 8.31294 6.5218 8.14453 6.69507C8.05291 6.78933 7.93494 6.93931 7.82281 7.08207L7.79673 7.11528C7.6842 7.25862 7.56385 7.41192 7.44095 7.55696L7.43742 7.56112V2.625Z" fill="#38535F"/>
<path d="M2.77075 9.625C2.77075 9.38338 2.57488 9.1875 2.33325 9.1875C2.09163 9.1875 1.89575 9.38338 1.89575 9.625C1.89575 9.99643 1.91455 10.3244 1.97578 10.6031C2.03809 10.8868 2.15015 11.1465 2.35596 11.3523C2.56176 11.5581 2.82149 11.6702 3.10514 11.7325C3.38383 11.7937 3.71183 11.8125 4.08325 11.8125H9.91659C10.288 11.8125 10.616 11.7937 10.8947 11.7325C11.1783 11.6702 11.4381 11.5581 11.6439 11.3523C11.8497 11.1465 11.9618 10.8868 12.0241 10.6031C12.0853 10.3244 12.1041 9.99643 12.1041 9.625C12.1041 9.38338 11.9082 9.1875 11.6666 9.1875C11.425 9.1875 11.2291 9.38338 11.2291 9.625C11.2291 9.97749 11.2101 10.2302 11.1694 10.4154C11.1298 10.5956 11.0759 10.6829 11.0252 10.7336C10.9744 10.7843 10.8872 10.8383 10.707 10.8779C10.5218 10.9185 10.2691 10.9375 9.91659 10.9375H4.08325C3.73076 10.9375 3.47805 10.9185 3.29288 10.8779C3.11267 10.8383 3.02539 10.7843 2.97467 10.7336C2.92395 10.6829 2.86999 10.5956 2.8304 10.4154C2.78972 10.2302 2.77075 9.97749 2.77075 9.625Z" fill="#38535F"/>
</svg>
