<svg width="23" height="22" viewBox="0 0 23 22" fill="none" xmlns="http://www.w3.org/2000/svg">
<g id="elements">
<g id="Icon">
<path d="M17.5 4C16.9477 4 16.5 4.44772 16.5 5C16.5 5.55228 16.9477 6 17.5 6H17.509C18.0613 6 18.509 5.55228 18.509 5C18.509 4.44772 18.0613 4 17.509 4H17.5Z" fill="#161616"/>
<path fill-rule="evenodd" clip-rule="evenodd" d="M17.5 0.25C14.9216 0.25 12.75 2.40016 12.75 5.01659C12.75 7.70427 14.9767 9.45232 16.6897 10.526L16.7026 10.5341L16.7158 10.5417C16.9546 10.6781 17.2249 10.75 17.5 10.75C17.7751 10.75 18.0454 10.6781 18.2842 10.5417L18.2957 10.5351L18.307 10.5281C20.0298 9.46067 22.25 7.69535 22.25 5.01659C22.25 2.40016 20.0784 0.25 17.5 0.25ZM14.25 5.01659C14.25 3.22952 15.7491 1.75 17.5 1.75C19.2509 1.75 20.75 3.22952 20.75 5.01659C20.75 6.80553 19.2498 8.17645 17.5341 9.24234C17.5233 9.24742 17.5117 9.25 17.5 9.25C17.4886 9.25 17.4773 9.24755 17.4667 9.24273C15.7487 8.16283 14.25 6.81121 14.25 5.01659Z" fill="#161616"/>
<path fill-rule="evenodd" clip-rule="evenodd" d="M0.75 18C0.75 15.9289 2.42893 14.25 4.5 14.25C6.57107 14.25 8.25 15.9289 8.25 18C8.25 20.0711 6.57107 21.75 4.5 21.75C2.42893 21.75 0.75 20.0711 0.75 18ZM4.5 15.75C3.25736 15.75 2.25 16.7574 2.25 18C2.25 19.2426 3.25736 20.25 4.5 20.25C5.74264 20.25 6.75 19.2426 6.75 18C6.75 16.7574 5.74264 15.75 4.5 15.75Z" fill="#161616"/>
<path d="M9 5.25C6.76542 5.25 4.75 6.82463 4.75 9C4.75 11.1754 6.76542 12.75 9 12.75H12C13.6314 12.75 14.75 13.8617 14.75 15C14.75 16.1383 13.6314 17.25 12 17.25H10.5C10.0858 17.25 9.75 17.5858 9.75 18C9.75 18.4142 10.0858 18.75 10.5 18.75H12C14.2346 18.75 16.25 17.1754 16.25 15C16.25 12.8246 14.2346 11.25 12 11.25H9C7.36859 11.25 6.25 10.1383 6.25 9C6.25 7.86166 7.36859 6.75 9 6.75H10.5C10.9142 6.75 11.25 6.41421 11.25 6C11.25 5.58579 10.9142 5.25 10.5 5.25H9Z" fill="#161616"/>
</g>
</g>
</svg>
