<svg width="24" height="18" viewBox="0 0 24 18" fill="none" xmlns="http://www.w3.org/2000/svg">
<path fill-rule="evenodd" clip-rule="evenodd" d="M12.0005 0.25C9.65328 0.25 7.75049 2.15279 7.75049 4.5C7.75049 6.84721 9.65328 8.75 12.0005 8.75C14.3477 8.75 16.2505 6.84721 16.2505 4.5C16.2505 2.15279 14.3477 0.25 12.0005 0.25ZM9.25049 4.5C9.25049 2.98122 10.4817 1.75 12.0005 1.75C13.5193 1.75 14.7505 2.98122 14.7505 4.5C14.7505 6.01878 13.5193 7.25 12.0005 7.25C10.4817 7.25 9.25049 6.01878 9.25049 4.5Z" fill="#1B8354"/>
<path d="M5.50053 2.25C3.70561 2.25 2.25053 3.70507 2.25053 5.5C2.25053 7.29493 3.70561 8.75 5.50053 8.75C5.91475 8.75 6.25053 8.41421 6.25053 8C6.25053 7.58579 5.91475 7.25 5.50053 7.25C4.53403 7.25 3.75053 6.4665 3.75053 5.5C3.75053 4.5335 4.53403 3.75 5.50053 3.75C5.91475 3.75 6.25053 3.41421 6.25053 3C6.25053 2.58579 5.91475 2.25 5.50053 2.25Z" fill="#1B8354"/>
<path d="M5.74748 9.93242C5.71016 9.5199 5.34548 9.21573 4.93296 9.25305C3.99443 9.33796 3.08188 9.69902 2.27759 10.3184C2.23124 10.3541 2.1702 10.3985 2.09847 10.4506C1.75778 10.6985 1.17608 11.1217 0.784073 11.6179C0.53359 11.935 0.299351 12.3499 0.257178 12.8489C0.213011 13.3714 0.388187 13.8791 0.763744 14.3418C1.3386 15.0501 2.12739 15.75 3.22649 15.75C3.6407 15.75 3.97649 15.4142 3.97649 15C3.97649 14.5858 3.6407 14.25 3.22649 14.25C2.82698 14.25 2.4238 14.0069 1.92841 13.3965C1.75624 13.1844 1.74544 13.051 1.75185 12.9752C1.76025 12.8758 1.81313 12.7351 1.96111 12.5477C2.21035 12.2322 2.55974 11.9754 2.89934 11.7258C2.99892 11.6526 3.09765 11.5801 3.19277 11.5068C3.78313 11.0522 4.4278 10.8049 5.06811 10.747C5.48064 10.7096 5.7848 10.345 5.74748 9.93242Z" fill="#1B8354"/>
<path d="M18.0005 2.25C17.5863 2.25 17.2505 2.58579 17.2505 3C17.2505 3.41421 17.5863 3.75 18.0005 3.75C18.967 3.75 19.7505 4.5335 19.7505 5.5C19.7505 6.4665 18.967 7.25 18.0005 7.25C17.5863 7.25 17.2505 7.58579 17.2505 8C17.2505 8.41421 17.5863 8.75 18.0005 8.75C19.7954 8.75 21.2505 7.29493 21.2505 5.5C21.2505 3.70507 19.7954 2.25 18.0005 2.25Z" fill="#1B8354"/>
<path d="M19.0681 9.25305C18.6555 9.21573 18.2909 9.5199 18.2535 9.93242C18.2162 10.345 18.5204 10.7096 18.9329 10.747C19.5732 10.8049 20.2179 11.0522 20.8083 11.5068C20.9034 11.5801 21.0021 11.6526 21.1016 11.7258C21.4412 11.9754 21.7907 12.2322 22.0399 12.5477C22.1879 12.7351 22.2408 12.8758 22.2492 12.9752C22.2556 13.051 22.2448 13.1844 22.0726 13.3965C21.5772 14.0069 21.174 14.25 20.7745 14.25C20.3603 14.25 20.0245 14.5858 20.0245 15C20.0245 15.4142 20.3603 15.75 20.7745 15.75C21.8736 15.75 22.6624 15.0501 23.2373 14.3418C23.6128 13.8791 23.788 13.3714 23.7438 12.8489C23.7017 12.3499 23.4674 11.935 23.2169 11.6179C22.8249 11.1217 22.2433 10.6986 21.9027 10.4507C21.8309 10.3985 21.7698 10.3541 21.7234 10.3184C20.9191 9.69902 20.0066 9.33796 19.0681 9.25305Z" fill="#1B8354"/>
<path fill-rule="evenodd" clip-rule="evenodd" d="M7.69 11.4733C10.3278 9.84224 13.6735 9.84224 16.3113 11.4733C16.389 11.5214 16.4875 11.579 16.6006 11.6452C17.1129 11.9449 17.9262 12.4208 18.4811 12.9849C18.8296 13.3391 19.1772 13.8221 19.2406 14.4242C19.3084 15.0683 19.035 15.6646 18.5134 16.1806C17.6518 17.033 16.5845 17.75 15.185 17.75H8.81626C7.4168 17.75 6.34947 17.033 5.48785 16.1806C4.96629 15.6646 4.69288 15.0683 4.76069 14.4242C4.82406 13.8221 5.17166 13.3391 5.52018 12.9849C6.07509 12.4208 6.88828 11.945 7.40055 11.6452C7.51373 11.579 7.61223 11.5214 7.69 11.4733ZM15.5224 12.7491C13.3681 11.417 10.6332 11.417 8.47888 12.7491C8.34956 12.8291 8.2109 12.9108 8.06783 12.9952C7.55596 13.297 6.98769 13.6321 6.58947 14.0368C6.34448 14.2859 6.2644 14.4676 6.25245 14.5812C6.24492 14.6527 6.24853 14.8231 6.54282 15.1143C7.27535 15.839 7.98351 16.25 8.81626 16.25H15.185C16.0178 16.25 16.7259 15.839 17.4585 15.1143C17.7527 14.8231 17.7564 14.6527 17.7488 14.5812C17.7369 14.4676 17.6568 14.2859 17.4118 14.0368C17.0136 13.6321 16.4454 13.297 15.9335 12.9952C15.7904 12.9108 15.6517 12.8291 15.5224 12.7491Z" fill="#1B8354"/>
</svg>
