<svg width="20" height="14" viewBox="0 0 20 14" fill="none" xmlns="http://www.w3.org/2000/svg">
<path d="M18.0638 3.56647V13.6191L13.9808 14H20V3.33398L18.0638 3.56647Z" fill="#00B0B2"/>
<path d="M1.93618 3.56647V13.6191L6.01916 14H0V3.33398L1.93618 3.56647Z" fill="#00B0B2"/>
<path d="M5.18429 6.14857C5.16885 5.22139 5.30243 4.29757 5.58016 3.41065L2.66193 2.8789V13.0552L9.17972 13.8603L5.18429 13.0231V6.14857Z" fill="#00B0B2"/>
<path d="M14.4414 3.40447C14.7231 4.29282 14.8597 5.21884 14.8462 6.14857V13.0292L12.6321 13.4967L10.9002 13.8528L17.3228 13.054V2.8789L14.4414 3.40447Z" fill="#00B0B2"/>
<path d="M10.3508 0.155817C10.2341 0.102641 10.1224 0.0507022 10.0184 0C9.89152 0.0630686 9.75703 0.123664 9.61746 0.192916C8.11013 0.907694 5.83392 1.98604 5.83392 6.14857V12.5185L9.99302 13.4052L14.1965 12.5185V6.14857C14.1965 4.29361 13.7474 2.87271 12.8224 1.82033C12.0485 0.941083 11.107 0.504549 10.3508 0.153344" fill="#00B0B2"/>
</svg>
