<svg width="14" height="18" viewBox="0 0 14 18" fill="none" xmlns="http://www.w3.org/2000/svg">
<g id="elements">
<g id="Icon">
<path fill-rule="evenodd" clip-rule="evenodd" d="M7.00018 9.20829C5.50684 9.20829 4.29184 7.99329 4.29184 6.49996C4.29184 5.00663 5.50684 3.79163 7.00018 3.79163C8.49351 3.79163 9.70851 5.00663 9.70851 6.49996C9.70851 7.99329 8.49351 9.20829 7.00018 9.20829ZM7.00018 5.04163C6.19601 5.04163 5.54184 5.69579 5.54184 6.49996C5.54184 7.30413 6.19601 7.95829 7.00018 7.95829C7.80434 7.95829 8.45851 7.30413 8.45851 6.49996C8.45851 5.69579 7.80434 5.04163 7.00018 5.04163Z" fill="#161616"/>
<path fill-rule="evenodd" clip-rule="evenodd" d="M7.00014 14.625C6.44514 14.625 5.91931 14.4133 5.51931 14.0291C5.31669 13.833 5.11093 13.6368 4.90282 13.4384L4.88263 13.4191C2.40597 11.0616 -0.676517 8.12744 1.03514 4.01331C2.02264 1.63747 4.42014 0.041626 7.00014 0.041626C9.58014 0.041626 11.9785 1.63747 12.966 4.01331C14.6834 8.14229 11.5754 11.0905 9.0788 13.4588C8.8763 13.6505 8.67598 13.8408 8.48098 14.0283C8.08098 14.4133 7.55514 14.625 7.00014 14.625ZM7.00014 1.29163C4.91848 1.29163 2.98515 2.57829 2.18931 4.49329C0.807691 7.81401 3.31749 10.2031 5.74408 12.5131C5.96242 12.7206 6.17764 12.9258 6.38764 13.1291C6.5518 13.2866 6.77014 13.375 7.00014 13.375C7.23014 13.375 7.44849 13.2875 7.61432 13.1283C7.76688 12.9815 7.92243 12.8338 8.07943 12.6846L8.21849 12.5525C10.6677 10.2299 13.1993 7.82829 11.8126 4.49329C11.016 2.57829 9.08181 1.29163 7.00014 1.29163Z" fill="#161616"/>
<path d="M1.37518 15.6666C1.37518 17.2408 4.29101 17.9583 7.00018 17.9583C9.70934 17.9583 12.6252 17.2408 12.6252 15.6666C12.6252 15.3216 12.3427 15.0416 12.0002 15.0416C11.6577 15.0416 11.3793 15.3175 11.3752 15.6591C11.2768 15.9516 9.80018 16.7083 7.00018 16.7083C4.20018 16.7083 2.72351 15.9525 2.62518 15.6591C2.62101 15.3175 2.34518 15.0416 2.00018 15.0416C1.65518 15.0416 1.37518 15.3216 1.37518 15.6666Z" fill="#161616"/>
</g>
</g>
</svg>
