<svg width="22" height="22" viewBox="0 0 22 22" fill="none" xmlns="http://www.w3.org/2000/svg">
<g id="elements">
<g id="Icon">
<path d="M9.75 6C9.75 5.58579 9.41421 5.25 9 5.25C8.58579 5.25 8.25 5.58579 8.25 6V6.33359C7.83582 6.42809 7.45427 6.60048 7.13579 6.83934C6.63179 7.21734 6.25 7.79679 6.25 8.5C6.25 9.20321 6.63179 9.78266 7.13579 10.1607C7.63955 10.5385 8.30113 10.75 9 10.75C9.4057 10.75 9.74412 10.8743 9.96421 11.0393C10.1841 11.2042 10.25 11.3748 10.25 11.5C10.25 11.6252 10.1841 11.7958 9.96421 11.9607C9.74412 12.1257 9.4057 12.25 9 12.25C8.33162 12.25 7.90947 11.929 7.79224 11.6803C7.61566 11.3056 7.16877 11.145 6.79408 11.3216C6.41939 11.4981 6.25879 11.945 6.43537 12.3197C6.76526 13.0197 7.46133 13.4848 8.25 13.6655V14C8.25 14.4142 8.58579 14.75 9 14.75C9.41421 14.75 9.75 14.4142 9.75 14V13.6664C10.1642 13.5719 10.5457 13.3995 10.8642 13.1607C11.3682 12.7827 11.75 12.2032 11.75 11.5C11.75 10.7968 11.3682 10.2173 10.8642 9.83934C10.3604 9.46152 9.69887 9.25 9 9.25C8.5943 9.25 8.25588 9.12573 8.03579 8.96066C7.81593 8.79577 7.75 8.62522 7.75 8.5C7.75 8.37478 7.81593 8.20424 8.03579 8.03934C8.25588 7.87427 8.5943 7.75 9 7.75C9.66838 7.75 10.0905 8.07097 10.2078 8.31973C10.3843 8.69442 10.8312 8.85502 11.2059 8.67844C11.5806 8.50186 11.7412 8.05497 11.5646 7.68028C11.2347 6.98027 10.5387 6.51515 9.75 6.33451V6Z" fill="#1B8354"/>
<path fill-rule="evenodd" clip-rule="evenodd" d="M6.94471 0.250001H18.9991L19.0061 0.250033L19.016 0.250001C19.4911 0.250001 19.8802 0.479303 20.1687 0.760904C20.4541 1.03946 20.6847 1.40829 20.8722 1.81006C21.2486 2.61642 21.5188 3.70246 21.6626 4.91555L21.6684 4.96436C21.7158 5.3637 21.7614 5.74778 21.7473 6.07225C21.7309 6.4502 21.6325 6.83058 21.3326 7.16518C21.0239 7.50953 20.6366 7.64315 20.2576 7.69983C19.921 7.75013 19.5084 7.75007 19.0646 7.75001L17.7392 7.75C17.7192 9.61803 17.7338 13.2308 17.7434 15.6141L17.7434 15.6177C17.7471 16.53 17.75 17.2617 17.75 17.6458L17.75 17.7008C17.75 18.4095 17.7501 19.0198 17.6851 19.487C17.6185 19.9658 17.4575 20.5107 16.9442 20.8414C16.1857 21.3299 15.345 20.9917 14.8729 20.7447C14.6026 20.6033 14.3485 20.4359 14.1378 20.2911C14.0536 20.2332 13.9805 20.1821 13.9153 20.1364C13.8018 20.0569 13.7121 19.9941 13.6291 19.9417L13.5608 19.8986C13.3426 19.7609 13.2153 19.6805 13.1106 19.6272C13.0618 19.6024 13.0354 19.593 13.0245 19.5897C13.0069 19.5902 12.9771 19.5945 12.9021 19.6294C12.791 19.6812 12.6422 19.7706 12.371 19.9417L10.4334 21.1636C10.1987 21.3116 9.97652 21.4518 9.77611 21.5507C9.55239 21.6611 9.29931 21.75 9 21.75C8.7007 21.75 8.44762 21.6611 8.2239 21.5507C8.0235 21.4518 7.80133 21.3117 7.56669 21.1636L5.62905 19.9417C5.3717 19.7794 5.22883 19.6893 5.11523 19.6321C5.06492 19.6067 5.03674 19.5966 5.02267 19.5924C5.01141 19.5891 5.00792 19.5893 5.00792 19.5893L5.00497 19.5891C4.99302 19.5884 4.97515 19.5874 4.90363 19.6217C4.79707 19.6729 4.66431 19.7566 4.40255 19.9217L4.37095 19.9417C4.2879 19.994 4.19823 20.0568 4.08475 20.1363C4.01965 20.1819 3.94624 20.2333 3.86225 20.2911C3.65149 20.4359 3.39744 20.6033 3.12709 20.7447C2.655 20.9917 1.81435 21.3299 1.05584 20.8414C0.542467 20.5107 0.381518 19.9658 0.314901 19.487C0.249922 19.0198 0.249959 18.4095 0.250002 17.7008L0.250004 6.99976C0.249984 5.61906 0.249968 4.50754 0.36641 3.63362C0.487163 2.72735 0.745258 1.96484 1.34597 1.35869C1.94761 0.751609 2.70602 0.489916 3.60737 0.367638C4.47477 0.249963 5.57749 0.24998 6.94471 0.250001ZM18.1882 3.44837C17.9709 4.33753 17.8463 5.37454 17.7877 6.25H19.016C19.5254 6.25 19.8236 6.24804 20.0358 6.21631C20.1317 6.20197 20.1776 6.18544 20.1969 6.17658C20.2095 6.17082 20.2118 6.16832 20.2153 6.16436C20.2183 6.16254 20.2426 6.1475 20.2487 6.00716C20.2569 5.81923 20.2283 5.55875 20.173 5.09207C20.0404 3.97278 19.7989 3.05692 19.513 2.44447C19.3694 2.13683 19.2313 1.94203 19.121 1.83431C19.069 1.78358 19.0343 1.76222 19.0165 1.75367C18.9892 1.76622 18.9219 1.80796 18.8186 1.93803C18.6847 2.10655 18.5402 2.36551 18.4017 2.71965C18.3254 2.93548 18.2538 3.17974 18.1882 3.44837ZM17.1748 1.75C17.1102 1.89319 17.0506 2.04276 16.9956 2.19657C16.955 2.30154 16.9163 2.409 16.8795 2.51848C16.4825 3.70005 16.25 5.28446 16.25 7V7.04583C16.2149 8.57927 16.2326 12.9489 16.2435 15.6606C16.2471 16.5584 16.25 17.2746 16.25 17.6458C16.25 18.4253 16.2482 18.9292 16.1994 19.2803C16.1721 19.4763 16.1383 19.5573 16.1226 19.5849L16.1177 19.5862L16.1117 19.5874C16.0979 19.5898 16.0687 19.5921 16.019 19.5848C15.912 19.5691 15.762 19.517 15.5683 19.4157C15.3791 19.3167 15.1842 19.1901 14.9874 19.0549C14.9338 19.0181 14.8763 18.9779 14.8177 18.9369C14.6833 18.8429 14.5424 18.7443 14.4292 18.6729L14.351 18.6235C14.1541 18.4989 13.9621 18.3775 13.7908 18.2903C13.5802 18.1832 13.3315 18.0897 13.0325 18.0897C12.494 18.0897 12.0754 18.3541 11.6239 18.6394L9.65993 19.878C9.38899 20.0489 9.23384 20.1456 9.1124 20.2055C9.05789 20.2324 9.02713 20.243 9.01187 20.2473C9.00477 20.2493 9.00052 20.2499 9.00052 20.2499H8.99949L8.99707 20.2495C8.99707 20.2495 8.99229 20.2485 8.98814 20.2473C8.97288 20.243 8.94212 20.2324 8.88761 20.2055C8.76617 20.1456 8.61102 20.0489 8.34008 19.878L6.38036 18.6421C6.17055 18.5096 5.97017 18.3831 5.78972 18.2923C5.57787 18.1856 5.34072 18.0994 5.05716 18.0901C4.51054 18.0721 4.09449 18.3383 3.69097 18.5964C3.65095 18.622 3.61069 18.6477 3.5708 18.6729C3.45764 18.7443 3.31732 18.8424 3.18288 18.9364C3.12409 18.9776 3.06635 19.018 3.01257 19.0549C2.81584 19.1901 2.62089 19.3167 2.43174 19.4157C2.23803 19.517 2.08804 19.5691 1.98097 19.5848C1.93133 19.5921 1.90215 19.5898 1.88832 19.5874C1.88369 19.5867 1.8802 19.5858 1.8774 19.5849C1.86173 19.5573 1.82787 19.4763 1.8006 19.2803C1.75176 18.9292 1.75 18.4253 1.75 17.6458V7.05426C1.75 5.60624 1.75157 4.59501 1.85327 3.83173C1.95219 3.08935 2.13343 2.69504 2.4114 2.41457C2.68844 2.13502 3.07648 1.9534 3.80901 1.85402C4.56382 1.75162 5.5644 1.75 7 1.75H17.1748ZM1.88609 19.5968C1.88609 19.5968 1.88385 19.5953 1.88033 19.5898C1.88449 19.5937 1.88609 19.5968 1.88609 19.5968ZM16.1197 19.5898C16.1162 19.5953 16.1139 19.5968 16.1139 19.5968C16.1139 19.5968 16.1155 19.5937 16.1197 19.5898Z" fill="#1B8354"/>
</g>
</g>
</svg>
