<svg width="26" height="26" viewBox="0 0 26 26" fill="none" xmlns="http://www.w3.org/2000/svg">
<g id="elements">
<g id="Icon">
<path d="M14.2531 6.34059C13.7861 6.21617 13.3067 6.49386 13.1823 6.96082C13.0579 7.42777 13.3356 7.90718 13.8025 8.03159L19.3709 9.51523C19.8379 9.63964 20.3173 9.36196 20.4417 8.895C20.5661 8.42804 20.2884 7.94864 19.8215 7.82422L14.2531 6.34059Z" fill="#1B8354"/>
<path d="M13.0594 10.7702C12.5925 10.6458 12.1131 10.9235 11.9887 11.3904C11.8642 11.8574 12.1419 12.3368 12.6089 12.4612L15.3931 13.203C15.86 13.3274 16.3394 13.0497 16.4639 12.5828C16.5883 12.1158 16.3106 11.6364 15.8436 11.512L13.0594 10.7702Z" fill="#1B8354"/>
<path fill-rule="evenodd" clip-rule="evenodd" d="M19.1477 1.71018L17.911 1.38067C16.3883 0.974925 15.1603 0.647729 14.1596 0.519506C13.1206 0.386378 12.1978 0.448001 11.3458 0.937126C10.4931 1.42666 9.97684 2.19197 9.57251 3.15513C9.1835 4.08177 8.8543 5.30351 8.44649 6.81702L7.21945 11.3705C6.81162 12.8839 6.48237 14.1057 6.3533 15.1017C6.21916 16.1368 6.28119 17.0577 6.77465 17.9076C7.26769 18.7568 8.0373 19.2694 9.00395 19.6707C9.93512 20.0572 11.1631 20.3843 12.6857 20.79L13.9225 21.1195C15.4452 21.5253 16.6733 21.8525 17.6739 21.9807C18.7129 22.1138 19.6357 22.0522 20.4877 21.5631C21.3404 21.0735 21.8567 20.3082 22.261 19.3451C22.65 18.4184 22.9792 17.1967 23.387 15.6832L24.6141 11.1297C25.0219 9.61629 25.3512 8.39452 25.4802 7.39854C25.6144 6.36345 25.5523 5.44248 25.0589 4.5926C24.5658 3.74345 23.7962 3.23077 22.8296 2.82953C21.8984 2.44301 20.6704 2.11585 19.1477 1.71018ZM12.2171 2.45481C12.6059 2.23161 13.091 2.14689 13.9372 2.25531C14.8082 2.36693 15.9232 2.66209 17.5219 3.08805L18.6356 3.38478C20.2344 3.81076 21.3483 4.10946 22.1587 4.44582C22.9461 4.77266 23.3222 5.08669 23.5455 5.47131C23.7684 5.85521 23.8535 6.33417 23.7447 7.17363C23.6326 8.03862 23.3361 9.14625 22.9076 10.7364L21.714 15.166C21.2855 16.756 20.9854 17.8628 20.6474 18.6677C20.3196 19.4487 20.0045 19.8226 19.6164 20.0454C19.2276 20.2686 18.7425 20.3533 17.8963 20.2449C17.0253 20.1333 15.9103 19.8381 14.3116 19.4122L13.1979 19.1154C11.5991 18.6894 10.4852 18.3908 9.67484 18.0544C8.88743 17.7275 8.51137 17.4135 8.28805 17.0289C8.06515 16.645 7.98 16.166 8.08879 15.3266C8.20088 14.4616 8.49741 13.354 8.92589 11.7638L10.1195 7.33425C10.548 5.74417 10.8482 4.63746 11.1861 3.83251C11.514 3.05149 11.8291 2.67759 12.2171 2.45481Z" fill="#1B8354"/>
<path d="M5.41671 6.29217L5.21492 6.292C4.44203 6.29101 3.64189 6.28999 2.96179 6.42532C2.17427 6.58203 1.41222 6.94607 0.936376 7.78364C0.448191 8.64294 0.38631 9.57352 0.519546 10.6243C0.64802 11.6375 0.976011 12.8814 1.38339 14.4264L2.60648 19.0652C3.01375 20.6099 3.34172 21.8539 3.72906 22.7969C4.13056 23.7743 4.64344 24.5528 5.49453 25.0522C6.34772 25.5528 7.27302 25.6159 8.31254 25.4797C9.31218 25.3488 10.5382 25.0149 12.0563 24.6015L13.23 24.2819C13.6963 24.155 13.9713 23.674 13.8444 23.2078C13.7174 22.7415 13.2365 22.4664 12.7702 22.5934L11.6591 22.896C10.0636 23.3304 8.95271 23.631 8.08531 23.7445C7.24408 23.8547 6.76481 23.7685 6.38013 23.5428C5.99337 23.3159 5.67681 22.9329 5.34782 22.1319C5.00977 21.309 4.70975 20.1782 4.28248 18.5577L3.09165 14.0412C2.66442 12.4209 2.36784 11.2889 2.25564 10.4041C2.14653 9.54358 2.23147 9.04676 2.45797 8.64809C2.60034 8.39747 2.82309 8.23723 3.30332 8.14167C3.80524 8.04179 4.43448 8.04194 5.28173 8.04215L5.41684 8.04217C5.90009 8.04213 6.29181 7.65035 6.29178 7.1671C6.29174 6.68385 5.89996 6.29213 5.41671 6.29217Z" fill="#1B8354"/>
</g>
</g>
</svg>
