<svg width="26" height="24" viewBox="0 0 26 24" fill="none" xmlns="http://www.w3.org/2000/svg">
<g id="elements">
<path id="Icon" fill-rule="evenodd" clip-rule="evenodd" d="M6.1409 0.973448L6.06791 0.959546C5.14313 0.783384 4.33561 0.629557 3.65625 0.625101C2.89829 0.62013 2.22065 0.797459 1.60483 1.32515C0.971696 1.86767 0.697969 2.56546 0.573788 3.36305C0.458167 4.10566 0.458207 5.04025 0.458254 6.1514L0.458257 14.6816C0.458238 15.7083 0.458222 16.5504 0.53088 17.2164C0.605817 17.9034 0.768707 18.534 1.19235 19.0583C1.6332 19.604 2.27841 19.8907 2.98707 20.1013C3.69115 20.3106 4.61799 20.4871 5.76479 20.7054L5.81358 20.7147C7.84693 21.1018 9.41492 21.7151 10.5301 22.3169L10.5518 22.3286C11.1221 22.6364 11.5782 22.8825 11.9271 23.0503C12.1047 23.1357 12.276 23.2114 12.4354 23.2668C12.5847 23.3188 12.7836 23.375 12.9999 23.375C13.2162 23.375 13.4152 23.3188 13.5645 23.2668C13.7238 23.2114 13.8951 23.1357 14.0728 23.0503C14.4217 22.8825 14.8778 22.6364 15.448 22.3287L15.4698 22.3169C16.5849 21.7151 18.1529 21.1018 20.1863 20.7147L20.2349 20.7054C21.3817 20.4871 22.3087 20.3106 23.0128 20.1013C23.7214 19.8907 24.3667 19.604 24.8075 19.0583C25.2311 18.534 25.394 17.9034 25.469 17.2164C25.5416 16.5504 25.5416 15.7083 25.5416 14.6816V6.15143C25.5416 5.04026 25.5417 4.10566 25.4261 3.36305C25.3019 2.56546 25.0282 1.86767 24.395 1.32515C23.7792 0.797459 23.1016 0.62013 22.3436 0.625101C21.6642 0.629557 20.8567 0.783383 19.9319 0.959545L19.8589 0.973448C16.537 1.60595 14.2428 2.81954 12.9999 3.8265C11.7571 2.81954 9.46289 1.60595 6.1409 0.973448ZM2.74352 2.65402C2.96861 2.46114 3.20511 2.37218 3.64477 2.37506C4.14521 2.37835 4.79414 2.49846 5.81358 2.69256C9.22039 3.34122 11.2877 4.61624 12.1249 5.38026L12.1249 21.1867C11.9085 21.0722 11.6565 20.9363 11.3612 20.7769C10.083 20.0871 8.34436 19.4151 6.1409 18.9956C4.93383 18.7657 4.09468 18.6049 3.48561 18.4239C2.87114 18.2412 2.65241 18.0809 2.55357 17.9585C2.43751 17.8149 2.33055 17.5766 2.27056 17.0267C2.20949 16.4668 2.20826 15.7208 2.20826 14.6308L2.20826 6.22047C2.20826 5.02179 2.21074 4.22457 2.30296 3.63227C2.389 3.07961 2.53573 2.83206 2.74352 2.65402ZM13.8749 21.1867C14.0914 21.0722 14.3433 20.9363 14.6387 20.7769C15.9169 20.0871 17.6555 19.4151 19.8589 18.9956C21.066 18.7657 21.9052 18.6049 22.5142 18.4239C23.1287 18.2412 23.3474 18.0809 23.4463 17.9585C23.5623 17.8149 23.6693 17.5766 23.7293 17.0267C23.7904 16.4668 23.7916 15.7208 23.7916 14.6308V6.22047C23.7916 5.02179 23.7891 4.22458 23.6969 3.63227C23.6108 3.07961 23.4641 2.83206 23.2563 2.65402C23.0312 2.46114 22.7947 2.37218 22.3551 2.37506C21.8546 2.37835 21.2057 2.49846 20.1863 2.69256C16.7794 3.34122 14.7121 4.61625 13.8749 5.38027L13.8749 21.1867Z" fill="#1B8354"/>
</g>
</svg>
