<svg width="26" height="24" viewBox="0 0 26 24" fill="none" xmlns="http://www.w3.org/2000/svg">
<g id="elements">
<path id="Icon" fill-rule="evenodd" clip-rule="evenodd" d="M12.9995 23.9578C12.5135 23.9578 12.0136 23.7062 10.6775 23.0312L10.5507 22.9672C9.62665 22.4982 8.05632 21.8554 5.82099 21.4494L5.74632 21.4353C3.21582 20.9757 1.94532 20.7446 1.20915 19.886C0.458984 19.0098 0.458984 17.8174 0.458984 15.6533V7.70833C0.458984 5.38082 0.458984 3.97615 1.62682 3.03699C2.76199 2.10832 3.99982 2.32766 6.05082 2.69166L6.13132 2.70567C9.48772 3.30813 11.7237 4.81521 12.8803 5.7993C13.6291 4.60373 14.897 2.87379 16.7247 1.55895C17.7992 0.792482 18.6462 0.188215 19.7545 0.738865C19.7563 0.740032 19.7583 0.740901 19.7604 0.74177C19.7624 0.74264 19.7645 0.743509 19.7662 0.744676C20.604 1.17635 20.8078 1.92794 20.8574 2.94542C22.1136 2.43108 23.5035 2.32313 24.3792 3.03938C25.5412 3.97388 25.5412 5.37855 25.5412 7.70605V15.651C25.5412 17.8152 25.5412 19.0087 24.7898 19.8837C24.0548 20.7424 22.7843 20.9733 20.2538 21.4329L20.178 21.447C17.9438 21.853 16.3735 22.4971 15.4495 22.9649L15.3258 23.0278L15.3196 23.0309C14.0014 23.6969 13.4977 23.9514 13.0175 23.9576C13.0115 23.9577 13.0055 23.9578 12.9995 23.9578ZM12.1234 21.8002V7.46979C11.316 6.69433 9.25319 5.04358 5.82449 4.42764L5.74515 4.41363C3.89015 4.08463 3.22282 3.99128 2.72932 4.39495C2.22882 4.79745 2.20898 5.64916 2.20898 7.70833V15.6533C2.20898 17.3426 2.20899 18.3635 2.53799 18.7473C2.8686 19.1338 4.13315 19.3635 6.04649 19.7111L6.05899 19.7134L6.13365 19.7274C8.06682 20.0786 9.86815 20.6595 11.3405 21.4062L11.463 21.468C11.6919 21.5839 11.9169 21.6977 12.1234 21.8002ZM15.1242 21.1811C16.5037 20.5426 18.131 20.0435 19.8653 19.7274L19.9412 19.7134L19.9499 19.7118C21.8654 19.3638 23.1302 19.1341 23.461 18.7473C23.7912 18.3623 23.7912 17.3426 23.7912 15.6533V7.70833C23.7912 5.64916 23.7713 4.79862 23.2767 4.39962C22.9409 4.12504 21.8424 4.31241 20.8734 4.88819V14.3212C20.8734 15.2242 20.8734 15.7234 20.5945 16.1959C20.3087 16.6929 19.7732 16.9893 18.8072 17.5225C17.2046 18.4308 15.9849 19.8942 15.1242 21.1811ZM19.1245 4.39672C19.1242 4.41051 19.1242 4.42432 19.1245 4.43813V14.3199C19.1245 14.7446 19.1245 15.1822 19.0849 15.3093C18.9565 15.4412 18.4269 15.734 17.9579 15.993C17.9557 15.9938 17.9539 15.9949 17.9523 15.996C17.9514 15.9966 17.9506 15.9972 17.9497 15.9976C16.1892 16.9939 14.8359 18.5421 13.8734 19.9188V7.55919C14.3949 6.62703 15.6782 4.4675 17.7444 2.98117C18.5435 2.41067 18.8224 2.23913 18.9694 2.30213C19.1245 2.3978 19.1245 3.21567 19.1245 4.00667V4.39672Z" fill="#1B8354"/>
</g>
</svg>
