<svg width="28" height="28" viewBox="0 0 28 28" fill="none" xmlns="http://www.w3.org/2000/svg">
<g id="award-03">
<path id="Icon" fill-rule="evenodd" clip-rule="evenodd" d="M18.553 1.59152C19.4207 1.38413 20.33 1.35197 21.0661 1.99182C21.79 2.62102 21.9123 3.52581 21.8666 4.4306C21.8215 5.32285 21.5952 6.48366 21.3183 7.90418L18.9322 20.1449C19.1491 20.1555 19.351 20.1718 19.5369 20.1968C20.1105 20.2739 20.6603 20.4478 21.1062 20.8938C21.5522 21.3397 21.7261 21.8895 21.8032 22.4631C21.8752 22.9983 21.8751 23.6666 21.8751 24.4423L21.8751 24.7916H23.3334C23.8167 24.7916 24.2084 25.1833 24.2084 25.6666C24.2084 26.1498 23.8167 26.5416 23.3334 26.5416H21.0035C21.0023 26.5416 21.0012 26.5416 21.0001 26.5416H7.00009C6.99912 26.5416 6.99815 26.5416 6.99718 26.5416H4.66675C4.1835 26.5416 3.79175 26.1498 3.79175 25.6666C3.79175 25.1833 4.1835 24.7916 4.66675 24.7916H6.12509L6.12508 24.4423C6.12504 23.6666 6.125 22.9983 6.19696 22.4631C6.27407 21.8895 6.44798 21.3397 6.89393 20.8938C7.33988 20.4478 7.88969 20.2739 8.46327 20.1968C8.64503 20.1724 8.84215 20.1562 9.05361 20.1456L8.09059 15.2633C7.7135 13.3516 7.41518 11.8393 7.32252 10.6077C7.22725 9.34156 7.33872 8.2686 7.86212 7.27084C8.38715 6.26996 9.2016 5.58307 10.2879 4.97196C11.3398 4.38025 12.7306 3.81528 14.4808 3.10432L15.3403 2.75516C16.6377 2.22806 17.7065 1.79383 18.553 1.59152ZM18.9598 3.29358C18.2588 3.46113 17.3142 3.84218 15.9278 4.4054L15.1952 4.70298C13.3766 5.44175 12.0896 5.96637 11.1459 6.49719C10.2257 7.01488 9.72317 7.49028 9.41184 8.08378C9.09886 8.68041 8.98542 9.38444 9.06758 10.4764C9.15144 11.591 9.42795 13.0004 9.81865 14.9812L10.8332 20.1245H17.1533L19.5867 7.64069C19.8809 6.13143 20.0808 5.09444 20.1188 4.34232C20.1569 3.58784 20.0138 3.39584 19.918 3.31258C19.8345 3.23997 19.655 3.12742 18.9598 3.29358ZM7.87509 24.7916H20.1251V24.4999C20.1251 23.6502 20.1232 23.101 20.0688 22.6963C20.0178 22.3168 19.9354 22.1978 19.8688 22.1312C19.8022 22.0646 19.6832 21.9822 19.3037 21.9312C18.899 21.8768 18.3498 21.8749 17.5001 21.8749H10.5001C9.65039 21.8749 9.10115 21.8768 8.69645 21.9312C8.31693 21.9822 8.19798 22.0646 8.13137 22.1312C8.06476 22.1978 7.98238 22.3168 7.93135 22.6963C7.87694 23.101 7.87509 23.6502 7.87509 24.4999V24.7916Z" fill="#1B8354"/>
</g>
</svg>
