<svg width="18" height="18" viewBox="0 0 18 18" fill="none" xmlns="http://www.w3.org/2000/svg">
<g id="elements">
<path id="Icon" fill-rule="evenodd" clip-rule="evenodd" d="M6.95775 0.0410158H6.87623C5.54101 0.0410058 4.48322 0.0409977 3.64637 0.139916C2.78723 0.24147 2.07998 0.454668 1.48919 0.939516C1.28876 1.104 1.10498 1.28778 0.940493 1.48821C0.455645 2.079 0.242447 2.78625 0.140893 3.64539C0.0419746 4.48224 0.0419825 5.54004 0.0419924 6.87526V6.95678C0.0419823 8.29199 0.0419742 9.34979 0.140893 10.1866C0.242446 11.0458 0.455644 11.753 0.940492 12.3438C1.10498 12.5442 1.28876 12.728 1.48919 12.8925C2.04908 13.352 2.71357 13.5675 3.51319 13.6753C4.16224 13.7628 4.94353 13.784 5.88425 13.7892C5.8951 14.3076 5.91915 14.7629 5.97243 15.1591C6.07328 15.9092 6.28902 16.5408 6.79062 17.0424C7.29221 17.544 7.92378 17.7597 8.67387 17.8606C9.39634 17.9577 10.3149 17.9577 11.4546 17.9577H12.3794C13.519 17.9577 14.4376 17.9577 15.1601 17.8606C15.9102 17.7597 16.5418 17.544 17.0434 17.0424C17.545 16.5408 17.7607 15.9092 17.8616 15.1591C17.9587 14.4367 17.9587 13.5181 17.9587 12.3784V11.4536C17.9587 10.314 17.9587 9.39536 17.8616 8.67289C17.7607 7.9228 17.545 7.29124 17.0434 6.78964C16.5418 6.28804 15.9102 6.0723 15.1601 5.97145C14.7639 5.91818 14.3086 5.89413 13.7902 5.88327C13.7849 4.94255 13.7637 4.16127 13.6763 3.51221C13.5685 2.71259 13.353 2.0481 12.8935 1.48821C12.729 1.28778 12.5452 1.104 12.3448 0.939517C11.754 0.454669 11.0468 0.24147 10.1876 0.139916C9.35077 0.040998 8.29297 0.041006 6.95775 0.0410158ZM12.5401 5.87436C12.5345 4.9492 12.5137 4.24505 12.4375 3.67915C12.3468 3.006 12.185 2.59529 11.9272 2.2812C11.8147 2.14407 11.6889 2.01832 11.5518 1.90578C11.2206 1.634 10.782 1.46888 10.0409 1.38127C9.28596 1.29204 8.30209 1.29102 6.91699 1.29102C5.5319 1.29102 4.54803 1.29204 3.7931 1.38127C3.05197 1.46888 2.61335 1.634 2.28218 1.90578C2.14504 2.01832 2.0193 2.14407 1.90676 2.2812C1.63497 2.61237 1.46986 3.05099 1.38225 3.79212C1.29302 4.54705 1.29199 5.53092 1.29199 6.91602C1.29199 8.30111 1.29302 9.28498 1.38225 10.0399C1.46985 10.781 1.63497 11.2197 1.90676 11.5508C2.0193 11.688 2.14504 11.8137 2.28218 11.9263C2.59627 12.184 3.00698 12.3458 3.68012 12.4365C4.24603 12.5127 4.95018 12.5336 5.87533 12.5391C5.87532 12.486 5.87533 12.4325 5.87533 12.3784V11.4536C5.87531 10.314 5.8753 9.39536 5.97243 8.67289C6.07328 7.9228 6.28902 7.29124 6.79062 6.78964C7.29222 6.28804 7.92378 6.0723 8.67387 5.97145C9.39634 5.87432 10.3149 5.87433 11.4546 5.87435H12.3794C12.4334 5.87435 12.487 5.87435 12.5401 5.87436ZM7.6745 7.67352C7.90514 7.44289 8.22895 7.29252 8.84043 7.21031C9.46989 7.12568 10.3041 7.12435 11.5003 7.12435H12.3337C13.5298 7.12435 14.3641 7.12568 14.9936 7.21031C15.605 7.29252 15.9288 7.44289 16.1595 7.67353C16.3901 7.90416 16.5405 8.22797 16.6227 8.83945C16.7073 9.46891 16.7087 10.3032 16.7087 11.4994V12.3327C16.7087 13.5289 16.7073 14.3631 16.6227 14.9926C16.5405 15.6041 16.3901 15.9279 16.1595 16.1585C15.9288 16.3891 15.605 16.5395 14.9936 16.6217C14.3641 16.7064 13.5298 16.7077 12.3337 16.7077H11.5003C10.3041 16.7077 9.46988 16.7064 8.84043 16.6217C8.22895 16.5395 7.90514 16.3891 7.6745 16.1585C7.44386 15.9279 7.29349 15.6041 7.21128 14.9926C7.12665 14.3631 7.12533 13.5289 7.12533 12.3327V11.4993C7.12533 10.3032 7.12665 9.46891 7.21128 8.83945C7.29349 8.22797 7.44387 7.90416 7.6745 7.67352Z" fill="#1B8354"/>
</g>
</svg>
