<svg width="16" height="16" viewBox="0 0 16 16" fill="none" xmlns="http://www.w3.org/2000/svg">
<g id="elements">
<g id="Icon">
<path d="M14.2226 1.83194C12.7839 0.334665 10.4407 0.334667 9.00204 1.83194L8.40744 2.45077C8.16828 2.69968 8.17618 3.09532 8.42509 3.33448C8.67399 3.57364 9.06964 3.56574 9.30879 3.31683L9.9034 2.698C10.8502 1.71265 12.3745 1.71265 13.3212 2.698C14.2815 3.69741 14.2815 5.32772 13.3212 6.32714L10.6217 9.13663C10.472 9.29249 10.3089 9.42277 10.1371 9.52833C9.21373 10.0959 8.00435 9.96969 7.20391 9.13663C7.0737 9.00112 6.96129 8.85429 6.86651 8.69908C6.68663 8.40449 6.30198 8.3115 6.00738 8.49139C5.71278 8.67127 5.61979 9.05592 5.79968 9.35052C5.94096 9.58188 6.10863 9.80087 6.30256 10.0027C7.51464 11.2642 9.37274 11.4654 10.7917 10.5933C11.0539 10.4321 11.2999 10.2349 11.5231 10.0027L14.2226 7.1932C15.6477 5.70998 15.6477 3.31516 14.2226 1.83194Z" fill="#1B8354"/>
<path d="M9.69697 5.9986C8.25831 4.50133 5.91505 4.50133 4.47639 5.9986L1.77687 8.8081C0.351719 10.2913 0.351719 12.6861 1.77687 14.1694C3.21553 15.6666 5.55879 15.6666 6.99745 14.1694L7.59227 13.5503C7.83142 13.3014 7.82352 12.9058 7.57462 12.6666C7.32572 12.4274 6.93007 12.4353 6.69092 12.6842L6.0961 13.3033C5.14932 14.2887 3.62501 14.2887 2.67822 13.3033C1.71794 12.3039 1.71794 10.6736 2.67822 9.67417L5.37774 6.86467C6.32452 5.87931 7.84883 5.87931 8.79562 6.86467C8.92579 7.00015 9.03819 7.14694 9.13295 7.3021C9.31285 7.59669 9.6975 7.68966 9.99209 7.50975C10.2867 7.32984 10.3796 6.94519 10.1997 6.6506C10.0585 6.41931 9.89085 6.20038 9.69697 5.9986Z" fill="#1B8354"/>
</g>
</g>
</svg>
