<svg width="32" height="32" viewBox="0 0 32 32" fill="none" xmlns="http://www.w3.org/2000/svg">
<path fill-rule="evenodd" clip-rule="evenodd" d="M15.9999 19.9584C18.6463 19.9584 20.7916 17.8131 20.7916 15.1667V11.8334C20.7916 9.18705 18.6463 7.04175 15.9999 7.04175C13.3536 7.04175 11.2083 9.18705 11.2083 11.8334V15.1667C11.2083 17.8131 13.3536 19.9584 15.9999 19.9584ZM15.9999 8.29175C14.0439 8.29175 12.4583 9.87741 12.4583 11.8334V15.1667C12.4583 17.1228 14.0439 18.7084 15.9999 18.7084C17.7427 18.7084 19.1914 17.4497 19.4866 15.7917H17.6666C17.3214 15.7917 17.0416 15.5119 17.0416 15.1667C17.0416 14.8216 17.3214 14.5417 17.6666 14.5417H19.5416V12.4584H17.6666C17.3214 12.4584 17.0416 12.1786 17.0416 11.8334C17.0416 11.4882 17.3214 11.2084 17.6666 11.2084H19.4866C19.1914 9.55049 17.7427 8.29175 15.9999 8.29175Z" fill="#161616"/>
<path d="M9.95825 15.1667C9.95825 14.8216 9.67843 14.5417 9.33325 14.5417C8.98807 14.5417 8.70825 14.8216 8.70825 15.1667C8.70825 18.9833 11.6404 22.115 15.3749 22.432V23.7084H13.4999C13.1547 23.7084 12.8749 23.9882 12.8749 24.3334C12.8749 24.6786 13.1547 24.9584 13.4999 24.9584H18.4999C18.8451 24.9584 19.1249 24.6786 19.1249 24.3334C19.1249 23.9882 18.8451 23.7084 18.4999 23.7084H16.6249V22.432C20.3594 22.115 23.2916 18.9833 23.2916 15.1667C23.2916 14.8216 23.0118 14.5417 22.6666 14.5417C22.3214 14.5417 22.0416 14.8216 22.0416 15.1667C22.0416 18.5035 19.3366 21.2084 15.9999 21.2084C12.6632 21.2084 9.95825 18.5035 9.95825 15.1667Z" fill="#161616"/>
</svg>
