<svg width="32" height="32" viewBox="0 0 32 32" fill="none" xmlns="http://www.w3.org/2000/svg">
<path d="M11.0609 8.28883C11.4045 8.25526 11.6557 7.94955 11.6222 7.60601C11.5886 7.26247 11.2829 7.01119 10.9393 7.04476C9.77198 7.15883 8.84852 7.42827 8.13839 8.13839C7.42827 8.84852 7.15883 9.77198 7.04476 10.9393C7.01119 11.2829 7.26247 11.5886 7.60601 11.6222C7.94955 11.6557 8.25526 11.4045 8.28883 11.0609C8.39226 10.0024 8.61566 9.4289 9.02228 9.02228C9.4289 8.61566 10.0024 8.39226 11.0609 8.28883Z" fill="#161616"/>
<path d="M21.0609 7.04476C20.7174 7.01119 20.4117 7.26247 20.3781 7.60601C20.3445 7.94955 20.5958 8.25526 20.9393 8.28883C21.9978 8.39226 22.5714 8.61566 22.978 9.02228C23.3846 9.4289 23.608 10.0024 23.7114 11.0609C23.745 11.4045 24.0507 11.6557 24.3942 11.6222C24.7378 11.5886 24.9891 11.2829 24.9555 10.9393C24.8414 9.77198 24.572 8.84852 23.8619 8.13839C23.1517 7.42827 22.2283 7.15883 21.0609 7.04476Z" fill="#161616"/>
<path d="M14.3335 7.04179C13.9883 7.04179 13.7085 7.32162 13.7085 7.66679C13.7085 8.01197 13.9883 8.29179 14.3335 8.29179H17.6668C18.012 8.29179 18.2918 8.01197 18.2918 7.66679C18.2918 7.32162 18.012 7.04179 17.6668 7.04179L14.3335 7.04179Z" fill="#161616"/>
<path d="M8.29179 14.3335C8.29179 13.9883 8.01197 13.7085 7.66679 13.7085C7.32162 13.7085 7.04179 13.9883 7.04179 14.3335L7.04179 17.6668C7.04179 18.012 7.32162 18.2918 7.66679 18.2918C8.01197 18.2918 8.29179 18.012 8.29179 17.6668L8.29179 14.3335Z" fill="#161616"/>
<path d="M8.28883 20.9393C8.25526 20.5958 7.94955 20.3445 7.60601 20.3781C7.26247 20.4117 7.01119 20.7174 7.04476 21.0609C7.15883 22.2283 7.42827 23.1517 8.13839 23.8619C8.84852 24.572 9.77198 24.8414 10.9393 24.9555C11.2829 24.9891 11.5886 24.7378 11.6222 24.3942C11.6557 24.0507 11.4045 23.745 11.0609 23.7114C10.0024 23.608 9.4289 23.3846 9.02228 22.978C8.61566 22.5714 8.39226 21.9978 8.28883 20.9393Z" fill="#161616"/>
<path d="M18.3752 16.1251C18.7204 16.1251 19.0002 16.4049 19.0002 16.7501V17.7501H20.0002C20.3454 17.7501 20.6252 18.0299 20.6252 18.3751C20.6252 18.7203 20.3454 19.0001 20.0002 19.0001H19.0002V20.0001C19.0002 20.3453 18.7204 20.6251 18.3752 20.6251C18.03 20.6251 17.7502 20.3453 17.7502 20.0001V19.0001H16.7502C16.405 19.0001 16.1252 18.7203 16.1252 18.3751C16.1252 18.0299 16.405 17.7501 16.7502 17.7501H17.7502V16.7501C17.7502 16.4049 18.03 16.1251 18.3752 16.1251Z" fill="#161616"/>
<path fill-rule="evenodd" clip-rule="evenodd" d="M12.8752 18.3751C12.8752 15.3375 15.3376 12.8751 18.3752 12.8751C21.4128 12.8751 23.8752 15.3375 23.8752 18.3751C23.8752 19.507 23.5333 20.559 22.9471 21.4335C22.8633 21.5585 22.7746 21.6798 22.6812 21.7972L24.7755 23.8915C25.0195 24.1355 25.0195 24.5313 24.7755 24.7754C24.5314 25.0194 24.1357 25.0194 23.8916 24.7754L21.7973 22.6811C20.8581 23.4285 19.6688 23.8751 18.3752 23.8751C15.3376 23.8751 12.8752 21.4126 12.8752 18.3751ZM18.3752 14.1251C16.028 14.1251 14.1252 16.0279 14.1252 18.3751C14.1252 20.7223 16.028 22.6251 18.3752 22.6251C20.7224 22.6251 22.6252 20.7223 22.6252 18.3751C22.6252 16.0279 20.7224 14.1251 18.3752 14.1251Z" fill="#161616"/>
</svg>
