<svg width="32" height="32" viewBox="0 0 32 32" fill="none" xmlns="http://www.w3.org/2000/svg">
<path fill-rule="evenodd" clip-rule="evenodd" d="M16.0001 19.1251C14.2742 19.1251 12.8751 17.726 12.8751 16.0001C12.8751 14.2742 14.2742 12.8751 16.0001 12.8751C17.726 12.8751 19.1251 14.2742 19.1251 16.0001C19.1251 17.726 17.726 19.1251 16.0001 19.1251ZM14.1251 16.0001C14.1251 17.0356 14.9645 17.8751 16.0001 17.8751C17.0356 17.8751 17.8751 17.0356 17.8751 16.0001C17.8751 14.9645 17.0356 14.1251 16.0001 14.1251C14.9645 14.1251 14.1251 14.9645 14.1251 16.0001Z" fill="#161616"/>
<path fill-rule="evenodd" clip-rule="evenodd" d="M16.0001 9.54175C13.8579 9.54175 12.0217 10.4846 10.6003 11.5942C9.17769 12.7049 8.12613 14.0165 7.53792 14.8413L7.49357 14.9032C7.28261 15.1966 7.04175 15.5316 7.04175 16.0001C7.04175 16.4686 7.28261 16.8036 7.49357 17.097L7.53792 17.1588C8.12614 17.9836 9.17769 19.2953 10.6003 20.4059C12.0217 21.5156 13.8579 22.4584 16.0001 22.4584C18.1422 22.4584 19.9785 21.5156 21.3998 20.4059C22.8225 19.2953 23.874 17.9836 24.4622 17.1588L24.5066 17.097C24.7176 16.8036 24.9584 16.4686 24.9584 16.0001C24.9584 15.5316 24.7176 15.1966 24.5066 14.9032L24.4622 14.8413C23.874 14.0165 22.8225 12.7049 21.3998 11.5942C19.9785 10.4846 18.1422 9.54175 16.0001 9.54175ZM8.55564 15.5671C9.10581 14.7957 10.0771 13.5886 11.3695 12.5795C12.6633 11.5695 14.2345 10.7917 16.0001 10.7917C17.7656 10.7917 19.3369 11.5695 20.6306 12.5795C21.9231 13.5886 22.8944 14.7957 23.4445 15.5671C23.5806 15.758 23.6454 15.8512 23.684 15.9254C23.7086 15.9725 23.7085 15.9854 23.7084 15.9981L23.7084 16.0001L23.7084 16.0021C23.7085 16.0147 23.7086 16.0277 23.684 16.0748C23.6454 16.149 23.5806 16.2422 23.4445 16.433C22.8944 17.2045 21.9231 18.4116 20.6306 19.4206C19.3369 20.4307 17.7656 21.2084 16.0001 21.2084C14.2345 21.2084 12.6633 20.4307 11.3695 19.4206C10.0771 18.4116 9.10581 17.2045 8.55564 16.433C8.41954 16.2422 8.35476 16.149 8.31615 16.0748C8.2916 16.0277 8.29167 16.0147 8.29174 16.0021L8.29175 16.0001L8.29174 15.9981C8.29167 15.9854 8.2916 15.9725 8.31615 15.9254C8.35476 15.8512 8.41954 15.758 8.55564 15.5671Z" fill="#161616"/>
</svg>
