<svg width="100" height="100" viewBox="0 0 100 100" fill="none" xmlns="http://www.w3.org/2000/svg">
<path d="M0.5 16C0.5 7.43959 7.43959 0.5 16 0.5H84C92.5604 0.5 99.5 7.43959 99.5 16V84C99.5 92.5604 92.5604 99.5 84 99.5H16C7.43959 99.5 0.5 92.5604 0.5 84V16Z" fill="white"/>
<path d="M0.5 16C0.5 7.43959 7.43959 0.5 16 0.5H84C92.5604 0.5 99.5 7.43959 99.5 16V84C99.5 92.5604 92.5604 99.5 84 99.5H16C7.43959 99.5 0.5 92.5604 0.5 84V16Z" stroke="#D2D6DB"/>
<g clip-path="url(#clip0_167_4556)">
<path d="M50.7368 34.7763L51.0005 45.0142C51.0128 45.9183 51.1902 46.8118 51.5229 47.6431L51.6379 47.9305L50.0419 48.9046L48.4459 47.9305L48.5379 47.7167C48.9157 46.8381 49.1178 45.8841 49.1309 44.9179L49.1498 34.8V34.4478C47.4446 36.2393 46.3299 38.7079 46.0671 41.1896C44.9384 39.293 44.876 36.8139 45.5882 34.6993C45.819 34.0133 46.1237 33.3633 46.4843 32.7484C44.5335 33.4667 42.7453 34.694 41.3579 36.3251C41.316 34.0668 42.4857 31.9057 44.14 30.4944C44.3643 30.3035 44.5975 30.1265 44.8366 29.9601C43.3342 29.7831 41.8031 29.8935 40.3418 30.3087C41.4565 28.3859 43.5379 27.2471 45.6457 27.0184C47.1275 26.8581 48.6184 27.7727 50.0427 28.2606C51.467 27.7727 52.9579 26.8581 54.4397 27.0184C56.5475 27.2471 58.629 28.385 59.7428 30.307C58.2396 29.8795 56.6617 29.7778 55.1166 29.9767C55.3458 30.1379 55.5692 30.3087 55.7852 30.4927C57.4395 31.9039 58.6092 34.065 58.5673 36.3234C57.175 34.6861 55.3786 33.4553 53.4187 32.7388C53.781 33.3563 54.0882 34.0098 54.3198 34.6984C55.032 36.8166 54.9687 39.2992 53.8368 41.1966C53.5608 38.6737 52.4897 36.2314 50.7376 34.4373" fill="#006A5B"/>
<path d="M55.9257 55.091L54.089 53.4852C45.4502 45.6275 38.4788 47.0685 36.0171 47.9699C35.8281 48.0391 35.8733 48.3378 36.0737 48.3343C38.6382 48.2923 45.704 48.8047 53.0253 54.8693L54.0233 55.7418L56.0924 57.4903C56.6715 57.9643 57.5299 57.7812 57.8798 57.0523C58.0934 56.6065 58.0318 56.0432 57.7246 55.6648C57.4535 55.3301 57.0773 55.1882 56.7159 55.2206C56.5549 55.2355 56.3972 55.2846 56.2526 55.3669L55.9249 55.091H55.9257Z" fill="#006A5B"/>
<path d="M44.1589 55.091L45.9956 53.4852C54.6344 45.6275 61.6058 47.0685 64.0676 47.9699C64.2565 48.0391 64.2113 48.3378 64.0109 48.3343C61.4464 48.2923 54.3806 48.8047 47.0593 54.8693L46.0613 55.7418L43.9922 57.4903C43.4131 57.9643 42.5547 57.7812 42.2048 57.0523C41.9912 56.6065 42.0528 56.0432 42.36 55.6648C42.6311 55.3301 43.0073 55.1882 43.3687 55.2206C43.5297 55.2355 43.6874 55.2846 43.832 55.3669L44.1597 55.091H44.1589Z" fill="#006A5B"/>
<path d="M17.3447 64.359C17.3447 64.359 18.6187 65.6739 18.3952 66.1242C18.3517 66.2127 18.0963 66.2188 17.8178 66.2127H16.6695C16.4682 66.2127 16 66.1478 16 65.5671C16.06 64.755 17.3447 64.359 17.3447 64.359ZM17.0342 63.6127C17.0342 63.7905 16.9036 63.9386 16.7352 63.9386C16.5668 63.9386 16.4411 63.7905 16.4411 63.6127C16.4411 63.4348 16.5709 63.2868 16.7352 63.2868C16.8994 63.2868 17.0342 63.4348 17.0342 63.6127ZM17.1483 65.4374C17.1483 65.2832 17.0342 65.1597 16.8929 65.1597C16.7516 65.1597 16.6366 65.2841 16.6366 65.4374C16.6366 65.5907 16.7508 65.716 16.8929 65.716C17.035 65.716 17.1483 65.5916 17.1483 65.4374ZM17.8014 63.6127C17.8014 63.7905 17.6658 63.9386 17.5024 63.9386C17.3389 63.9386 17.2026 63.7905 17.2026 63.6127C17.2026 63.4348 17.3381 63.2868 17.5024 63.2868C17.6667 63.2868 17.8014 63.4348 17.8014 63.6127Z" fill="#6F7271"/>
<path d="M19.6331 64.8155L20.2212 64.5483V66.2547C20.2106 66.7646 19.9436 67.143 19.5296 67.143H18.6096L18.9144 66.5333H19.4696C19.6824 66.5333 19.6922 66.2486 19.6922 66.2425C19.6922 66.154 19.638 64.8146 19.6323 64.8146L19.6331 64.8155Z" fill="#6F7271"/>
<path d="M21.9101 64.4125C21.9101 64.4125 23.0748 65.6091 23.0748 66.1251C23.0748 66.1426 23.0699 66.1601 23.0699 66.1785C22.9664 66.7418 22.6345 67.1325 22.177 67.1325H20.4677L20.7732 66.5219H22.3076C22.4497 66.5219 22.5089 66.3327 22.5089 66.2495C22.5089 66.2319 22.5089 66.2144 22.4982 66.2144H21.3499C21.1486 66.2144 20.6804 66.1496 20.6804 65.5688C20.7404 64.7567 21.9109 64.4142 21.9109 64.4142L21.9101 64.4125ZM21.8279 65.4374C21.8279 65.2832 21.7137 65.1597 21.5725 65.1597C21.4312 65.1597 21.3162 65.2841 21.3162 65.4374C21.3162 65.5907 21.4303 65.716 21.5725 65.716C21.7146 65.716 21.8279 65.5916 21.8279 65.4374Z" fill="#6F7271"/>
<path d="M24.7374 65.6039V66.2136H23.1036V65.6039H23.9209L23.8823 64.8873L24.4598 64.5255V65.6039H24.7374ZM23.9752 63.9088C23.9752 64.0867 23.8446 64.2347 23.6762 64.2347C23.5078 64.2347 23.3821 64.0867 23.3821 63.9088C23.3821 63.731 23.5119 63.5829 23.6762 63.5829C23.8404 63.5829 23.9752 63.731 23.9752 63.9088Z" fill="#6F7271"/>
<path d="M27.4933 66.2136H26.7746C26.5676 66.3143 26.2579 66.3441 25.9474 66.3441C25.6213 66.3441 25.2944 66.2968 25.1038 66.2136H24.5378V65.6039H24.9568C25.0167 65.3192 25.218 64.5019 25.9909 64.4835C26.4485 64.4835 26.8781 65.0345 26.9988 65.5916H27.4941V66.2136H27.4933ZM26.1158 65.4488C26.1158 65.2946 26.0016 65.1711 25.8595 65.1711C25.7174 65.1711 25.604 65.2955 25.604 65.4488C25.604 65.6021 25.7182 65.7335 25.8595 65.7335C26.0008 65.7335 26.1158 65.603 26.1158 65.4488Z" fill="#6F7271"/>
<path d="M28.2407 62.5992V66.2136H26.9453V65.6039H27.6912L27.6641 62.8725L28.2415 62.5992H28.2407Z" fill="#6F7271"/>
<path d="M16 71.9418L17.0186 69.3085C17.1221 69.2875 17.3011 69.2875 17.4145 69.3085L18.41 71.9313C18.3304 71.9873 18.0938 72.0285 17.9903 72.0136L17.7356 71.3102H16.6506L16.3918 72.0136C16.2834 72.0285 16.0805 71.9978 16 71.9418ZM16.7927 70.93H17.5993L17.2026 69.821L16.7927 70.93Z" fill="#6F7271"/>
<path d="M18.6244 69.1701C18.723 69.0983 18.8741 69.0466 19.0441 69.0466L19.0343 71.9821C18.9488 72.0232 18.7985 72.018 18.7041 72.0075C18.7041 72.0075 18.6564 69.6046 18.6244 69.1692V69.1701Z" fill="#6F7271"/>
<path d="M20.5072 72.0039C20.5072 72.0039 20.5072 70.4227 20.4456 69.4521C20.5499 69.375 20.6862 69.319 20.8752 69.3137L21.7237 70.6234L22.4925 69.453C22.5919 69.3759 22.7332 69.3199 22.9172 69.3146V71.9838C22.8137 72.0197 22.6765 72.025 22.5541 72.0048C22.5541 72.0048 22.55 70.9475 22.5213 70.0285L21.8329 71.0806C21.7951 71.106 21.644 71.106 21.6062 71.0806L20.8752 69.9515L20.8702 71.9838C20.7708 72.0197 20.6296 72.025 20.5072 72.0048V72.0039Z" fill="#6F7271"/>
<path d="M23.3163 71.4748C23.3163 71.085 23.6325 70.8897 24.095 70.8739C24.2174 70.8695 24.3537 70.8739 24.4958 70.8897V70.8178C24.4958 70.4841 24.2552 70.4429 24.0194 70.4429C23.8494 70.4429 23.6186 70.5147 23.4954 70.5918C23.4337 70.5507 23.3442 70.3658 23.3401 70.2686C23.543 70.1503 23.8445 70.0837 24.104 70.0837C24.5287 70.0837 24.8737 70.2432 24.8737 70.7924V71.9777C24.8408 71.9934 24.5862 72.0031 24.5385 71.9978C24.5336 71.982 24.5246 71.8647 24.5197 71.8384C24.3504 71.9566 24.1993 72.0495 24.0671 72.0495C23.6095 72.0495 23.3171 71.8445 23.3171 71.474L23.3163 71.4748ZM24.4999 71.6544V71.1823C24.1837 71.1463 23.9151 71.1674 23.7451 71.2444C23.7212 71.3005 23.7171 71.3575 23.7171 71.4135C23.7171 71.6544 23.9241 71.7105 24.1607 71.7105C24.2691 71.7105 24.3677 71.7 24.4999 71.6544Z" fill="#6F7271"/>
<path d="M26.5198 71.8244C26.3547 71.9374 26.1658 72.0504 26.0582 72.0504C25.4783 72.0504 25.1333 71.6658 25.1333 71.1052C25.1333 70.4894 25.5202 70.0838 26.1239 70.0838C26.2233 70.0838 26.3506 70.089 26.4541 70.1197L26.4122 69.1701C26.5116 69.0983 26.6669 69.0466 26.8369 69.0466V71.9821C26.818 71.9926 26.5773 72.0031 26.5494 71.9978C26.5355 71.9777 26.5256 71.9155 26.5207 71.8235L26.5198 71.8244ZM26.5108 71.5931L26.4681 70.5104C26.3687 70.4587 26.1896 70.4333 26.0484 70.4333C25.8882 70.4333 25.7181 70.4797 25.6475 70.5314C25.5769 70.6391 25.5202 70.7828 25.5202 70.9931C25.5202 71.4547 25.765 71.6702 26.1716 71.6702C26.289 71.6702 26.4164 71.6395 26.5108 71.5931Z" fill="#6F7271"/>
<path d="M27.1539 69.3497C27.1539 69.3497 27.3141 69.1745 27.5269 69.0466C27.6542 69.2262 27.7955 69.4565 27.7955 69.4565L27.4275 69.7439L27.1539 69.3488V69.3497ZM27.2624 70.2064C27.3617 70.1451 27.5408 70.1135 27.6681 70.1241L27.6731 71.9821C27.5926 72.0232 27.4135 72.018 27.324 72.0075C27.324 72.0075 27.2911 70.6427 27.2624 70.2055V70.2064Z" fill="#6F7271"/>
<path d="M29.3102 71.064C29.3102 70.5507 29.1023 70.4631 28.8099 70.4631C28.6925 70.4631 28.5692 70.4885 28.4748 70.5244L28.4797 71.9777C28.423 71.9978 28.2629 72.0189 28.1166 71.9978L28.0789 70.2011C28.1643 70.1495 28.3195 70.1083 28.423 70.1188C28.423 70.1188 28.4329 70.2011 28.4469 70.3036C28.612 70.1906 28.7918 70.0829 28.8855 70.0829C29.352 70.0829 29.6823 70.2879 29.6823 70.8582V71.9716C29.6165 72.0031 29.4753 72.0232 29.3102 71.997V71.0631V71.064Z" fill="#6F7271"/>
<path d="M30.0051 71.4748C30.0051 71.085 30.3214 70.8897 30.7838 70.8739C30.9062 70.8695 31.0426 70.8739 31.1839 70.8897V70.8178C31.1839 70.4841 30.9432 70.4429 30.7083 70.4429C30.5382 70.4429 30.3074 70.5147 30.1842 70.5918C30.1226 70.5507 30.0331 70.3658 30.0289 70.2686C30.2318 70.1503 30.5333 70.0837 30.7929 70.0837C31.2175 70.0837 31.5617 70.2432 31.5617 70.7924V71.9777C31.5289 71.9934 31.2742 72.0031 31.2274 71.9978C31.2233 71.982 31.2134 71.8647 31.2085 71.8384C31.0393 71.9566 30.8881 72.0495 30.7559 72.0495C30.2984 72.0495 30.0059 71.8445 30.0059 71.474L30.0051 71.4748ZM31.1888 71.6544V71.1823C30.8725 71.1463 30.6039 71.1674 30.4339 71.2444C30.4101 71.3005 30.406 71.3575 30.406 71.4135C30.406 71.6544 30.613 71.7105 30.8495 71.7105C30.958 71.7105 31.0565 71.7 31.1888 71.6544Z" fill="#6F7271"/>
<path d="M31.9404 69.1701C32.0389 69.0983 32.1901 69.0466 32.3601 69.0466L32.356 70.2686C32.5071 70.1705 32.6764 70.0838 32.7618 70.0838C33.2283 70.0838 33.5635 70.2887 33.5635 70.859V71.9724C33.4928 72.004 33.3557 72.0241 33.1906 71.9978L33.1865 71.064C33.1865 70.5507 32.9786 70.4631 32.6911 70.4631C32.5737 70.4631 32.4554 70.4885 32.3568 70.5244L32.3519 71.9821C32.2665 72.0232 32.1162 72.018 32.0217 72.0075C32.0217 72.0075 31.9839 69.9699 31.942 69.1692L31.9404 69.1701Z" fill="#6F7271"/>
<path d="M35.6877 70.8844H35.3534V71.9882C35.254 72.0293 35.1078 72.0346 34.9854 72.0136C34.9854 72.0136 34.9805 70.3606 34.9287 69.4215C35.056 69.3496 35.4708 69.3085 35.7304 69.3085C36.3958 69.3085 36.6972 69.5748 36.6972 70.089C36.6972 70.4893 36.5223 70.7661 36.0885 70.8537L36.8861 71.9724C36.8245 72.0241 36.4993 72.039 36.4138 72.0136L35.6877 70.8835V70.8844ZM35.3534 70.5305H35.7493C35.9333 70.5305 36.0606 70.5305 36.1502 70.4841C36.2208 70.407 36.2873 70.3045 36.2873 70.1039C36.2873 69.7701 36.0655 69.6825 35.7312 69.6825C35.6179 69.6825 35.415 69.6983 35.3542 69.7079V70.5296L35.3534 70.5305Z" fill="#6F7271"/>
<path d="M36.9485 71.0947C36.9485 70.499 37.3026 70.0829 37.8776 70.0829C38.368 70.0829 38.708 70.4675 38.6415 71.1306H37.3116C37.3543 71.4792 37.5712 71.665 37.9392 71.665C38.1141 71.665 38.3211 71.6185 38.4723 71.5309C38.5388 71.5975 38.6045 71.7823 38.6094 71.891C38.3786 72.0145 38.0911 72.0504 37.9063 72.0504C37.2558 72.0504 36.9485 71.6194 36.9485 71.0955V71.0947ZM37.3075 70.8327H38.2792C38.2694 70.5244 38.0435 70.386 37.7839 70.386C37.6468 70.386 37.5285 70.4175 37.4389 70.4578C37.3872 70.5349 37.3305 70.6532 37.3075 70.8327Z" fill="#6F7271"/>
<path d="M38.9446 72.7994C38.9446 72.682 38.9922 72.4709 39.0579 72.4043C39.2419 72.5278 39.4728 72.5997 39.7134 72.5997C39.8547 72.5997 40.0436 72.5795 40.1751 72.5024C40.2178 72.4201 40.2457 72.2712 40.2457 71.9944V71.8043C40.0806 71.9173 39.9015 72.0303 39.7931 72.0303C39.2272 72.0303 38.8781 71.6667 38.8781 71.0807C38.8781 70.4946 39.2608 70.0847 39.8646 70.0847C40.1521 70.0847 40.4018 70.1311 40.6096 70.2134L40.5997 72.0303C40.5956 72.7652 40.2367 72.9693 39.7085 72.9693C39.4539 72.9693 39.1097 72.908 38.9446 72.8003V72.7994ZM40.2465 71.5774V70.52C40.1291 70.464 39.9492 70.4324 39.798 70.4324C39.6329 70.4324 39.4678 70.4789 39.3923 70.5305C39.3307 70.6173 39.2649 70.7714 39.2649 70.9869C39.2649 71.4442 39.5105 71.6439 39.9163 71.6439C40.0297 71.6439 40.1521 71.6185 40.2465 71.5774Z" fill="#6F7271"/>
<path d="M40.9045 69.3497C40.9045 69.3497 41.0647 69.1745 41.2774 69.0466C41.4047 69.2262 41.546 69.4565 41.546 69.4565L41.178 69.7439L40.9045 69.3488V69.3497ZM41.0129 70.2064C41.1123 70.1451 41.2914 70.1135 41.4187 70.1241L41.4228 71.9821C41.3431 72.0232 41.164 72.018 41.0745 72.0075C41.0745 72.0075 41.0417 70.6427 41.0129 70.2055V70.2064Z" fill="#6F7271"/>
<path d="M41.716 71.0692C41.716 70.4946 42.0273 70.0837 42.5982 70.0837C43.1691 70.0837 43.4755 70.4946 43.4755 71.0692C43.4755 71.6439 43.1642 72.0504 42.5982 72.0504C42.0322 72.0504 41.716 71.6448 41.716 71.0692ZM42.9046 71.6649C43.0229 71.5624 43.0845 71.3364 43.0845 71.064C43.0845 70.6531 42.8767 70.4219 42.5801 70.4219C42.4807 70.4219 42.3764 70.4271 42.2869 70.4578C42.1735 70.5603 42.1078 70.7968 42.1078 71.064C42.1078 71.474 42.3148 71.7052 42.622 71.7052C42.7116 71.7052 42.8151 71.7 42.9046 71.6641V71.6649Z" fill="#6F7271"/>
<path d="M45.0009 71.064C45.0009 70.5507 44.7931 70.4631 44.5007 70.4631C44.3832 70.4631 44.26 70.4885 44.1655 70.5244L44.1704 71.9777C44.1138 71.9978 43.9536 72.0189 43.8074 71.9978L43.7696 70.2011C43.855 70.1495 44.0103 70.1083 44.1138 70.1188C44.1138 70.1188 44.1236 70.2011 44.1376 70.3036C44.3027 70.1906 44.4826 70.0829 44.5762 70.0829C45.0428 70.0829 45.373 70.2879 45.373 70.8582V71.9716C45.3073 72.0031 45.166 72.0232 45.0009 71.997V71.0631V71.064Z" fill="#6F7271"/>
<path d="M46.8006 71.9882C46.8006 71.9882 46.7956 70.386 46.7439 69.4163C46.8096 69.3655 47.0035 69.319 47.3665 69.319H47.654C48.5264 69.319 48.8845 69.9095 48.8845 70.669C48.8845 71.4285 48.5124 71.9882 47.668 71.9882H46.7998H46.8006ZM47.1636 71.6133H47.6688C47.8479 71.6133 48.1124 71.5879 48.2249 71.5108C48.3621 71.3619 48.4697 71.0535 48.4697 70.669C48.4697 70.1407 48.2339 69.694 47.6491 69.694H47.1677L47.1628 71.6133H47.1636Z" fill="#6F7271"/>
<path d="M49.1268 71.0947C49.1268 70.499 49.4809 70.0829 50.0559 70.0829C50.5462 70.0829 50.8863 70.4675 50.8198 71.1306H49.4899C49.5326 71.4792 49.7495 71.665 50.1175 71.665C50.2924 71.665 50.4994 71.6185 50.6506 71.5309C50.7171 71.5975 50.7828 71.7823 50.7877 71.891C50.5569 72.0145 50.2694 72.0504 50.0846 72.0504C49.434 72.0504 49.1268 71.6194 49.1268 71.0955V71.0947ZM49.4858 70.8327H50.4575C50.4477 70.5244 50.2218 70.386 49.9622 70.386C49.825 70.386 49.7067 70.4175 49.6172 70.4578C49.5655 70.5349 49.5088 70.6532 49.4858 70.8327Z" fill="#6F7271"/>
<path d="M50.8641 70.202C50.9118 70.1398 51.1755 70.1039 51.2609 70.1144L51.7841 71.516L52.341 70.1144C52.4256 70.1039 52.6335 70.1355 52.6803 70.1915L51.9542 71.983C51.8884 71.9987 51.6428 71.9987 51.5771 71.983L50.865 70.202H50.8641Z" fill="#6F7271"/>
<path d="M52.7378 71.0947C52.7378 70.499 53.0918 70.0829 53.6668 70.0829C54.1572 70.0829 54.4973 70.4675 54.4307 71.1306H53.1009C53.1436 71.4792 53.3604 71.665 53.7284 71.665C53.9034 71.665 54.1104 71.6185 54.2615 71.5309C54.3281 71.5975 54.3938 71.7823 54.3987 71.891C54.1679 72.0145 53.8804 72.0504 53.6956 72.0504C53.045 72.0504 52.7378 71.6194 52.7378 71.0955V71.0947ZM53.0968 70.8327H54.0685C54.0586 70.5244 53.8327 70.386 53.5732 70.386C53.436 70.386 53.3177 70.4175 53.2282 70.4578C53.1764 70.5349 53.1198 70.6532 53.0968 70.8327Z" fill="#6F7271"/>
<path d="M54.7445 69.1701C54.8439 69.0983 54.9942 69.0466 55.1643 69.0466L55.1544 71.9821C55.0698 72.0232 54.9186 72.018 54.8242 72.0075C54.8242 72.0075 54.7765 69.6046 54.7445 69.1692V69.1701Z" fill="#6F7271"/>
<path d="M55.4665 71.0692C55.4665 70.4946 55.7778 70.0837 56.3487 70.0837C56.9196 70.0837 57.226 70.4946 57.226 71.0692C57.226 71.6439 56.9146 72.0504 56.3487 72.0504C55.7827 72.0504 55.4665 71.6448 55.4665 71.0692ZM56.6551 71.6649C56.7734 71.5624 56.835 71.3364 56.835 71.064C56.835 70.6531 56.6272 70.4219 56.3298 70.4219C56.2312 70.4219 56.1269 70.4271 56.0374 70.4578C55.924 70.5603 55.8583 70.7968 55.8583 71.064C55.8583 71.474 56.0661 71.7052 56.3725 71.7052C56.462 71.7052 56.5655 71.7 56.6551 71.6641V71.6649Z" fill="#6F7271"/>
<path d="M57.5299 70.202C57.6005 70.1459 57.7566 70.1039 57.8503 70.1197C57.8503 70.1197 57.8642 70.2221 57.8741 70.2887C58.0293 70.1862 58.2043 70.0837 58.3078 70.0837C58.8885 70.0837 59.2327 70.4683 59.2327 71.0289C59.2327 71.6395 58.8507 72.0504 58.2421 72.0504C58.1386 72.0504 58.0014 72.0399 57.8979 72.0039C57.902 72.4192 57.9078 72.7845 57.9217 72.9176C57.8182 72.9798 57.704 73 57.5348 73L57.5307 70.202H57.5299ZM57.8839 70.5305C57.8839 70.7714 57.888 71.198 57.8938 71.6238C57.9924 71.6754 58.1723 71.6956 58.3176 71.6956C58.4778 71.6956 58.6479 71.6492 58.7185 71.6027C58.7891 71.4897 58.8458 71.3513 58.8458 71.1358C58.8458 70.6794 58.601 70.4639 58.1953 70.4639C58.0868 70.4639 57.9735 70.4946 57.8839 70.5305Z" fill="#6F7271"/>
<path d="M60.6636 71.0228C60.6636 70.5305 60.5264 70.4639 60.2627 70.4639C60.1453 70.4639 60.0221 70.4893 59.9276 70.5252L59.9325 71.9785C59.8759 71.9987 59.7157 72.0197 59.5695 71.9987C59.5695 71.9987 59.5456 70.5664 59.5317 70.202C59.6171 70.1503 59.7724 70.1091 59.8759 70.1197C59.8759 70.1197 59.8808 70.1967 59.8947 70.2887C60.064 70.1705 60.234 70.0837 60.3523 70.0837C60.602 70.0837 60.8008 70.1556 60.9182 70.3299C61.1072 70.1915 61.3191 70.0837 61.4513 70.0837C61.8711 70.0837 62.1397 70.2791 62.1397 70.8485L62.1356 71.9724C62.0698 72.0039 61.9327 72.0241 61.7626 71.9978V71.0176C61.7626 70.5296 61.6255 70.4631 61.3618 70.4631C61.2484 70.4631 61.1121 70.4981 61.0078 70.5445C61.0266 70.6321 61.0406 70.7294 61.0406 70.8476L61.0357 71.9715C60.97 72.0031 60.8328 72.0232 60.6677 71.9969L60.6636 71.0219V71.0228Z" fill="#6F7271"/>
<path d="M62.4009 71.0947C62.4009 70.499 62.7549 70.0829 63.3299 70.0829C63.8203 70.0829 64.1603 70.4675 64.0938 71.1306H62.7639C62.8058 71.4792 63.0235 71.665 63.3915 71.665C63.5665 71.665 63.7735 71.6185 63.9246 71.5309C63.9911 71.5975 64.0568 71.7823 64.0618 71.891C63.831 72.0145 63.5435 72.0504 63.3586 72.0504C62.7081 72.0504 62.4009 71.6194 62.4009 71.0955V71.0947ZM62.7598 70.8327H63.7316C63.7217 70.5244 63.4958 70.386 63.2363 70.386C63.0991 70.386 62.9808 70.4175 62.8913 70.4578C62.8395 70.5349 62.7828 70.6532 62.7598 70.8327Z" fill="#6F7271"/>
<path d="M65.6291 71.064C65.6291 70.5507 65.4212 70.4631 65.1288 70.4631C65.0114 70.4631 64.8882 70.4885 64.7937 70.5244L64.7986 71.9777C64.7419 71.9978 64.5809 72.0189 64.4355 71.9978L64.3978 70.2011C64.4832 70.1495 64.6384 70.1083 64.7419 70.1188C64.7419 70.1188 64.7518 70.2011 64.7658 70.3036C64.9309 70.1906 65.1099 70.0829 65.2044 70.0829C65.671 70.0829 66.0012 70.2879 66.0012 70.8582V71.9716C65.9355 72.0031 65.7942 72.0232 65.6291 71.997V71.0631V71.064Z" fill="#6F7271"/>
<path d="M66.1778 70.1503H66.5835L66.5745 69.5862C66.6542 69.5091 66.8332 69.453 66.9663 69.4732L66.9523 70.1503H67.6169C67.6407 70.2327 67.6358 70.4324 67.6078 70.4946H66.9474L66.9376 71.1464C66.9335 71.495 67.0369 71.6133 67.2489 71.6133H67.5881C67.616 71.6904 67.607 71.926 67.584 71.9882H67.2489C66.7396 71.9882 66.6213 71.6702 66.6073 71.2383L66.5934 70.4937H66.1786C66.1457 70.4219 66.1457 70.216 66.1786 70.1495L66.1778 70.1503Z" fill="#6F7271"/>
<path d="M68.7028 71.9418L69.7213 69.3085C69.8248 69.2875 70.0039 69.2875 70.1173 69.3085L71.1128 71.9313C71.0331 71.9873 70.7966 72.0285 70.6931 72.0136L70.4384 71.3102H69.3534L69.0938 72.0136C68.9854 72.0285 68.7825 71.9978 68.702 71.9418H68.7028ZM69.4955 70.93H70.3021L69.9053 69.821L69.4955 70.93Z" fill="#6F7271"/>
<path d="M72.4731 71.8446C72.303 71.9619 72.1338 72.0495 72.0295 72.0495C71.5531 72.0495 71.2837 71.8288 71.2837 71.2638L71.2795 70.1758C71.3453 70.1451 71.4915 70.1241 71.6566 70.1504L71.6525 71.1C71.6525 71.5774 71.7987 71.6702 72.11 71.6702C72.2234 71.6702 72.3408 71.6501 72.4402 71.6089L72.4123 70.1924C72.4829 70.1565 72.648 70.125 72.7992 70.146L72.8131 71.9523C72.7425 71.9935 72.5913 72.0189 72.4969 72.0084C72.4969 72.0084 72.487 71.9365 72.4731 71.8446Z" fill="#6F7271"/>
<path d="M73.0316 70.1503H73.4374L73.4284 69.5862C73.5081 69.5091 73.6871 69.453 73.8202 69.4732L73.8062 70.1503H74.4708C74.4946 70.2327 74.4896 70.4324 74.4617 70.4946H73.8013L73.7914 71.1464C73.7873 71.495 73.8908 71.6133 74.1028 71.6133H74.442C74.4699 71.6904 74.4609 71.926 74.4379 71.9882H74.1028C73.5935 71.9882 73.4752 71.6702 73.4612 71.2383L73.4473 70.4937H73.0325C72.9996 70.4219 72.9996 70.216 73.0325 70.1495L73.0316 70.1503Z" fill="#6F7271"/>
<path d="M74.8018 69.1701C74.9004 69.0983 75.0515 69.0466 75.2216 69.0466L75.2175 70.2686C75.3686 70.1705 75.5378 70.0838 75.6232 70.0838C76.0898 70.0838 76.4249 70.2887 76.4249 70.859V71.9724C76.3543 72.004 76.2171 72.0241 76.052 71.9978L76.0479 71.064C76.0479 70.5507 75.8401 70.4631 75.5526 70.4631C75.4351 70.4631 75.3168 70.4885 75.2183 70.5244L75.2133 71.9821C75.1279 72.0232 74.9776 72.018 74.8831 72.0075C74.8831 72.0075 74.8454 69.9699 74.8035 69.1692L74.8018 69.1701Z" fill="#6F7271"/>
<path d="M76.6804 71.0692C76.6804 70.4946 76.9917 70.0837 77.5626 70.0837C78.1334 70.0837 78.4398 70.4946 78.4398 71.0692C78.4398 71.6439 78.1285 72.0504 77.5626 72.0504C76.9966 72.0504 76.6804 71.6448 76.6804 71.0692ZM77.8689 71.6649C77.9872 71.5624 78.0488 71.3364 78.0488 71.064C78.0488 70.6531 77.841 70.4219 77.5445 70.4219C77.4451 70.4219 77.3408 70.4271 77.2512 70.4578C77.1379 70.5603 77.0722 70.7968 77.0722 71.064C77.0722 71.474 77.2792 71.7052 77.5864 71.7052C77.6759 71.7052 77.7794 71.7 77.8689 71.6641V71.6649Z" fill="#6F7271"/>
<path d="M78.7331 70.202C78.8185 70.1504 78.9738 70.1092 79.0773 70.1197C79.0773 70.1197 79.0822 70.1968 79.0962 70.2949C79.1528 70.2485 79.2136 70.2073 79.2752 70.1714C79.3746 70.1206 79.483 70.0943 79.6054 70.0943C79.6621 70.0943 79.6999 70.0943 79.8321 70.0996C79.8609 70.181 79.856 70.3816 79.828 70.4841C79.6868 70.4736 79.5545 70.4736 79.474 70.4736C79.3607 70.4736 79.2284 70.5043 79.129 70.5402L79.1339 71.9777C79.0773 71.9979 78.9163 72.0189 78.7709 71.9979C78.7709 71.9979 78.7471 70.5656 78.7331 70.2012V70.202Z" fill="#6F7271"/>
<path d="M79.8904 69.3497C79.8904 69.3497 80.0506 69.1745 80.2634 69.0466C80.3907 69.2262 80.532 69.4565 80.532 69.4565L80.164 69.7439L79.8904 69.3488V69.3497ZM79.9989 70.2064C80.0983 70.1451 80.2773 70.1135 80.4046 70.1241L80.4096 71.9821C80.3291 72.0232 80.15 72.018 80.0605 72.0075C80.0605 72.0075 80.0276 70.6427 79.9989 70.2055V70.2064Z" fill="#6F7271"/>
<path d="M80.6174 70.1503H81.0232L81.0142 69.5862C81.0939 69.5091 81.2729 69.453 81.406 69.4732L81.392 70.1503H82.0574C82.0804 70.2327 82.0763 70.4324 82.0475 70.4946H81.3871L81.3781 71.1464C81.3732 71.495 81.4767 71.6133 81.6886 71.6133H82.0278C82.0566 71.6904 82.0467 71.926 82.0237 71.9882H81.6886C81.1793 71.9882 81.061 71.6702 81.0471 71.2383L81.0331 70.4937H80.6183C80.5854 70.4219 80.5854 70.216 80.6183 70.1495L80.6174 70.1503Z" fill="#6F7271"/>
<path d="M81.9489 72.7074C82.3687 72.5734 82.6989 72.3325 82.8549 72.0189L82.1707 70.202C82.2134 70.146 82.468 70.1039 82.5535 70.1144L83.1055 71.6544C83.209 71.4442 83.5959 70.3615 83.6336 70.1144C83.7182 70.1039 83.9121 70.1354 83.954 70.1968C83.9302 70.4324 83.5104 71.573 83.4069 71.7885C83.1285 72.4245 82.7178 72.8151 82.3169 72.9947C82.1239 72.9588 82.0056 72.8152 81.9489 72.7074Z" fill="#6F7271"/>
<path d="M28.7533 65.3481L28.709 62.8655L29.2922 62.5983V65.3533C29.2922 65.7028 29.4606 65.8631 29.5534 65.9455C29.5099 65.9989 29.3522 66.2363 29.2536 66.3362C28.7418 66.2416 28.7533 65.5723 28.7533 65.3472V65.3481Z" fill="#6F7271"/>
<path d="M32.9466 65.6038V66.2136H30.9596C30.7419 66.1365 30.5727 65.8404 30.5727 65.4733C30.5727 64.8741 30.9432 64.543 31.5469 64.543C31.6832 64.543 31.8467 64.5667 32.0258 64.6017L32.0093 64.2583L32.5811 63.8965V65.603H32.9458L32.9466 65.6038ZM30.9809 63.441C30.9809 63.257 31.1173 63.1151 31.2808 63.1151C31.4442 63.1151 31.5806 63.257 31.5806 63.441C31.5806 63.6249 31.4442 63.7616 31.2808 63.7616C31.1173 63.7616 30.9809 63.6188 30.9809 63.441ZM32.0644 65.3726C32.0644 65.2132 31.9445 65.0765 31.7917 65.0765C31.6389 65.0765 31.5255 65.2132 31.5255 65.3726C31.5255 65.532 31.6455 65.6634 31.7917 65.6634C31.9379 65.6634 32.0644 65.5329 32.0644 65.3726ZM31.7432 63.441C31.7432 63.257 31.8787 63.1151 32.0422 63.1151C32.2057 63.1151 32.342 63.257 32.342 63.441C32.342 63.6249 32.2065 63.7616 32.0422 63.7616C31.8779 63.7616 31.7432 63.6188 31.7432 63.441Z" fill="#6F7271"/>
<path d="M34.4013 65.6039V66.2136H32.7675V65.6039H33.5848L33.5462 64.8873L34.1237 64.5255V65.6039H34.4013ZM33.639 63.9088C33.639 64.0867 33.5084 64.2347 33.34 64.2347C33.1717 64.2347 33.046 64.0867 33.046 63.9088C33.046 63.731 33.1774 63.5829 33.34 63.5829C33.5027 63.5829 33.639 63.731 33.639 63.9088Z" fill="#6F7271"/>
<path d="M36.0022 66.2136H34.168V65.6039H35.4634L35.4256 64.8873L36.0022 64.5255V66.2145V66.2136ZM35.0502 66.9126C35.0502 67.0905 34.9196 67.2385 34.7504 67.2385C34.5812 67.2385 34.4563 67.0905 34.4563 66.9126C34.4563 66.7348 34.587 66.5859 34.7504 66.5859C34.9139 66.5859 35.0502 66.7339 35.0502 66.9126ZM35.8183 66.9126C35.8183 67.0905 35.6819 67.2385 35.5184 67.2385C35.355 67.2385 35.2186 67.0905 35.2186 66.9126C35.2186 66.7348 35.3492 66.5859 35.5184 66.5859C35.6876 66.5859 35.8183 66.7339 35.8183 66.9126Z" fill="#6F7271"/>
<path d="M39.9188 65.6039H40.2884V66.2136H36.3251L36.6356 65.6039H39.3134C39.2863 65.539 39.2214 65.2298 38.9602 65.2298H36.8204L37.1202 64.6254H39.0037C39.2698 64.6254 39.5532 64.7559 39.7216 65.165C39.7923 65.3314 39.858 65.4733 39.9179 65.6039H39.9188Z" fill="#6F7271"/>
<path d="M42.9432 66.2136H42.2245C42.0175 66.3143 41.7078 66.3441 41.3973 66.3441C41.0712 66.3441 40.7443 66.2968 40.5537 66.2136H39.9878V65.6039H40.4067C40.4667 65.3192 40.6679 64.5019 41.4409 64.4835C41.8984 64.4835 42.328 65.0345 42.4488 65.5916H42.9441V66.2136H42.9432ZM41.5657 65.4488C41.5657 65.2946 41.4516 65.1711 41.3094 65.1711C41.1673 65.1711 41.054 65.2955 41.054 65.4488C41.054 65.6021 41.1682 65.7335 41.3094 65.7335C41.4507 65.7335 41.5657 65.603 41.5657 65.4488Z" fill="#6F7271"/>
<path d="M43.6907 62.5992V66.2136H42.3953V65.6039H43.1412L43.1141 62.8725L43.6915 62.5992H43.6907Z" fill="#6F7271"/>
<path d="M44.2033 65.3481L44.1589 62.8655L44.7421 62.5983V65.3533C44.7421 65.7028 44.9105 65.8631 45.0033 65.9455C44.9598 65.9989 44.8021 66.2363 44.7035 66.3362C44.1918 66.2416 44.2033 65.5723 44.2033 65.3472V65.3481Z" fill="#6F7271"/>
<path d="M48.3966 65.6038V66.2136H46.4096C46.1919 66.1365 46.0227 65.8404 46.0227 65.4733C46.0227 64.8741 46.3932 64.543 46.9969 64.543C47.1333 64.543 47.2967 64.5667 47.4758 64.6017L47.4594 64.2583L48.0311 63.8965V65.603H48.3958L48.3966 65.6038ZM46.4309 63.441C46.4309 63.257 46.5673 63.1151 46.7308 63.1151C46.8942 63.1151 47.0306 63.257 47.0306 63.441C47.0306 63.6249 46.8942 63.7616 46.7308 63.7616C46.5673 63.7616 46.4309 63.6188 46.4309 63.441ZM47.5144 65.3726C47.5144 65.2132 47.3945 65.0765 47.2417 65.0765C47.0889 65.0765 46.9755 65.2132 46.9755 65.3726C46.9755 65.532 47.0955 65.6634 47.2417 65.6634C47.3879 65.6634 47.5144 65.5329 47.5144 65.3726ZM47.1932 63.441C47.1932 63.257 47.3288 63.1151 47.4922 63.1151C47.6557 63.1151 47.792 63.257 47.792 63.441C47.792 63.6249 47.6565 63.7616 47.4922 63.7616C47.3279 63.7616 47.1932 63.6188 47.1932 63.441Z" fill="#6F7271"/>
<path d="M51.4243 65.6039V66.2136H47.8372V65.6039H50.1774C50.2596 65.5977 50.3302 65.4856 50.3302 65.4024C50.3302 65.3489 50.2974 65.3016 50.2267 65.3016H49.1539C49.0012 65.3016 48.5609 65.1886 48.5609 64.7156C48.5609 64.2767 48.8927 63.8624 49.2361 63.6723C49.4587 63.5479 49.8398 63.5304 49.8398 63.5304C49.8398 63.5304 50.8912 64.4256 50.8912 65.4024C50.8912 65.4672 50.874 65.5443 50.8526 65.6039H51.4243ZM49.3453 62.8786C49.3453 63.0564 49.2147 63.1992 49.0455 63.1992C48.8763 63.1992 48.7515 63.0573 48.7515 62.8786C48.7515 62.6999 48.8821 62.5527 49.0455 62.5527C49.209 62.5527 49.3453 62.6946 49.3453 62.8786ZM49.6452 64.4782C49.6452 64.324 49.531 64.1944 49.3839 64.1944C49.2369 64.1944 49.1277 64.3249 49.1277 64.4782C49.1277 64.6315 49.2418 64.7559 49.3839 64.7559C49.526 64.7559 49.6452 64.6315 49.6452 64.4782ZM50.1134 62.8786C50.1134 63.0564 49.977 63.1992 49.8135 63.1992C49.6501 63.1992 49.5145 63.0573 49.5145 62.8786C49.5145 62.6999 49.6501 62.5527 49.8135 62.5527C49.977 62.5527 50.1134 62.6946 50.1134 62.8786Z" fill="#6F7271"/>
<path d="M56.2387 66.2136H50.9644V65.6039H51.5796V62.8786L52.157 62.6V64.621H55.0969L55.7277 65.6047H56.2395V66.2144L56.2387 66.2136ZM55.0304 65.6039L54.7798 65.2246H52.1562V65.6039H55.0304Z" fill="#6F7271"/>
<path d="M57.5061 65.6039V66.2136H55.8723V65.6039H56.6896L56.651 64.8873L57.2285 64.5255V65.6039H57.5061ZM56.7438 63.9088C56.7438 64.0867 56.6132 64.2347 56.4448 64.2347C56.2765 64.2347 56.1508 64.0867 56.1508 63.9088C56.1508 63.731 56.2822 63.5829 56.4448 63.5829C56.6075 63.5829 56.7438 63.731 56.7438 63.9088Z" fill="#6F7271"/>
<path d="M59.8258 65.8702C59.8258 66.2074 59.3034 66.3441 58.7374 66.3441C58.4105 66.3441 58.0893 66.2968 57.8987 66.2136H57.2835V65.6039H57.7517C57.8117 65.3192 58.0179 64.5019 58.7916 64.4835C59.1834 64.4835 59.5531 64.8926 59.733 65.3665C59.7822 65.5145 59.8258 65.7221 59.8258 65.8693V65.8702ZM58.9165 65.4497C58.9165 65.2955 58.8023 65.172 58.661 65.172C58.5197 65.172 58.3998 65.2964 58.3998 65.4497C58.3998 65.603 58.5197 65.7344 58.661 65.7344C58.8023 65.7344 58.9165 65.6039 58.9165 65.4497Z" fill="#6F7271"/>
<path d="M63.0178 65.6039V66.2136H62.4896V66.2486C62.4789 66.7584 62.212 67.1316 61.798 67.1316H60.878L61.1827 66.5272H61.738C61.9508 66.5272 61.9614 66.2433 61.9614 66.2363C61.9614 66.1356 61.9122 64.8085 61.9072 64.8085L62.4896 64.536V65.603H63.0178V65.6039Z" fill="#6F7271"/>
<path d="M64.337 66.2136H62.5027V65.6039H63.7981L63.7603 64.8873L64.337 64.5255V66.2145V66.2136ZM63.3849 66.9126C63.3849 67.0905 63.2543 67.2385 63.0851 67.2385C62.9159 67.2385 62.7911 67.0905 62.7911 66.9126C62.7911 66.7348 62.9217 66.5859 63.0851 66.5859C63.2486 66.5859 63.3849 66.7339 63.3849 66.9126ZM64.153 66.9126C64.153 67.0905 64.0166 67.2385 63.8532 67.2385C63.6897 67.2385 63.5533 67.0905 63.5533 66.9126C63.5533 66.7348 63.6839 66.5859 63.8532 66.5859C64.0224 66.5859 64.153 66.7339 64.153 66.9126Z" fill="#6F7271"/>
<path d="M66.1079 64.4125C66.1079 64.4125 67.2727 65.6091 67.2727 66.1251C67.2727 66.1426 67.2678 66.1601 67.2678 66.1785C67.1643 66.7418 66.8324 67.1325 66.3749 67.1325H64.6655L64.9711 66.5219H66.5055C66.6476 66.5219 66.7067 66.3327 66.7067 66.2495C66.7067 66.2319 66.7067 66.2144 66.6961 66.2144H65.5477C65.3465 66.2144 64.8783 66.1496 64.8783 65.5688C64.9382 64.7567 66.1088 64.4142 66.1088 64.4142L66.1079 64.4125ZM66.0258 65.4374C66.0258 65.2832 65.9116 65.1597 65.7703 65.1597C65.629 65.1597 65.514 65.2841 65.514 65.4374C65.514 65.5907 65.6282 65.716 65.7703 65.716C65.9124 65.716 66.0258 65.5916 66.0258 65.4374Z" fill="#6F7271"/>
<path d="M72.5281 66.2136H67.2538V65.6039H67.869V62.8786L68.4465 62.6V64.621H71.3863L72.0172 65.6047H72.5289V66.2144L72.5281 66.2136ZM71.3198 65.6039L71.0693 65.2246H68.4457V65.6039H71.3198Z" fill="#6F7271"/>
<path d="M73.9032 66.2136H72.069V65.6039H73.3643L73.3266 64.8873L73.9032 64.5255V66.2145V66.2136ZM73.1352 63.9088C73.1352 64.0867 73.0054 64.2347 72.8362 64.2347C72.667 64.2347 72.5421 64.0867 72.5421 63.9088C72.5421 63.731 72.6727 63.5829 72.8362 63.5829C72.9996 63.5829 73.1352 63.731 73.1352 63.9088ZM73.9032 63.9088C73.9032 64.0867 73.7677 64.2347 73.6042 64.2347C73.4407 64.2347 73.3044 64.0867 73.3044 63.9088C73.3044 63.731 73.4407 63.5829 73.6042 63.5829C73.7677 63.5829 73.9032 63.731 73.9032 63.9088Z" fill="#6F7271"/>
<path d="M77.4656 65.6038V66.2136H75.4786C75.2609 66.1365 75.0917 65.8404 75.0917 65.4733C75.0917 64.8741 75.4622 64.543 76.0659 64.543C76.2023 64.543 76.3658 64.5667 76.5448 64.6017L76.5284 64.2583L77.1001 63.8965V65.603H77.4648L77.4656 65.6038ZM75.5 63.441C75.5 63.257 75.6363 63.1151 75.7998 63.1151C75.9633 63.1151 76.0996 63.257 76.0996 63.441C76.0996 63.6249 75.9633 63.7616 75.7998 63.7616C75.6363 63.7616 75.5 63.6188 75.5 63.441ZM76.5834 65.3726C76.5834 65.2132 76.4635 65.0765 76.3107 65.0765C76.1579 65.0765 76.0446 65.2132 76.0446 65.3726C76.0446 65.532 76.1645 65.6634 76.3107 65.6634C76.4569 65.6634 76.5834 65.5329 76.5834 65.3726ZM76.2623 63.441C76.2623 63.257 76.3978 63.1151 76.5621 63.1151C76.7263 63.1151 76.8611 63.257 76.8611 63.441C76.8611 63.6249 76.7255 63.7616 76.5621 63.7616C76.3986 63.7616 76.2623 63.6188 76.2623 63.441Z" fill="#6F7271"/>
<path d="M78.8062 65.6039H79.2415V66.2136H77.2381V65.6039H78.2887L78.2509 65.0827L78.8062 64.727V65.6039ZM78.7405 64.5369H77.6357V64.2294H77.9084C77.8919 64.1944 77.8698 64.0989 77.8698 64.0393C77.8698 63.7196 78.1367 63.5532 78.2953 63.5532C78.4308 63.5532 78.5507 63.5943 78.5893 63.625L78.4916 63.7617C78.4809 63.7617 78.4751 63.7555 78.4645 63.7555C78.3445 63.7555 78.2468 63.8624 78.2468 63.9929C78.2468 64.1234 78.3232 64.2356 78.4645 64.2356H78.7372L78.7421 64.5378L78.7405 64.5369Z" fill="#6F7271"/>
<path d="M80.9854 65.6039V66.2136H78.8785V65.6039H80.1689L80.1303 64.8873L80.7078 64.5255V65.6039H80.9854ZM79.7664 66.9135C79.7664 67.0913 79.6309 67.2394 79.4674 67.2394C79.304 67.2394 79.1676 67.0913 79.1676 66.9135C79.1676 66.7357 79.3031 66.5868 79.4674 66.5868C79.6317 66.5868 79.7664 66.7348 79.7664 66.9135ZM80.523 66.9135C80.523 67.0913 80.3874 67.2394 80.224 67.2394C80.0605 67.2394 79.9241 67.0913 79.9241 66.9135C79.9241 66.7357 80.0605 66.5868 80.224 66.5868C80.3874 66.5868 80.523 66.7348 80.523 66.9135Z" fill="#6F7271"/>
<path d="M83.954 65.7335C84.1118 66.1181 83.8177 66.2136 83.8177 66.2136H80.5846V65.6039H81.2754C81.1284 65.539 81.2376 65.1352 81.2754 65.0345C81.3732 64.7857 81.5752 64.5667 81.8364 64.211L81.7329 64.0805L82.1732 63.6364C82.1732 63.6364 83.931 65.6739 83.9532 65.7335H83.954ZM82.1683 65.0818C82.1683 64.9451 82.059 64.8268 81.9284 64.8268C81.7978 64.8268 81.6943 64.9451 81.6943 65.0818C81.6943 65.2184 81.8036 65.3428 81.9284 65.3428C82.0533 65.3428 82.1683 65.2246 82.1683 65.0818ZM82.9519 65.3717C82.9519 65.2298 82.8484 65.1177 82.7178 65.1177C82.5872 65.1177 82.4829 65.2298 82.4829 65.3717C82.4829 65.5136 82.5872 65.6328 82.7178 65.6328C82.8484 65.6328 82.9519 65.5145 82.9519 65.3717Z" fill="#6F7271"/>
</g>
<defs>
<clipPath id="clip0_167_4556">
<rect width="68" height="46" fill="white" transform="translate(16 27)"/>
</clipPath>
</defs>
</svg>
