<svg width="22" height="22" viewBox="0 0 22 22" fill="none" xmlns="http://www.w3.org/2000/svg">
<g id="elements">
<g id="Icon">
<path d="M12 5C11.4477 5 11 5.44772 11 6C11 6.55229 11.4477 7 12 7H12.009C12.5613 7 13.009 6.55229 13.009 6C13.009 5.44772 12.5613 5 12.009 5H12Z" fill="#1B8354"/>
<path fill-rule="evenodd" clip-rule="evenodd" d="M9.05642 0.25H8.94358C7.10583 0.249985 5.65019 0.249972 4.51098 0.403136C3.33856 0.560764 2.38961 0.892881 1.64124 1.64124C0.892881 2.38961 0.560764 3.33856 0.403136 4.51098C0.249972 5.65019 0.249985 7.10582 0.25 8.94357V9.05642C0.249985 10.8942 0.249972 12.3498 0.403136 13.489C0.560764 14.6614 0.892881 15.6104 1.64124 16.3588C2.3478 17.0653 3.23315 17.4008 4.31656 17.5688C4.48059 18.7009 4.81672 19.6212 5.54689 20.3513C6.29899 21.1034 7.25282 21.4374 8.43219 21.596C9.57835 21.7501 11.043 21.7501 12.8927 21.7501H13.0057C14.8554 21.7501 16.3201 21.7501 17.4663 21.596C18.6457 21.4374 19.5995 21.1034 20.3516 20.3513C21.1037 19.5992 21.4377 18.6454 21.5962 17.466C21.7503 16.3199 21.7503 14.8552 21.7503 13.0055V12.8925C21.7503 11.0428 21.7503 9.57811 21.5962 8.43195C21.4377 7.25257 21.1037 6.29874 20.3516 5.54664C19.6214 4.81641 18.701 4.48028 17.5687 4.31627C17.4008 3.23299 17.0652 2.34773 16.3588 1.64124C15.6104 0.892881 14.6614 0.560764 13.489 0.403136C12.3498 0.249972 10.8942 0.249985 9.05642 0.25ZM17.7096 5.86117C17.75 6.74294 17.75 7.76461 17.75 8.94354V9.05641C17.75 10.8942 17.75 12.3498 17.5969 13.489C17.4392 14.6614 17.1071 15.6104 16.3588 16.3588C15.6104 17.1071 14.6614 17.4392 13.489 17.5969C12.3498 17.75 10.8942 17.75 9.05646 17.75H8.94359C7.76479 17.75 6.74316 17.75 5.86146 17.7096C6.00897 18.4578 6.24725 18.9304 6.60755 19.2907C7.0345 19.7176 7.61902 19.9732 8.63206 20.1094C9.66668 20.2485 11.0304 20.2501 12.9492 20.2501C14.8681 20.2501 16.2318 20.2485 17.2664 20.1094C18.2794 19.9732 18.864 19.7176 19.2909 19.2907C19.7179 18.8637 19.9734 18.2792 20.1096 17.2662C20.2487 16.2315 20.2503 14.8678 20.2503 12.949C20.2503 11.0301 20.2487 9.66644 20.1096 8.63182C19.9734 7.61878 19.7179 7.03425 19.2909 6.6073C18.9306 6.24696 18.4579 6.00867 17.7096 5.86117ZM2.7019 2.7019C3.12511 2.27869 3.70476 2.02503 4.71085 1.88976C5.73851 1.75159 7.09318 1.75 9 1.75C10.9068 1.75 12.2615 1.75159 13.2892 1.88976C14.2952 2.02503 14.8749 2.27869 15.2981 2.7019C15.7213 3.12511 15.975 3.70476 16.1102 4.71085C16.2484 5.73851 16.25 7.09318 16.25 9C16.25 10.9068 16.2484 12.2615 16.1102 13.2892C15.975 14.2952 15.7213 14.8749 15.2981 15.2981C15.0601 15.5361 14.7726 15.7205 14.3876 15.8604C13.6449 14.1076 12.3246 12.5698 10.5863 11.4173C8.39172 9.96228 5.65611 9.20224 2.86641 9.25233C2.49361 9.2517 2.12112 9.26461 1.75003 9.29099L1.75 9C1.75 7.09318 1.75159 5.73851 1.88976 4.71085C2.02503 3.70476 2.27869 3.12511 2.7019 2.7019ZM9.75744 12.6675C11.1763 13.6082 12.2398 14.8171 12.8766 16.157C11.9045 16.2488 10.662 16.25 9 16.25C7.09318 16.25 5.73851 16.2484 4.71085 16.1102C3.70476 15.975 3.12511 15.7213 2.7019 15.2981C2.27869 14.8749 2.02503 14.2952 1.88976 13.2892C1.79953 12.618 1.76755 11.8074 1.75621 10.7947C2.12641 10.7657 2.49843 10.7515 2.87088 10.7523L2.88639 10.7522C5.39788 10.7058 7.83321 11.3917 9.75744 12.6675Z" fill="#1B8354"/>
</g>
</g>
</svg>
