<svg width="22" height="22" viewBox="0 0 22 22" fill="none" xmlns="http://www.w3.org/2000/svg">
<g id="elements">
<g id="Icon">
<path fill-rule="evenodd" clip-rule="evenodd" d="M5.75 1C5.75 0.585786 5.41421 0.25 5 0.25C4.58579 0.25 4.25 0.585786 4.25 1V1.63479C3.44524 1.86288 2.7665 2.2336 2.20154 2.84436C1.42363 3.68535 1.07785 4.74792 0.912249 6.07951C0.749981 7.38431 0.749989 9.05647 0.75 11.19V11.81C0.749989 13.9435 0.749981 15.6157 0.912249 16.9205C1.07785 18.2521 1.42363 19.3147 2.20154 20.1556C2.9498 20.9646 3.89855 21.3532 5.07764 21.5462C6.22895 21.7347 7.68299 21.7485 9.49943 21.7499C9.91364 21.7502 10.2497 21.4146 10.25 21.0004C10.2503 20.5862 9.91479 20.2502 9.50057 20.2499C7.6505 20.2485 6.3275 20.2308 5.31996 20.0659C4.34019 19.9055 3.74826 19.6188 3.30269 19.1371C2.82849 18.6244 2.54821 17.9209 2.40078 16.7354C2.25137 15.5339 2.25 13.9551 2.25 11.7568V11.2432C2.25 9.8508 2.25055 8.70689 2.28892 7.75H19.711C19.7422 8.52881 19.7486 9.43454 19.7497 10.5008C19.7502 10.915 20.0863 11.2504 20.5005 11.25C20.9147 11.2496 21.2502 10.9134 21.2497 10.4992C21.2477 8.57921 21.2309 7.05471 21.0567 5.84769C20.88 4.62381 20.5306 3.6359 19.7985 2.84436C19.2335 2.2336 18.5548 1.86288 17.75 1.63479V1C17.75 0.585786 17.4142 0.25 17 0.25C16.5858 0.25 16.25 0.585786 16.25 1V1.36589C15.1139 1.24997 13.716 1.24998 12.0108 1.25H9.98924C8.28402 1.24998 6.88606 1.24997 5.75 1.36589V1ZM19.5974 6.25C19.5894 6.18622 19.5809 6.12356 19.572 6.06197C19.4185 4.99786 19.1439 4.34577 18.6973 3.86292C18.438 3.58256 18.1287 3.36791 17.7214 3.20585C17.6319 3.51998 17.3428 3.75 17 3.75C16.5858 3.75 16.25 3.41421 16.25 3V2.87459C15.189 2.75156 13.8176 2.75 11.95 2.75H10.05C8.18237 2.75 6.81101 2.75156 5.75 2.87459V3C5.75 3.41421 5.41421 3.75 5 3.75C4.65717 3.75 4.36806 3.51998 4.2786 3.20584C3.87129 3.36791 3.56203 3.58256 3.30269 3.86292C2.83044 4.37347 2.55052 5.07336 2.40261 6.25H19.5974Z" fill="#1B8354"/>
<path fill-rule="evenodd" clip-rule="evenodd" d="M12.6672 21.508C12.8262 21.623 13.0872 21.754 13.4522 21.754L13.4512 21.753C13.7572 21.753 14.1372 21.66 14.5902 21.387L15.9182 20.5971C15.9552 20.5841 16.0362 20.584 16.0742 20.596L17.4022 21.3851C18.4002 21.9841 19.0392 21.7181 19.3312 21.5061C19.6242 21.2931 20.0772 20.766 19.8152 19.624L19.4982 18.2471C19.4952 18.2111 19.5152 18.136 19.5362 18.105L20.6442 16.983C21.1642 16.465 21.3612 15.849 21.1862 15.295C21.0112 14.741 20.4952 14.35 19.7662 14.223L18.3382 13.984C18.3082 13.973 18.2562 13.9361 18.2352 13.9101L17.4482 12.321C17.1152 11.642 16.5872 11.251 16.0002 11.25H15.9972C15.4112 11.25 14.8812 11.64 14.5432 12.32L13.7562 13.9101C13.7362 13.9361 13.6852 13.9731 13.6542 13.9851L12.2252 14.224C11.5032 14.35 10.9892 14.7401 10.8132 15.2931C10.6372 15.8471 10.8332 16.462 11.3482 16.98L12.4602 18.1061C12.4822 18.1371 12.5022 18.214 12.4992 18.245L12.1812 19.6261C11.9202 20.7681 12.3732 21.295 12.6672 21.508ZM12.4132 15.924C12.3462 15.856 12.3052 15.8 12.2802 15.759C12.3232 15.74 12.3872 15.719 12.4772 15.703L13.9142 15.463C14.3962 15.382 14.8832 15.02 15.0962 14.586L15.8882 12.987C15.9292 12.906 15.9672 12.848 15.9982 12.808C16.0282 12.847 16.0652 12.905 16.1042 12.984C16.1052 12.985 16.1052 12.986 16.1052 12.986L16.8962 14.584C17.1112 15.021 17.6012 15.383 18.0852 15.463L19.5162 15.7021C19.6102 15.7181 19.6762 15.74 19.7202 15.759C19.6942 15.8 19.6522 15.8571 19.5832 15.9261L18.4692 17.054C18.1022 17.423 17.9232 18.0431 18.0342 18.5601C18.0342 18.5641 18.0362 18.571 18.0362 18.571L18.3562 19.9601C18.3792 20.0621 18.3902 20.145 18.3942 20.209C18.3352 20.186 18.2622 20.151 18.1742 20.098L16.8202 19.294C16.3492 19.022 15.6612 19.021 15.1842 19.291C15.1823 19.2924 15.1793 19.2943 15.1767 19.2958L15.1712 19.299L13.8212 20.1011C13.7352 20.1531 13.6632 20.188 13.6052 20.211C13.6092 20.147 13.6202 20.064 13.6432 19.962L13.9632 18.5721C13.9632 18.5701 13.9637 18.5683 13.9642 18.5666L13.9647 18.5644C13.965 18.5634 13.9652 18.5622 13.9652 18.561C14.0762 18.043 13.8972 17.4241 13.5312 17.0561L12.4132 15.924Z" fill="#1B8354"/>
</g>
</g>
</svg>
