<svg width="20" height="22" viewBox="0 0 20 22" fill="none" xmlns="http://www.w3.org/2000/svg">
<g id="elements">
<path id="Icon" fill-rule="evenodd" clip-rule="evenodd" d="M8.78866 3.52159C8.43302 3.22028 7.8624 2.95072 6.99805 2.95072C6.58405 2.95072 6.24805 2.61472 6.24805 2.20072C6.24805 1.78672 6.58405 1.45072 6.99805 1.45072C8.03405 1.45072 8.95005 1.73971 9.64805 2.28471C9.66973 2.30146 9.69142 2.31921 9.7131 2.33695L9.71406 2.33773C10.2321 1.37373 11.227 0.423749 12.924 0.253749C13.337 0.212749 13.7041 0.512721 13.7451 0.925721C13.7861 1.33772 13.486 1.70572 13.073 1.74672C11.6616 1.88799 11.1036 2.77625 10.8854 3.39459C11.9202 3.73916 12.8785 4.69431 14.356 6.1687L14.377 6.1897L16.304 8.12075C18.202 10.0128 19.247 11.0557 19.247 12.5007C19.247 13.9457 18.202 14.9887 16.304 16.8817L14.357 18.8328C12.471 20.7138 11.431 21.7507 9.99805 21.7507H9.99702C8.56302 21.7507 7.52404 20.7148 5.63804 18.8328L3.69004 16.8807C1.79304 14.9897 0.748047 13.9467 0.748047 12.5007C0.748047 11.055 1.79264 10.0131 3.68999 8.1208L3.69102 8.11978L5.63804 6.1687L5.64313 6.16362C6.96534 4.84562 7.87108 3.94276 8.78866 3.52159ZM9.99702 4.75073C9.21502 4.75073 8.46602 5.46671 6.69702 7.23071L6.67602 7.25171L6.24335 7.68529L9.99685 11.4388L13.7505 7.68513L13.297 7.23071C11.528 5.46671 10.779 4.75073 9.99702 4.75073ZM8.93586 12.4998L5.18344 8.7474L4.75103 9.18071C3.01403 10.9127 2.24702 11.7107 2.24702 12.5007C2.24702 13.2907 3.014 14.0888 4.75 15.8198L5.18252 16.2532L8.93586 12.4998ZM9.99685 13.5608L6.2424 17.3152L6.69702 17.7708C8.46602 19.5348 9.21502 20.2507 9.99702 20.2507C10.779 20.2507 11.528 19.5348 13.297 17.7708L13.318 17.7498L13.7515 17.3154L9.99685 13.5608ZM15.243 15.8208L14.8113 16.2533L11.0578 12.4998L14.8104 8.74724L15.243 9.18071L15.244 9.18169C16.98 10.9127 17.747 11.7107 17.747 12.5007C17.747 13.2907 16.98 14.0888 15.243 15.8208Z" fill="#1B8354"/>
</g>
</svg>
