<svg width="22" height="20" viewBox="0 0 22 20" fill="none" xmlns="http://www.w3.org/2000/svg">
<g id="elements">
<g id="Icon">
<path d="M17.5 14.7341H15C14.586 14.7341 14.25 14.3981 14.25 13.9841C14.25 13.5701 14.586 13.2341 15 13.2341H17.5C17.914 13.2341 18.25 13.5701 18.25 13.9841C18.25 14.3981 17.914 14.7341 17.5 14.7341Z" fill="#1B8354"/>
<path d="M12 14.7341H9.5C9.086 14.7341 8.75 14.3981 8.75 13.9841C8.75 13.5701 9.086 13.2341 9.5 13.2341H12C12.414 13.2341 12.75 13.5701 12.75 13.9841C12.75 14.3981 12.414 14.7341 12 14.7341Z" fill="#1B8354"/>
<path d="M17.5 10.7341H15C14.586 10.7341 14.25 10.3981 14.25 9.98413C14.25 9.57013 14.586 9.23413 15 9.23413H17.5C17.914 9.23413 18.25 9.57013 18.25 9.98413C18.25 10.3981 17.914 10.7341 17.5 10.7341Z" fill="#1B8354"/>
<path d="M12 10.7341H9.5C9.086 10.7341 8.75 10.3981 8.75 9.98413C8.75 9.57013 9.086 9.23413 9.5 9.23413H12C12.414 9.23413 12.75 9.57013 12.75 9.98413C12.75 10.3981 12.414 10.7341 12 10.7341Z" fill="#1B8354"/>
<path d="M17.5 6.73413H9.5C9.086 6.73413 8.75 6.39813 8.75 5.98413C8.75 5.57013 9.086 5.23413 9.5 5.23413H17.5C17.914 5.23413 18.25 5.57013 18.25 5.98413C18.25 6.39813 17.914 6.73413 17.5 6.73413Z" fill="#1B8354"/>
<path fill-rule="evenodd" clip-rule="evenodd" d="M3.5 19.2341H15C17.934 19.2341 19.55 19.2341 20.65 18.1341C21.75 17.0351 21.75 15.4181 21.75 12.4841V7.48413C21.75 4.55013 21.75 2.93313 20.65 1.83413C19.551 0.734131 17.934 0.734131 15 0.734131H10C9.012 0.734131 8.51608 0.734178 8.03408 0.857178L8.0316 0.858084C8.02907 0.859042 8.02625 0.860107 8.02402 0.860107C6.74002 1.20911 5.72605 2.22318 5.37705 3.50718L5.37567 3.5113C5.37483 3.5135 5.37402 3.5156 5.37402 3.51812C5.28614 3.85904 5.26053 4.208 5.25307 4.73413H5C2.977 4.73413 1.86006 4.73419 1.06006 5.54419C0.250059 6.34419 0.25 7.46013 0.25 9.48413V15.9841C0.25 17.7761 1.708 19.2341 3.5 19.2341ZM3.5 17.7341C4.465 17.7341 5.25 16.9491 5.25 15.9841V6.23413H5C3.256 6.23413 2.47 6.24915 2.125 6.60015L2.11602 6.60913C1.76502 6.95413 1.75 7.74013 1.75 9.48413V15.9841C1.75 16.9491 2.535 17.7341 3.5 17.7341ZM6.74781 16.1044C6.72598 16.7029 6.54184 17.2607 6.23809 17.7341H15C17.6157 17.7341 18.9291 17.7341 19.59 17.0742C20.25 16.4142 20.25 15.1013 20.25 12.4846V7.48413C20.25 4.86845 20.25 3.55515 19.59 2.89419C18.93 2.23419 17.616 2.23413 15 2.23413H10C9.142 2.23413 8.70903 2.23413 8.41104 2.30913C7.64304 2.52013 7.036 3.12717 6.825 3.89517C6.75 4.19317 6.75 4.62613 6.75 5.48413V15.9841C6.75 16.0244 6.74927 16.0645 6.74781 16.1044Z" fill="#1B8354"/>
</g>
</g>
</svg>
