<svg width="22" height="22" viewBox="0 0 22 22" fill="none" xmlns="http://www.w3.org/2000/svg">
<g id="elements">
<g id="Icon">
<path fill-rule="evenodd" clip-rule="evenodd" d="M11 8.25C9.48122 8.25 8.25 9.48122 8.25 11C8.25 12.5188 9.48122 13.75 11 13.75C12.5188 13.75 13.75 12.5188 13.75 11C13.75 9.48122 12.5188 8.25 11 8.25ZM9.75 11C9.75 10.3096 10.3096 9.75 11 9.75C11.6904 9.75 12.25 10.3096 12.25 11C12.25 11.6904 11.6904 12.25 11 12.25C10.3096 12.25 9.75 11.6904 9.75 11Z" fill="#1B8354"/>
<path fill-rule="evenodd" clip-rule="evenodd" d="M2.75001 7.75264L1.49183 9.01082C1.16803 9.33454 0.873894 9.62862 0.6673 9.89939C0.440688 10.1964 0.25 10.5517 0.25 11C0.25 11.4483 0.440688 11.8036 0.6673 12.1006C0.873898 12.3714 1.16802 12.6654 1.49182 12.9892L2.75 14.2474L2.75 16.4028C2.74995 16.8686 2.74991 17.2905 2.79592 17.6327C2.84633 18.0077 2.96401 18.397 3.28349 18.7165C3.60297 19.036 3.99235 19.1537 4.36728 19.2041C4.70949 19.2501 5.13143 19.2501 5.59724 19.25H7.75265L9.01082 20.5082C9.33454 20.832 9.62862 21.1261 9.89939 21.3327C10.1964 21.5593 10.5517 21.75 11 21.75C11.4483 21.75 11.8036 21.5593 12.1006 21.3327C12.3714 21.1261 12.6654 20.832 12.9892 20.5082L14.2473 19.25H16.4028C16.8686 19.2501 17.2905 19.2501 17.6327 19.2041C18.0077 19.1537 18.397 19.036 18.7165 18.7165C19.036 18.397 19.1537 18.0077 19.2041 17.6327C19.2501 17.2905 19.2501 16.8686 19.25 16.4028V14.2473L20.5082 12.9892C20.832 12.6655 21.1261 12.3714 21.3327 12.1006C21.5593 11.8036 21.75 11.4483 21.75 11C21.75 10.5517 21.5593 10.1964 21.3327 9.89939C21.1261 9.62862 20.832 9.33457 20.5082 9.01084L19.25 7.75265V5.59726C19.2501 5.13147 19.2501 4.70949 19.2041 4.36728C19.1537 3.99235 19.036 3.60297 18.7165 3.28349C18.397 2.96401 18.0077 2.84633 17.6327 2.79592C17.2905 2.74991 16.8686 2.74995 16.4028 2.75H14.2474L12.9892 1.49182C12.6654 1.16802 12.3714 0.873898 12.1006 0.667299C11.8036 0.440687 11.4483 0.25 11 0.25C10.5517 0.25 10.1964 0.440689 9.89939 0.667299C9.62863 0.873886 9.33458 1.16799 9.01087 1.49177L7.75264 2.75001L5.59725 2.75C5.13144 2.74995 4.7095 2.74991 4.36728 2.79592C3.99235 2.84633 3.60297 2.96401 3.28349 3.28349C2.96401 3.60297 2.84633 3.99235 2.79592 4.36728C2.74991 4.7095 2.74995 5.13144 2.75 5.59725L2.75001 7.75264ZM10.8093 1.85983C10.6284 1.99785 10.4058 2.21818 10.0394 2.58459L9.87396 2.75001L12.126 2.75L11.9606 2.58459C11.5942 2.21818 11.3716 1.99785 11.1907 1.85983C11.1074 1.79621 11.0568 1.76944 11.0297 1.75811C11.0098 1.74984 11.0033 1.74995 11.0005 1.74999H10.9995C10.9967 1.74995 10.9902 1.74984 10.9703 1.75811C10.9432 1.76944 10.8926 1.79621 10.8093 1.85983ZM13.626 4.25001H8.37396L4.25001 8.37396V13.626L8.37398 17.75H13.626L17.75 13.626V8.37398L13.626 4.25001ZM6.25264 4.25001L4.25001 6.25264V5.64286C4.25001 5.11658 4.2516 4.79733 4.28255 4.56715C4.29683 4.46087 4.31409 4.40423 4.32599 4.3753C4.33511 4.35314 4.34108 4.34721 4.34415 4.34415C4.34721 4.34108 4.35314 4.33511 4.3753 4.32599C4.40423 4.31409 4.46087 4.29683 4.56715 4.28255C4.79732 4.2516 5.11658 4.25001 5.64286 4.25001H6.25264ZM2.58459 11.9606L2.75 12.126L2.75001 9.87396L2.5846 10.0394C2.21818 10.4058 1.99785 10.6284 1.85983 10.8093C1.79621 10.8926 1.76944 10.9432 1.75811 10.9703C1.74984 10.9902 1.74995 10.9967 1.74999 10.9995V11.0005C1.74995 11.0033 1.74984 11.0098 1.75811 11.0297C1.76944 11.0568 1.79621 11.1074 1.85983 11.1907C1.99785 11.3716 2.21818 11.5942 2.58459 11.9606ZM6.25265 17.75L4.25001 15.7474V16.3571C4.25001 16.8834 4.2516 17.2027 4.28255 17.4329C4.29683 17.5391 4.31409 17.5958 4.32599 17.6247C4.33511 17.6469 4.34076 17.6525 4.34383 17.6555C4.34689 17.6586 4.35315 17.6649 4.3753 17.674C4.40423 17.6859 4.46087 17.7032 4.56715 17.7175C4.79732 17.7484 5.11658 17.75 5.64286 17.75H6.25265ZM10.0394 19.4154L9.87398 19.25H12.126L11.9606 19.4154C11.5942 19.7818 11.3716 20.0022 11.1907 20.1402C11.1074 20.2038 11.0568 20.2306 11.0297 20.2419C11.0098 20.2502 11.0033 20.2501 11.0005 20.25H10.9995C10.9967 20.2501 10.9902 20.2502 10.9703 20.2419C10.9432 20.2306 10.8926 20.2038 10.8093 20.1402C10.6284 20.0022 10.4058 19.7818 10.0394 19.4154ZM17.75 15.7473L15.7474 17.75H16.3571C16.8834 17.75 17.2027 17.7484 17.4329 17.7175C17.5391 17.7032 17.5958 17.6859 17.6247 17.674C17.6469 17.6649 17.6525 17.6593 17.6555 17.6562C17.6586 17.6531 17.6649 17.6469 17.674 17.6247C17.6859 17.5958 17.7032 17.5391 17.7175 17.4329C17.7484 17.2027 17.75 16.8834 17.75 16.3571V15.7473ZM19.4154 10.0394L19.25 9.87398V12.126L19.4154 11.9606C19.7818 11.5942 20.0022 11.3716 20.1402 11.1907C20.2038 11.1074 20.2306 11.0568 20.2419 11.0297C20.2502 11.0098 20.2501 11.0033 20.25 11.0005V10.9995C20.2501 10.9967 20.2502 10.9902 20.2419 10.9703C20.2306 10.9432 20.2038 10.8926 20.1402 10.8093C20.0022 10.6284 19.7818 10.4058 19.4154 10.0394ZM15.7474 4.25001L17.75 6.25265V5.64286C17.75 5.11658 17.7484 4.79733 17.7175 4.56715C17.7032 4.46087 17.6859 4.40423 17.674 4.3753C17.6649 4.35315 17.6593 4.34752 17.6562 4.34447C17.6531 4.34139 17.6469 4.33511 17.6247 4.32599C17.5958 4.31409 17.5391 4.29683 17.4329 4.28255C17.2027 4.2516 16.8834 4.25001 16.3571 4.25001H15.7474Z" fill="#1B8354"/>
</g>
</g>
</svg>
