<svg width="22" height="21" viewBox="0 0 22 21" fill="none" xmlns="http://www.w3.org/2000/svg">
<g id="elements">
<path id="Icon" fill-rule="evenodd" clip-rule="evenodd" d="M10.9995 20.2495C10.5829 20.2495 10.1544 20.0339 9.00925 19.4554L8.90049 19.4004C8.10849 18.9984 6.76249 18.4474 4.84649 18.0994L4.78249 18.0874C2.61349 17.6934 1.52449 17.4954 0.893489 16.7594C0.250488 16.0084 0.250488 14.9864 0.250488 13.1314V6.32142C0.250488 4.32642 0.250488 3.12242 1.25149 2.31742C2.22449 1.52142 3.28549 1.70942 5.04349 2.02142L5.11249 2.03343C7.98941 2.54982 9.906 3.84161 10.8973 4.68512C11.5391 3.66034 12.6259 2.17753 14.1925 1.05053C15.1135 0.393556 15.8396 -0.124387 16.7895 0.347599C16.791 0.348599 16.7928 0.349344 16.7945 0.350089C16.7963 0.350834 16.798 0.351579 16.7995 0.352579C17.5176 0.722582 17.6923 1.36681 17.7349 2.23893C18.8116 1.79807 20.003 1.70554 20.7535 2.31947C21.7495 3.12047 21.7495 4.32447 21.7495 6.31947V13.1294C21.7495 14.9844 21.7495 16.0075 21.1055 16.7575C20.4755 17.4935 19.3865 17.6914 17.2175 18.0854L17.1525 18.0974C15.2375 18.4454 13.8915 18.9975 13.0995 19.3985L12.9935 19.4524L12.9882 19.4551C11.8583 20.0259 11.4265 20.244 11.0149 20.2493C11.0098 20.2495 11.0046 20.2495 10.9995 20.2495ZM10.2485 18.4001V6.11696C9.55654 5.45228 7.78838 4.03736 4.84949 3.50941L4.78149 3.4974C3.19149 3.2154 2.61949 3.13538 2.19649 3.48138C1.76749 3.82638 1.75049 4.55642 1.75049 6.32142V13.1314C1.75049 14.5794 1.75049 15.4544 2.03249 15.7834C2.31587 16.1147 3.39977 16.3116 5.03978 16.6095L5.05049 16.6115L5.11449 16.6235C6.77149 16.9245 8.31549 17.4224 9.57749 18.0624L9.68249 18.1155C9.87868 18.2148 10.0715 18.3123 10.2485 18.4001ZM12.8206 17.8695C14.0031 17.3223 15.3979 16.8944 16.8845 16.6235L16.9495 16.6115L16.957 16.6101C18.5988 16.3119 19.6829 16.1149 19.9665 15.7834C20.2495 15.4534 20.2495 14.5794 20.2495 13.1314V6.32142C20.2495 4.55642 20.2325 3.82739 19.8085 3.48539C19.5207 3.25003 18.5791 3.41064 17.7485 3.90416V11.9896C17.7485 12.7636 17.7485 13.1915 17.5095 13.5965C17.2645 14.0225 16.8055 14.2765 15.9775 14.7335C14.6039 15.5121 13.5584 16.7664 12.8206 17.8695ZM16.2495 3.4829C16.2493 3.49472 16.2493 3.50656 16.2495 3.5184V11.9885C16.2495 12.3525 16.2495 12.7276 16.2155 12.8366C16.1055 12.9496 15.6515 13.2006 15.2495 13.4226C15.2476 13.4232 15.2461 13.4242 15.2448 13.4251C15.244 13.4257 15.2433 13.4261 15.2425 13.4265C13.7335 14.2805 12.5735 15.6075 11.7485 16.7875V6.19359C12.1955 5.39459 13.2955 3.54357 15.0665 2.26957C15.7515 1.78057 15.9905 1.63354 16.1165 1.68754C16.2495 1.76954 16.2495 2.47057 16.2495 3.14857V3.4829Z" fill="#1B8354"/>
</g>
</svg>
