<svg width="110" height="34" viewBox="0 0 110 34" fill="none" xmlns="http://www.w3.org/2000/svg">
<g clip-path="url(#clip0_1150_14830)">
<path d="M90.7106 11.5119C91.4859 11.5119 92.1145 10.8775 92.1145 10.0951C92.1145 9.31256 91.4859 8.67822 90.7106 8.67822C89.9352 8.67822 89.3066 9.31256 89.3066 10.0951C89.3066 10.8775 89.9352 11.5119 90.7106 11.5119Z" fill="url(#paint0_linear_1150_14830)"/>
<path d="M90.6359 10.8119C90.4973 10.8117 90.3625 10.767 90.2508 10.6843C90.1391 10.6015 90.0564 10.485 90.0148 10.3517C89.9731 10.2183 89.9747 10.075 90.0191 9.9426C90.0636 9.81017 90.1487 9.69548 90.2621 9.61515L97.0657 4.79457V1.16446C97.0657 1.07804 97.0825 0.992458 97.1153 0.912612C97.1481 0.832766 97.1961 0.760216 97.2567 0.699105C97.3172 0.637993 97.3891 0.589517 97.4682 0.556444C97.5474 0.52337 97.6322 0.506348 97.7178 0.506348C97.8034 0.506348 97.8882 0.52337 97.9673 0.556444C98.0465 0.589517 98.1184 0.637993 98.1789 0.699105C98.2395 0.760216 98.2875 0.832766 98.3203 0.912612C98.353 0.992458 98.3699 1.07804 98.3699 1.16446V5.14668C98.3698 5.25242 98.3445 5.35658 98.296 5.45035C98.2476 5.54411 98.1775 5.62471 98.0916 5.68533L91.0097 10.6903C90.9007 10.7692 90.77 10.8117 90.6359 10.8119Z" fill="url(#paint1_linear_1150_14830)"/>
<path d="M92.7771 17.9714C92.6043 17.9708 92.4388 17.9013 92.3166 17.778C92.1944 17.6547 92.1255 17.4876 92.125 17.3133V13.2849C92.1249 13.1789 92.1502 13.0744 92.1986 12.9802C92.2471 12.8861 92.3173 12.8051 92.4033 12.7442L100.839 6.78764V2.87669C100.849 2.70829 100.922 2.54992 101.043 2.43407C101.165 2.31821 101.325 2.25366 101.492 2.25366C101.66 2.25366 101.82 2.31821 101.942 2.43407C102.063 2.54992 102.136 2.70829 102.146 2.87669V7.12969C102.146 7.23576 102.12 7.34028 102.072 7.4344C102.024 7.52853 101.953 7.60949 101.867 7.67044L93.4292 13.6308V17.3133C93.4287 17.4876 93.3598 17.6547 93.2376 17.778C93.1155 17.9013 92.9499 17.9708 92.7771 17.9714Z" fill="url(#paint2_linear_1150_14830)"/>
<path d="M91.5311 5.52969C91.3918 5.5306 91.2559 5.48648 91.1432 5.40378C91.0306 5.32108 90.9472 5.20416 90.9051 5.07014C90.8631 4.93611 90.8647 4.79203 90.9097 4.65899C90.9547 4.52596 91.0407 4.41096 91.1552 4.33083L93.5705 2.62477C93.6407 2.57394 93.7202 2.53767 93.8043 2.51808C93.8885 2.49848 93.9757 2.49594 94.0608 2.51061C94.146 2.52528 94.2274 2.55686 94.3003 2.60353C94.3733 2.6502 94.4364 2.71102 94.4858 2.78246C94.5353 2.85391 94.5703 2.93456 94.5886 3.01974C94.607 3.10492 94.6084 3.19293 94.5928 3.27867C94.5772 3.3644 94.5449 3.44616 94.4978 3.51921C94.4506 3.59225 94.3896 3.65511 94.3182 3.70416L91.9049 5.40394C91.796 5.48339 91.6655 5.52727 91.5311 5.52969Z" fill="url(#paint3_linear_1150_14830)"/>
<path d="M101.491 3.33366C102.267 3.33366 102.895 2.69932 102.895 1.91683C102.895 1.13434 102.267 0.5 101.491 0.5C100.716 0.5 100.087 1.13434 100.087 1.91683C100.087 2.69932 100.716 3.33366 101.491 3.33366Z" fill="url(#paint4_linear_1150_14830)"/>
<path d="M100.316 23.345C100.143 23.345 99.9771 23.2756 99.8548 23.1522C99.7325 23.0288 99.6638 22.8614 99.6638 22.6869V17.2501C99.6639 17.1443 99.6893 17.0402 99.7377 16.9464C99.7861 16.8526 99.8563 16.772 99.9421 16.7114L107.026 11.7064C107.168 11.6089 107.342 11.5718 107.511 11.6031C107.68 11.6344 107.83 11.7315 107.928 11.8735C108.026 12.0155 108.065 12.1909 108.036 12.3616C108.008 12.5324 107.913 12.6848 107.774 12.7858L100.976 17.5938V22.6848C100.977 22.7721 100.96 22.8588 100.927 22.9395C100.894 23.0203 100.845 23.0936 100.784 23.1551C100.722 23.2166 100.649 23.2651 100.569 23.2977C100.489 23.3303 100.403 23.3464 100.316 23.345Z" fill="url(#paint5_linear_1150_14830)"/>
<path d="M96.5505 21.6309C96.3778 21.6304 96.2122 21.5608 96.09 21.4375C95.9679 21.3142 95.899 21.1472 95.8984 20.9728V15.2677C95.8985 15.162 95.9239 15.0578 95.9723 14.9641C96.0208 14.8703 96.0909 14.7897 96.1767 14.7291L104.615 8.76625V5.08585C104.615 4.91131 104.683 4.74391 104.806 4.62049C104.928 4.49707 105.094 4.42773 105.267 4.42773C105.44 4.42773 105.606 4.49707 105.728 4.62049C105.85 4.74391 105.919 4.91131 105.919 5.08585V9.10998C105.919 9.21572 105.894 9.31989 105.845 9.41365C105.797 9.50741 105.727 9.58801 105.641 9.64863L97.2006 15.6115V20.9728C97.2006 21.147 97.1322 21.3141 97.0103 21.4374C96.8885 21.5608 96.7231 21.6304 96.5505 21.6309Z" fill="url(#paint6_linear_1150_14830)"/>
<path d="M104.1 19.8993C103.961 19.8991 103.826 19.8544 103.715 19.7717C103.603 19.6889 103.52 19.5724 103.479 19.4391C103.437 19.3057 103.439 19.1624 103.483 19.03C103.527 18.8976 103.613 18.7829 103.726 18.7026L106.133 16.9944C106.203 16.9436 106.283 16.9073 106.367 16.8877C106.451 16.8681 106.538 16.8656 106.623 16.8802C106.708 16.8949 106.79 16.9265 106.863 16.9732C106.936 17.0198 106.999 17.0806 107.048 17.1521C107.098 17.2235 107.133 17.3042 107.151 17.3894C107.169 17.4745 107.171 17.5626 107.155 17.6483C107.14 17.734 107.107 17.8158 107.06 17.8888C107.013 17.9619 106.952 18.0247 106.881 18.0738L104.472 19.782C104.362 19.858 104.233 19.8989 104.1 19.8993Z" fill="url(#paint7_linear_1150_14830)"/>
<path d="M96.5506 23.3517C97.326 23.3517 97.9546 22.7174 97.9546 21.9349C97.9546 21.1524 97.326 20.5181 96.5506 20.5181C95.7753 20.5181 95.1467 21.1524 95.1467 21.9349C95.1467 22.7174 95.7753 23.3517 96.5506 23.3517Z" fill="url(#paint8_linear_1150_14830)"/>
<path d="M107.333 13.7209C108.109 13.7209 108.737 13.0865 108.737 12.304C108.737 11.5215 108.109 10.8872 107.333 10.8872C106.558 10.8872 105.929 11.5215 105.929 12.304C105.929 13.0865 106.558 13.7209 107.333 13.7209Z" fill="url(#paint9_linear_1150_14830)"/>
<path d="M103.831 32.833C103.695 32.8327 103.563 32.7903 103.451 32.7115L88.3323 22.0224C88.1885 21.9192 88.0912 21.7627 88.0618 21.5872C88.0324 21.4117 88.0733 21.2316 88.1755 21.0865C88.2776 20.9414 88.4327 20.8433 88.6066 20.8136C88.7805 20.7839 88.959 20.8252 89.1028 20.9283L104.222 31.6174C104.338 31.6993 104.424 31.8163 104.47 31.9514C104.515 32.0865 104.517 32.2327 104.474 32.3687C104.431 32.5047 104.347 32.6235 104.233 32.7077C104.119 32.792 103.981 32.8373 103.84 32.8372L103.831 32.833Z" fill="url(#paint10_linear_1150_14830)"/>
<path d="M103.832 33.4994C104.62 33.4994 105.258 32.8547 105.258 32.0595C105.258 31.2643 104.62 30.6196 103.832 30.6196C103.044 30.6196 102.405 31.2643 102.405 32.0595C102.405 32.8547 103.044 33.4994 103.832 33.4994Z" fill="url(#paint11_linear_1150_14830)"/>
<path d="M94.2018 32.8335C94.3378 32.8332 94.4704 32.7907 94.5818 32.7119L109.701 22.0228C109.775 21.9735 109.839 21.9096 109.888 21.835C109.938 21.7604 109.972 21.6766 109.988 21.5885C110.005 21.5004 110.004 21.4098 109.985 21.3221C109.967 21.2344 109.931 21.1514 109.88 21.0779C109.829 21.0045 109.764 20.9421 109.688 20.8944C109.613 20.8468 109.529 20.8149 109.441 20.8006C109.354 20.7863 109.264 20.7899 109.178 20.8112C109.091 20.8325 109.01 20.871 108.939 20.9246L93.8196 31.6137C93.7039 31.6956 93.6171 31.8126 93.5717 31.9477C93.5264 32.0828 93.5249 32.229 93.5675 32.365C93.6101 32.501 93.6946 32.6197 93.8087 32.704C93.9227 32.7882 94.0604 32.8336 94.2018 32.8335Z" fill="url(#paint12_linear_1150_14830)"/>
<path d="M94.1997 33.4996C94.9877 33.4996 95.6265 32.855 95.6265 32.0598C95.6265 31.2645 94.9877 30.6199 94.1997 30.6199C93.4117 30.6199 92.7729 31.2645 92.7729 32.0598C92.7729 32.855 93.4117 33.4996 94.1997 33.4996Z" fill="url(#paint13_linear_1150_14830)"/>
<path d="M25.2151 12.9162C25.4333 12.8705 25.6458 12.8002 25.8485 12.7066C26.0658 12.6072 26.2702 12.4812 26.457 12.3315C26.6561 12.1718 26.8298 11.9824 26.9721 11.7698C27.1251 11.5377 27.2433 11.2842 27.3231 11.0173C27.4975 10.3874 27.4975 9.72117 27.3231 9.0912C27.2427 8.82423 27.1237 8.57069 26.97 8.33877C26.8285 8.12679 26.6554 7.93805 26.457 7.77916C26.2702 7.62882 26.0658 7.50213 25.8485 7.4019C25.6454 7.30953 25.433 7.23927 25.2151 7.19231C25.015 7.14927 24.8112 7.1268 24.6066 7.12524H22.3657V12.9938H24.6066C24.8115 12.9888 25.0154 12.9628 25.2151 12.9162ZM23.1508 12.2372V7.86929H24.3968C24.6977 7.86666 24.9972 7.90904 25.2857 7.99504C25.5456 8.07198 25.7858 8.20499 25.9897 8.38488C26.1946 8.57211 26.355 8.80349 26.4591 9.06186C26.6889 9.70386 26.6889 10.4068 26.4591 11.0488C26.3552 11.3054 26.1947 11.5348 25.9897 11.7195C25.7854 11.8988 25.5454 12.0318 25.2857 12.1093C24.9972 12.1953 24.6977 12.2377 24.3968 12.2351L23.1508 12.2372Z" fill="#575756"/>
<path d="M28.8911 8.15638C28.9582 8.15798 29.0249 8.14601 29.0873 8.12117C29.1497 8.09634 29.2066 8.05914 29.2545 8.01177C29.3019 7.96328 29.3391 7.90558 29.3637 7.84217C29.3883 7.77876 29.3999 7.71096 29.3978 7.64289C29.3982 7.57562 29.3854 7.50894 29.36 7.4467C29.3347 7.38447 29.2975 7.32791 29.2504 7.2803C29.205 7.22986 29.1495 7.18975 29.0875 7.16265C29.0256 7.13555 28.9586 7.12207 28.8911 7.1231C28.8225 7.12206 28.7545 7.13529 28.6913 7.16197C28.628 7.18866 28.5709 7.22823 28.5235 7.2782C28.4281 7.3752 28.3744 7.50621 28.374 7.64289C28.3721 7.71111 28.3841 7.779 28.4091 7.84241C28.4341 7.90583 28.4716 7.96345 28.5193 8.01177C28.5688 8.05939 28.6271 8.09668 28.6909 8.12149C28.7547 8.14631 28.8227 8.15817 28.8911 8.15638Z" fill="#575756"/>
<path d="M29.2541 9.07227H28.521V12.9811H29.2541V9.07227Z" fill="#575756"/>
<path d="M34.2842 9.0723H33.5469V9.59837C33.4194 9.41044 33.2454 9.25943 33.0422 9.16033C32.7983 9.0399 32.5308 8.97616 32.2593 8.9738C31.9727 8.97044 31.6879 9.01871 31.4182 9.11632C31.176 9.20519 30.9547 9.34362 30.7681 9.52292C30.585 9.70688 30.4434 9.92848 30.3528 10.1727C30.2512 10.4466 30.2012 10.7374 30.2053 11.0299C30.2027 11.3027 30.2536 11.5734 30.3548 11.8263C30.4492 12.0624 30.5906 12.2764 30.7702 12.4551C30.9565 12.6378 31.1777 12.7804 31.4202 12.8743C31.6856 12.9755 31.9673 13.026 32.251 13.0231C32.5182 13.0292 32.7835 12.9756 33.0277 12.8659C33.233 12.7716 33.412 12.6276 33.549 12.4467V12.7758C33.5488 12.9662 33.5272 13.1561 33.4846 13.3417C33.4478 13.5114 33.3771 13.6719 33.2769 13.8132C33.1674 13.9537 33.0246 14.0641 32.8616 14.1339C32.4011 14.3053 31.8928 14.2903 31.4431 14.092C31.2075 13.9727 30.9962 13.8099 30.8201 13.612L30.7785 13.568L30.251 14.1758L30.2884 14.2115C30.5387 14.4545 30.8355 14.6435 31.1606 14.7669C31.4859 14.8799 31.8281 14.9352 32.1721 14.9304C32.4575 14.9501 32.744 14.9112 33.0143 14.8161C33.2845 14.721 33.5328 14.5716 33.7442 14.377C33.9354 14.1557 34.0815 13.8985 34.1742 13.6202C34.2668 13.3418 34.3042 13.0477 34.2842 12.7548V9.0723ZM33.4534 11.5161C33.3999 11.6746 33.3148 11.8203 33.2034 11.9443C33.092 12.0683 32.9565 12.1679 32.8055 12.2371C32.6335 12.3135 32.4472 12.3514 32.2593 12.3482C32.0887 12.3493 31.9198 12.3151 31.7629 12.2476C31.6135 12.1787 31.4788 12.0812 31.3663 11.9605C31.1245 11.7124 30.9901 11.3778 30.9924 11.0299C30.9908 10.8456 31.0218 10.6625 31.0838 10.4891C31.1436 10.3342 31.2316 10.192 31.3434 10.07C31.4555 9.94633 31.5921 9.8478 31.7442 9.78072C31.909 9.70734 32.0875 9.67087 32.2676 9.67383C32.4483 9.67194 32.6275 9.70613 32.7951 9.77443C32.951 9.83668 33.0924 9.93089 33.2105 10.0511C33.3244 10.1719 33.4133 10.3144 33.4721 10.4703C33.5343 10.645 33.5653 10.8295 33.5635 11.0152C33.558 11.1861 33.5236 11.3548 33.4617 11.514L33.4534 11.5161Z" fill="#575756"/>
<path d="M35.8172 8.15639C35.9179 8.1566 36.0164 8.12668 36.1002 8.0704C36.184 8.01412 36.2494 7.93402 36.2881 7.84023C36.3267 7.74644 36.337 7.64318 36.3175 7.5435C36.298 7.44383 36.2497 7.35223 36.1786 7.2803C36.1328 7.2298 36.0769 7.18969 36.0146 7.16259C35.9523 7.13549 35.8851 7.12204 35.8172 7.12311C35.749 7.12209 35.6813 7.13535 35.6184 7.16204C35.5555 7.18874 35.4987 7.22829 35.4517 7.2782C35.4041 7.32596 35.3664 7.3828 35.3407 7.4454C35.315 7.50801 35.3019 7.57514 35.3022 7.64289C35.3004 7.71111 35.3123 7.779 35.3373 7.84241C35.3623 7.90583 35.3998 7.96345 35.4476 8.01177C35.4967 8.05933 35.5546 8.09659 35.6181 8.12141C35.6815 8.14624 35.7492 8.15812 35.8172 8.15639Z" fill="#575756"/>
<path d="M36.1823 9.07227H35.4492V12.9811H36.1823V9.07227Z" fill="#575756"/>
<path d="M39.1832 13.044C39.3095 13.0232 39.4329 12.9874 39.5508 12.9372L39.584 12.9225L39.5591 12.2183L39.4822 12.2581C39.4002 12.301 39.3129 12.3328 39.2226 12.3524C39.1334 12.3729 39.0421 12.3835 38.9506 12.3838C38.8491 12.3899 38.7479 12.3682 38.6577 12.321C38.5929 12.2833 38.5414 12.2261 38.5103 12.1575C38.4752 12.0767 38.4555 11.9899 38.4521 11.9018V9.72204H39.5611V9.07231H38.4521V7.99292H37.717V9.07231H36.8945V9.72204H37.717V11.753C37.7157 11.9346 37.7282 12.1161 37.7543 12.2958C37.7746 12.4462 37.8294 12.5897 37.9142 12.715C37.9998 12.8349 38.1161 12.9291 38.2507 12.9875C38.4291 13.0548 38.6189 13.0862 38.8093 13.0797C38.9348 13.0791 39.0599 13.0672 39.1832 13.044Z" fill="#575756"/>
<path d="M42.6016 10.5101C42.369 10.5101 42.1136 10.5206 41.8374 10.5415C41.5695 10.5622 41.3055 10.6186 41.0523 10.7092C40.813 10.7938 40.5987 10.9379 40.4293 11.1284C40.2495 11.3439 40.1582 11.6205 40.1738 11.9018C40.1699 12.0803 40.2106 12.2569 40.2922 12.4153C40.3694 12.5607 40.4771 12.6873 40.6079 12.7862C40.7472 12.8897 40.9042 12.9664 41.071 13.0126C41.2514 13.0639 41.4381 13.0893 41.6255 13.0881C41.8962 13.0963 42.1638 13.028 42.3981 12.891C42.5641 12.7934 42.7105 12.6655 42.8301 12.5138C42.8301 12.5557 42.8301 12.5997 42.8301 12.6479C42.8312 12.7488 42.8431 12.8493 42.8654 12.9476V12.9875H43.5756L43.5653 12.9246C43.5514 12.8268 43.539 12.7199 43.5279 12.6039C43.5157 12.4946 43.5094 12.3848 43.5092 12.2748V10.6317C43.5425 10.1838 43.4067 9.73983 43.1291 9.38878C42.9612 9.23606 42.7639 9.11999 42.5495 9.04786C42.3351 8.97573 42.1082 8.94908 41.8831 8.9696C41.5998 8.96892 41.3186 9.01858 41.0523 9.11632C40.7849 9.21147 40.5421 9.36621 40.3421 9.56903L40.3047 9.60676L40.7699 10.1014L40.8114 10.0658C40.9639 9.92986 41.1429 9.82776 41.3369 9.76605C41.5233 9.69783 41.7201 9.66307 41.9184 9.66335C42.1544 9.65079 42.3869 9.72528 42.5726 9.87294C42.6488 9.94683 42.7079 10.0368 42.7456 10.1365C42.7833 10.2361 42.7986 10.343 42.7906 10.4493V10.508L42.6016 10.5101ZM42.7927 11.3485C42.7875 11.4914 42.7609 11.6327 42.7138 11.7676C42.6674 11.8941 42.5968 12.0102 42.5061 12.1093C42.4152 12.2091 42.3049 12.289 42.1821 12.344C42.038 12.4068 41.8822 12.4376 41.7252 12.4341C41.529 12.441 41.3348 12.3924 41.1645 12.2937C41.0919 12.2434 41.0342 12.1741 40.9977 12.0932C40.9611 12.0124 40.947 11.923 40.9568 11.8347C40.9511 11.7257 40.979 11.6177 41.0366 11.5253C41.0943 11.433 41.1788 11.361 41.2787 11.3191C41.5746 11.196 41.8934 11.1388 42.2133 11.1514H42.7881L42.7927 11.3485Z" fill="#575756"/>
<path d="M45.4116 6.73535H44.6743V12.9811H45.4116V6.73535Z" fill="#575756"/>
<path d="M3.19472 19.0635H4.50518V20.7402C4.29739 20.8423 4.07855 20.9197 3.85306 20.9708C3.30768 21.1108 2.73284 21.0786 2.20616 20.8785C1.93283 20.7686 1.68526 20.6022 1.47928 20.3902C1.27461 20.1771 1.11431 19.9248 1.00784 19.6482C0.892291 19.3513 0.834473 19.0346 0.837544 18.7156C0.83358 18.3948 0.889959 18.0762 1.00369 17.7766C1.10909 17.5031 1.26833 17.254 1.47179 17.0443C1.67525 16.8347 1.91871 16.6688 2.18747 16.5568C2.46952 16.4379 2.77276 16.3786 3.07842 16.3828C3.36354 16.3832 3.6458 16.4402 3.90914 16.5505C4.16915 16.6548 4.40265 16.8167 4.59241 17.0242L4.63187 17.0661L5.21337 16.4499L5.17599 16.4122C4.91066 16.1399 4.58551 15.9346 4.22689 15.8127C3.8701 15.6959 3.49713 15.6372 3.12203 15.6388C2.70463 15.6355 2.29035 15.7115 1.90087 15.863C1.53426 16.0076 1.19812 16.2209 0.910232 16.4918C0.623146 16.7642 0.395404 17.094 0.241501 17.4601C0.0778895 17.8586 -0.00406092 18.2864 0.000591807 18.7177C-0.00566892 19.1481 0.072683 19.5755 0.231117 19.9752C0.377297 20.3411 0.596432 20.6729 0.874926 20.9498C1.15622 21.2231 1.48879 21.4368 1.8531 21.5786C2.2507 21.7321 2.67352 21.8082 3.09918 21.8028C3.47422 21.8029 3.84796 21.7586 4.21277 21.6708C4.57589 21.5785 4.92512 21.4375 5.25117 21.2516L5.27817 21.2369V18.3152H3.19472V19.0635Z" fill="#575756"/>
<path d="M9.89244 18.2103C9.70486 18.0282 9.48316 17.8857 9.24032 17.7911C8.70535 17.5849 8.11384 17.5849 7.57888 17.7911C7.33625 17.8857 7.11533 18.0293 6.92963 18.2132C6.74393 18.397 6.59737 18.6171 6.49894 18.8601C6.28584 19.3983 6.28584 19.9986 6.49894 20.5368C6.59784 20.779 6.74324 20.9991 6.92676 21.1844C7.11399 21.367 7.33578 21.5095 7.57888 21.6036C8.11437 21.8069 8.70483 21.8069 9.24032 21.6036C9.48326 21.509 9.70442 21.3651 9.89016 21.1809C10.0759 20.9967 10.2223 20.7761 10.3203 20.5326C10.5334 19.9944 10.5334 19.3941 10.3203 18.8559C10.2212 18.6138 10.075 18.3943 9.89036 18.2103H9.89244ZM9.60376 20.2266C9.54653 20.3823 9.45896 20.5248 9.34624 20.6458C9.23203 20.7728 9.09264 20.8742 8.93711 20.9434C8.76894 21.0147 8.58783 21.0497 8.40544 21.0461C8.22442 21.0495 8.0447 21.0145 7.87794 20.9434C7.72803 20.8755 7.59368 20.777 7.48334 20.6541C7.37018 20.5331 7.28195 20.3906 7.22374 20.235C7.16333 20.0634 7.13311 19.8826 7.13444 19.7005C7.13166 19.5151 7.16118 19.3307 7.22167 19.1556C7.28131 19.0001 7.37016 18.8578 7.48334 18.7364C7.59696 18.613 7.73397 18.514 7.88624 18.4451C8.05285 18.3732 8.23258 18.3375 8.41375 18.3403C8.59628 18.3373 8.7774 18.373 8.94541 18.4451C9.09917 18.5135 9.23764 18.6126 9.35247 18.7364C9.46538 18.8572 9.55296 18.9998 9.60999 19.1556C9.67226 19.3289 9.70321 19.512 9.70137 19.6963C9.70056 19.8775 9.6675 20.0572 9.60376 20.2266Z" fill="#575756"/>
<path d="M12.4385 21.6435H13.2069L14.7375 17.7346H13.9442L12.8518 20.6333L11.7199 17.7682L11.7054 17.7346H10.8601L12.426 21.6099L12.4385 21.6435Z" fill="#575756"/>
<path d="M18.843 20.9309L18.8762 20.889L18.3217 20.4531L18.2885 20.495C18.1545 20.6671 17.987 20.8098 17.7963 20.9142C17.5874 21.0132 17.3582 21.0606 17.1276 21.0525C16.9726 21.0538 16.8191 21.0223 16.6769 20.9603C16.5415 20.8997 16.4183 20.8145 16.3135 20.7088C16.2089 20.5997 16.1245 20.4727 16.0642 20.3336C16.0066 20.2109 15.9708 20.079 15.9583 19.9438H18.9946V19.6839C18.9995 19.3914 18.9552 19.1001 18.8638 18.8225C18.7859 18.5841 18.6592 18.3649 18.492 18.179C18.3277 18.0025 18.1271 17.8645 17.9043 17.7745C17.6677 17.6798 17.4153 17.6321 17.1608 17.6341C16.889 17.6322 16.6194 17.6842 16.3675 17.7871C16.1309 17.8848 15.9166 18.0304 15.738 18.215C15.5594 18.3996 15.4202 18.6192 15.3291 18.8602C15.2278 19.1277 15.1778 19.4122 15.1816 19.6986C15.1803 19.9694 15.2267 20.2384 15.3187 20.4929C15.4026 20.7356 15.5354 20.9581 15.7088 21.1464C15.8821 21.3347 16.0923 21.4847 16.3259 21.587C16.5834 21.6992 16.8616 21.7549 17.1421 21.7504C17.4691 21.7562 17.794 21.6956 18.0974 21.5723C18.396 21.4261 18.6527 21.2053 18.843 20.9309ZM16.3135 18.6066C16.54 18.4129 16.831 18.3133 17.1276 18.3278C17.2704 18.3186 17.4137 18.3383 17.5489 18.3858C17.6841 18.4333 17.8084 18.5077 17.9147 18.6045C18.092 18.7898 18.1955 19.0345 18.2054 19.292H15.9625C15.9986 19.0293 16.1233 18.7873 16.3155 18.6066H16.3135Z" fill="#575756"/>
<path d="M21.9855 18.4263L22.0499 18.4452L22.1018 17.6948L22.0603 17.6864C21.9705 17.6535 21.8755 17.6371 21.7799 17.6382C21.6279 17.6377 21.4767 17.6603 21.3314 17.7053C21.2 17.7445 21.0744 17.8009 20.9575 17.873C20.8512 17.9368 20.7541 18.0151 20.6689 18.1056C20.6306 18.1464 20.5952 18.1898 20.5629 18.2356V17.7326H19.8464V17.787C19.8464 17.9128 19.8464 18.0511 19.861 18.2062C19.8755 18.3613 19.8776 18.5164 19.8776 18.6904V21.6435H20.6149V19.7404C20.5954 19.3874 20.6823 19.0367 20.8641 18.7344C20.9568 18.6121 21.0788 18.5155 21.2187 18.4539C21.3586 18.3923 21.5117 18.3677 21.6636 18.3823C21.7718 18.3806 21.8797 18.3954 21.9835 18.4263H21.9855Z" fill="#575756"/>
<path d="M25.4601 18.5773C25.6017 18.7926 25.6702 19.0486 25.6553 19.3067V21.6415H26.3925V19.2434C26.3944 19.0245 26.3658 18.8065 26.3074 18.5957C26.254 18.4076 26.1612 18.2332 26.0353 18.0843C25.9067 17.9379 25.746 17.8238 25.566 17.7511C25.3541 17.6686 25.1284 17.6287 24.9014 17.6337C24.7494 17.6332 24.5981 17.6558 24.4528 17.7008C24.3215 17.74 24.1958 17.7964 24.079 17.8685C23.9724 17.9336 23.8752 18.0133 23.7903 18.1053C23.752 18.1461 23.7167 18.1895 23.6844 18.2352V17.7322H22.9824V17.7867C22.9824 17.9125 22.9824 18.0508 22.997 18.2059C23.0115 18.361 23.0136 18.5161 23.0136 18.6901V21.6432H23.7508V19.7401C23.7486 19.5444 23.7716 19.3492 23.8194 19.1595C23.8598 18.9994 23.9303 18.8485 24.0271 18.7152C24.1163 18.5932 24.234 18.4953 24.3697 18.4302C24.528 18.3575 24.7006 18.3224 24.8744 18.3275C24.9845 18.3205 25.0947 18.3394 25.1964 18.3828C25.298 18.4261 25.3883 18.4927 25.4601 18.5773Z" fill="#575756"/>
<path d="M32.9279 18.0827C32.8036 17.9342 32.6444 17.8196 32.4648 17.7494C32.2407 17.6673 32.0033 17.6282 31.7649 17.6341C31.5051 17.6266 31.2491 17.6997 31.0318 17.8437C30.8548 17.9724 30.7022 18.1321 30.5811 18.3153C30.5562 18.2734 30.5292 18.2231 30.4981 18.1728C30.439 18.0766 30.363 17.9921 30.2738 17.9234C30.1661 17.8386 30.0454 17.7721 29.9166 17.7264C29.5987 17.6221 29.2571 17.617 28.9363 17.7117C28.805 17.7509 28.6793 17.8073 28.5625 17.8794C28.4558 17.9411 28.358 18.0173 28.2717 18.1057C28.2335 18.1465 28.1981 18.1899 28.1658 18.2357V17.7326H27.4639V17.7871C27.4639 17.9129 27.4639 18.0512 27.4784 18.2063C27.4929 18.3614 27.495 18.5165 27.495 18.6905V21.6436H28.2323V19.7405C28.2304 19.545 28.2527 19.3499 28.2987 19.16C28.3401 19.0001 28.4105 18.8495 28.5064 18.7156C28.5957 18.5936 28.7134 18.4957 28.8491 18.4306C29.0074 18.358 29.18 18.3228 29.3538 18.3279C29.4516 18.3186 29.5502 18.3358 29.6393 18.3778C29.7284 18.4199 29.8047 18.4851 29.8605 18.5668C29.9881 18.837 30.0432 19.1361 30.0204 19.4345V21.6436H30.7431V19.3947C30.7415 19.246 30.7669 19.0983 30.8179 18.9588C30.8608 18.8342 30.9279 18.7195 31.0152 18.6213C31.0976 18.5329 31.1964 18.4617 31.306 18.4117C31.4178 18.3594 31.5399 18.3329 31.6632 18.3342C31.8103 18.3285 31.9567 18.3572 32.091 18.418C32.1939 18.4652 32.2837 18.5372 32.3527 18.6276C32.417 18.7226 32.4622 18.8294 32.4856 18.942C32.5108 19.0647 32.5233 19.1897 32.523 19.3151V21.6415H33.2623V19.2815C33.2645 19.0543 33.2394 18.8277 33.1875 18.6066C33.1397 18.4151 33.0511 18.2363 32.9279 18.0827Z" fill="#575756"/>
<path d="M37.4408 18.179C37.2755 18.0027 37.0742 17.8647 36.8509 17.7745C36.6151 17.68 36.3633 17.6323 36.1095 17.6341C35.8377 17.6322 35.5682 17.6842 35.3162 17.7871C35.0796 17.8848 34.8654 18.0304 34.6867 18.215C34.5081 18.3996 34.369 18.6192 34.2778 18.8602C34.1765 19.1277 34.1265 19.4122 34.1303 19.6985C34.129 19.9694 34.1755 20.2384 34.2674 20.4929C34.3529 20.735 34.4857 20.9574 34.6578 21.1468C34.8334 21.3351 35.0455 21.4849 35.2809 21.587C35.5385 21.6988 35.8166 21.7545 36.0971 21.7504C36.4241 21.7566 36.7491 21.696 37.0524 21.5723C37.3544 21.4309 37.6159 21.2146 37.8125 20.9435L37.8437 20.9016L37.2891 20.4656L37.2559 20.5076C37.1224 20.6802 36.9548 20.8229 36.7637 20.9267C36.5548 21.0258 36.3256 21.0732 36.095 21.0651C35.9401 21.0661 35.7866 21.0347 35.6443 20.9729C35.5092 20.9118 35.386 20.8266 35.2809 20.7213C35.176 20.6113 35.091 20.4836 35.0296 20.3441C34.9736 20.2209 34.9385 20.0891 34.9257 19.9542H37.9579V19.6839C37.9624 19.3915 37.9188 19.1005 37.8291 18.8225C37.7463 18.5826 37.6139 18.3633 37.4408 18.179ZM34.9158 19.2898C34.9502 19.0085 35.0907 18.7514 35.308 18.5719C35.5254 18.3923 35.8029 18.3042 36.0829 18.3257C36.2258 18.3162 36.3691 18.3358 36.5044 18.3833C36.6396 18.4309 36.7639 18.5054 36.87 18.6024C37.0474 18.7877 37.1509 19.0324 37.1608 19.2898H34.9158Z" fill="#575756"/>
<path d="M42.2278 21.6431V19.2433C42.2301 19.0243 42.2007 18.8061 42.1405 18.5957C42.0871 18.4076 41.9943 18.2332 41.8685 18.0843C41.7404 17.9381 41.5804 17.824 41.4012 17.751C41.1893 17.6688 40.9636 17.6289 40.7366 17.6337C40.5853 17.6331 40.4347 17.6557 40.2901 17.7007C40.1587 17.7397 40.033 17.7961 39.9163 17.8684C39.8093 17.934 39.7116 18.0136 39.6255 18.1053C39.5873 18.1455 39.5526 18.189 39.5217 18.2352V18.0906C39.5217 17.9879 39.5113 17.881 39.5113 17.7867V17.7322H38.8093V17.7867C38.8093 17.9124 38.8093 18.0508 38.8239 18.2059C38.8384 18.361 38.8426 18.5244 38.8426 18.69V21.6431H39.5819V19.7401C39.58 19.5445 39.6023 19.3495 39.6484 19.1595C39.6888 18.9994 39.7593 18.8485 39.856 18.7152C39.9445 18.5932 40.0615 18.4952 40.1966 18.4301C40.355 18.3577 40.5275 18.3226 40.7013 18.3274C40.8153 18.3169 40.9301 18.3343 41.036 18.3781C41.1419 18.4219 41.2359 18.4908 41.3098 18.5789C41.4523 18.7939 41.5209 19.0502 41.505 19.3083V21.6431H42.2278Z" fill="#575756"/>
<path d="M45.3098 20.9225C45.2286 20.9653 45.1419 20.9964 45.0522 21.0148C44.9623 21.0352 44.8703 21.0457 44.7781 21.0462C44.6769 21.0517 44.5761 21.0308 44.4853 20.9854C44.4214 20.9466 44.3701 20.8898 44.3378 20.8219C44.3025 20.7413 44.2835 20.6544 44.2817 20.5662C44.2817 20.4635 44.2714 20.3566 44.2714 20.2267V18.3823H45.3804V17.7368H44.2714V16.6553H43.5341V17.7347H42.7034V18.3802H43.5341V20.4111C43.5328 20.5935 43.5453 20.7756 43.5715 20.9561C43.5918 21.1064 43.6465 21.25 43.7314 21.3752C43.8168 21.4957 43.9341 21.5894 44.0699 21.6456C44.2477 21.7154 44.4379 21.7475 44.6286 21.7399C44.7567 21.7389 44.8845 21.727 45.0107 21.7043C45.1371 21.6828 45.2605 21.6462 45.3783 21.5953L45.4115 21.5806L45.3866 20.8785L45.3098 20.9225Z" fill="#575756"/>
<path d="M14.3846 24.7598H13.6743L11.1157 30.6178H12.0025L12.584 29.2136H15.3732L15.9547 30.622H16.8477L14.3971 24.7954L14.3846 24.7598ZM12.8997 28.4632L14.0087 25.8161L15.0658 28.4632H12.8997Z" fill="#575756"/>
<path d="M20.6317 29.6621V26.709H19.8944V28.6142C19.8961 28.8091 19.8731 29.0036 19.8259 29.1926C19.7854 29.3534 19.7149 29.5049 19.6182 29.6391C19.5301 29.7617 19.412 29.8592 19.2755 29.922C19.1176 29.9932 18.9458 30.0276 18.7729 30.0226C18.6589 30.0331 18.5441 30.0157 18.4382 29.9719C18.3323 29.9282 18.2384 29.8593 18.1644 29.7711C18.0228 29.5573 17.9542 29.3027 17.9692 29.0459V26.709H17.2444V29.1109C17.2412 29.3283 17.2692 29.545 17.3275 29.7543C17.3789 29.9407 17.4696 30.1137 17.5933 30.2615C17.7222 30.4061 17.882 30.5194 18.0606 30.5927C18.2719 30.677 18.4979 30.7177 18.7252 30.7122C18.8756 30.7133 19.0253 30.6921 19.1696 30.6493C19.3011 30.6107 19.4269 30.5543 19.5434 30.4816C19.6507 30.415 19.7485 30.3339 19.8342 30.2406C19.8715 30.1987 19.9069 30.1526 19.938 30.1085V30.6116H20.6441V30.5571C20.6464 30.4171 20.6408 30.2772 20.6275 30.1379C20.6204 29.9793 20.6218 29.8205 20.6317 29.6621Z" fill="#575756"/>
<path d="M23.8713 29.8967C23.7898 29.9392 23.7033 29.9709 23.6138 29.991C23.5238 30.0114 23.4318 30.022 23.3396 30.0224C23.2389 30.0281 23.1384 30.0064 23.0489 29.9595C22.984 29.9219 22.9325 29.8647 22.9014 29.796C22.8664 29.7152 22.8466 29.6285 22.8433 29.5403V27.3543H23.9523V26.7088H22.8433V25.6294H22.1039V26.7088H21.2732V27.3543H22.1039V29.3853C22.1026 29.5669 22.1151 29.7484 22.1413 29.9281C22.1616 30.0785 22.2164 30.222 22.3012 30.3473C22.3864 30.4671 22.5029 30.5607 22.6377 30.6176C22.8156 30.6871 23.0057 30.7192 23.1963 30.712C23.3252 30.712 23.4538 30.7001 23.5805 30.6763C23.7066 30.6545 23.8299 30.6187 23.9481 30.5694L23.9813 30.5548L23.9564 29.8505L23.8713 29.8967Z" fill="#575756"/>
<path d="M27.8111 27.0588C27.6824 26.9133 27.5226 26.7994 27.3438 26.7255C27.1327 26.6429 26.9076 26.603 26.6813 26.6082C26.5405 26.6083 26.4005 26.6294 26.2659 26.671C26.1398 26.7072 26.0185 26.7585 25.9046 26.824C25.8024 26.8812 25.7081 26.9516 25.6242 27.0336C25.5868 27.0713 25.5536 27.107 25.5245 27.1426V24.3718H24.7852V30.6176H25.5245V28.7145C25.5227 28.519 25.5451 28.324 25.591 28.134C25.6332 27.9745 25.7035 27.824 25.7986 27.6896C25.8872 27.5678 26.0042 27.4699 26.1392 27.4046C26.2971 27.3331 26.4688 27.298 26.6418 27.3019C26.7559 27.2922 26.8707 27.3101 26.9765 27.3542C27.0824 27.3983 27.1763 27.4674 27.2503 27.5555C27.3979 27.7678 27.471 28.0238 27.458 28.2828V30.6176H28.1953V28.2178C28.1973 27.9988 28.1679 27.7807 28.108 27.5702C28.0454 27.3807 27.9443 27.2065 27.8111 27.0588Z" fill="#575756"/>
<path d="M32.5853 27.1846C32.398 27.002 32.1762 26.8595 31.9331 26.7654C31.3982 26.559 30.8066 26.559 30.2717 26.7654C30.0289 26.86 29.8071 27.0025 29.6196 27.1846C29.4365 27.3699 29.2905 27.5891 29.1897 27.8301C28.982 28.3658 28.982 28.9607 29.1897 29.4964C29.29 29.7384 29.436 29.9583 29.6196 30.144C29.8071 30.3261 30.0289 30.4686 30.2717 30.5632C30.8072 30.7665 31.3976 30.7665 31.9331 30.5632C32.1762 30.4691 32.398 30.3266 32.5853 30.144C32.7701 29.959 32.9169 29.7389 33.0172 29.4964C33.1246 29.2304 33.1776 28.9452 33.173 28.658C33.1768 28.3709 33.1238 28.0859 33.0172 27.8197C32.9152 27.5818 32.7685 27.3661 32.5853 27.1846ZM32.2987 29.2134C32.2411 29.3698 32.153 29.513 32.0395 29.6343C31.9261 29.7556 31.7896 29.8527 31.6382 29.9197C31.4695 29.9918 31.2877 30.0275 31.1045 30.0245C30.9233 30.0271 30.7437 29.9914 30.577 29.9197C30.4243 29.8541 30.2865 29.7575 30.1722 29.636C30.0579 29.5146 29.9695 29.3707 29.9124 29.2134C29.7934 28.8644 29.7934 28.4852 29.9124 28.1361C29.9685 27.9776 30.0559 27.8323 30.1695 27.7091C30.283 27.5859 30.4203 27.4873 30.5728 27.4193C30.7406 27.3488 30.9206 27.3124 31.1024 27.3124C31.2842 27.3124 31.4642 27.3488 31.632 27.4193C31.7851 27.4867 31.9229 27.5851 32.0369 27.7084C32.1509 27.8317 32.2385 27.9773 32.2945 28.1361C32.4121 28.4852 32.4136 28.8635 32.2987 29.2134Z" fill="#575756"/>
<path d="M36.0057 26.6082C35.8543 26.6076 35.7038 26.6302 35.5591 26.6752C35.4277 26.714 35.302 26.7704 35.1853 26.8429C35.0783 26.9092 34.9806 26.9896 34.8946 27.0818C34.8564 27.1221 34.8216 27.1656 34.7907 27.2118V26.7088H34.0659V26.7633C34.0659 26.889 34.0659 27.0294 34.0805 27.1824C34.095 27.3354 34.095 27.4947 34.095 27.6666V30.6176H34.8343V28.7145C34.8149 28.3615 34.9018 28.0108 35.0836 27.7085C35.1759 27.5863 35.2976 27.4899 35.4371 27.4283C35.5767 27.3667 35.7294 27.342 35.881 27.3564C35.99 27.3555 36.0985 27.3711 36.203 27.4025L36.2673 27.4214L36.3193 26.6731L36.2777 26.6585C36.1906 26.626 36.0985 26.609 36.0057 26.6082Z" fill="#575756"/>
<path d="M37.7815 26.709H37.0483V30.6178H37.7815V26.709Z" fill="#575756"/>
<path d="M37.4184 24.7601C37.3499 24.759 37.2818 24.7723 37.2186 24.7989C37.1553 24.8256 37.0982 24.8652 37.0508 24.9152C37.0037 24.9632 36.9664 25.0201 36.9411 25.0827C36.9158 25.1453 36.903 25.2123 36.9034 25.2799C36.901 25.3481 36.9128 25.4162 36.9378 25.4797C36.9628 25.5431 37.0006 25.6007 37.0487 25.6487C37.0978 25.6962 37.1558 25.7333 37.2193 25.7577C37.2828 25.7822 37.3505 25.7936 37.4184 25.7913C37.4857 25.794 37.5528 25.7827 37.6155 25.758C37.6783 25.7333 37.7352 25.6957 37.7829 25.6476C37.8305 25.5996 37.8677 25.5421 37.8922 25.4788C37.9167 25.4155 37.9279 25.3478 37.9251 25.2799C37.9255 25.1434 37.8725 25.0124 37.7777 24.9152C37.7319 24.8653 37.6763 24.8257 37.6144 24.799C37.5525 24.7723 37.4857 24.759 37.4184 24.7601Z" fill="#575756"/>
<path d="M40.965 29.8967C40.883 29.9396 40.7957 29.9713 40.7054 29.991C40.6161 30.0114 40.5249 30.0219 40.4334 30.0224C40.3326 30.0283 40.2321 30.0066 40.1426 29.9595C40.0772 29.9225 40.0255 29.8652 39.9951 29.796C39.9601 29.7152 39.9404 29.6285 39.937 29.5403V27.3543H41.046V26.7088H39.937V25.6294H39.1977V26.7088H38.3794V27.3543H39.1977V29.3853C39.1964 29.5669 39.2089 29.7484 39.235 29.9281C39.257 30.0784 39.3124 30.2217 39.397 30.3473C39.4822 30.4671 39.5987 30.5607 39.7335 30.6176C39.9113 30.6873 40.1015 30.7194 40.2921 30.712C40.4203 30.712 40.5482 30.7001 40.6743 30.6763C40.8004 30.6548 40.9237 30.619 41.0419 30.5694L41.0772 30.5548L41.0502 29.8505L40.965 29.8967Z" fill="#575756"/>
<path d="M43.5196 29.6118L42.394 26.7446L42.3815 26.709H41.5425L43.1271 30.5864L42.8737 31.2801C42.8224 31.4408 42.7413 31.5901 42.6349 31.7203C42.5811 31.7749 42.5159 31.8168 42.444 31.8429C42.3722 31.869 42.2955 31.8787 42.2195 31.8712C42.1405 31.8735 42.0613 31.87 41.9828 31.8607C41.9181 31.8536 41.8546 31.8381 41.7938 31.8146L41.7315 31.7895L41.6339 32.4455L41.6692 32.4622C41.7623 32.5088 41.8628 32.5386 41.9662 32.5503C42.0626 32.5623 42.1597 32.5686 42.2569 32.5691C42.4264 32.5728 42.5952 32.5458 42.7553 32.4895C42.889 32.4376 43.0106 32.3584 43.1125 32.2568C43.2146 32.1529 43.2989 32.0324 43.3618 31.9005C43.435 31.7552 43.5009 31.6062 43.5591 31.4541L45.4074 26.709H44.6058L43.5196 29.6118Z" fill="#575756"/>
<path d="M78.4723 29.0604C78.478 29.1924 78.4576 29.3243 78.4121 29.4482C78.3793 29.5301 78.3264 29.6022 78.2584 29.6578C78.1978 29.7066 78.1266 29.7403 78.0507 29.7563C77.9821 29.7679 77.9126 29.7742 77.843 29.7751H77.3654C77.1871 29.7802 77.0095 29.751 76.842 29.6892C76.7137 29.6404 76.5993 29.5604 76.509 29.4561C76.4188 29.3519 76.3555 29.2268 76.3249 29.0919C76.2879 28.9446 76.2698 28.7932 76.2709 28.6412V26.9079H75.5232V30.5024C75.5446 30.8426 75.4766 31.1824 75.3259 31.4875C75.2418 31.6024 75.1292 31.6929 74.9994 31.7499C74.8696 31.8069 74.7272 31.8285 74.5866 31.8123H74.3893C74.3239 31.8089 74.2587 31.8019 74.1941 31.7914L73.9698 31.7495L73.8867 32.5082C73.9573 32.5082 74.0549 32.5312 74.1775 32.5438C74.3154 32.5592 74.4541 32.5662 74.5928 32.5648C74.8425 32.5695 75.0902 32.5179 75.3176 32.4139C75.5242 32.3179 75.7056 32.1743 75.8472 31.9947C75.9921 31.8073 76.1006 31.594 76.167 31.3659C76.2413 31.1157 76.2784 30.8558 76.2771 30.5946V29.8694C76.3189 30.0056 76.3898 30.1308 76.4848 30.2362C76.5655 30.322 76.6604 30.3929 76.7652 30.4458C76.8639 30.4939 76.9699 30.5251 77.0788 30.538C77.1712 30.5482 77.2641 30.5531 77.3571 30.5527H78.0216C78.2193 30.5595 78.4161 30.5238 78.599 30.4479C78.7443 30.3852 78.8725 30.2881 78.9728 30.165C79.0709 30.0418 79.1417 29.8989 79.1805 29.7458C79.2261 29.5864 79.2485 29.4212 79.2469 29.2553V23.6865H78.4951L78.4723 29.0604Z" fill="#575756"/>
<path d="M61.3281 31.6594C61.2284 31.6626 61.1328 31.7006 61.0576 31.7668C60.9825 31.8331 60.9323 31.9235 60.9157 32.0229C60.8991 32.1222 60.917 32.2242 60.9665 32.3117C61.0159 32.3992 61.0938 32.4667 61.187 32.5029C61.2802 32.539 61.3829 32.5414 61.4776 32.5099C61.5724 32.4783 61.6534 32.4146 61.707 32.3296C61.7605 32.2446 61.7833 32.1435 61.7714 32.0435C61.7595 31.9435 61.7137 31.8507 61.6417 31.7809C61.6 31.7407 61.5508 31.7093 61.497 31.6884C61.4432 31.6676 61.3858 31.6577 61.3281 31.6594Z" fill="#575756"/>
<path d="M60.0655 31.6598C59.9636 31.6594 59.8647 31.6947 59.7856 31.7597C59.7066 31.8247 59.6524 31.9154 59.6322 32.0162C59.6121 32.1171 59.6272 32.2219 59.6751 32.3127C59.7229 32.4035 59.8005 32.4748 59.8947 32.5143C59.9888 32.5538 60.0936 32.5592 60.1912 32.5294C60.2888 32.4997 60.3731 32.4366 60.4298 32.3511C60.4865 32.2656 60.512 32.1629 60.502 32.0605C60.492 31.9581 60.4471 31.8624 60.375 31.7897C60.3352 31.7475 60.2871 31.7142 60.2338 31.6918C60.1805 31.6695 60.1232 31.6585 60.0655 31.6598Z" fill="#575756"/>
<path d="M72.5408 24.7684C72.4993 24.8097 72.4665 24.859 72.4443 24.9134C72.4222 24.9677 72.4112 25.0261 72.412 25.0849C72.4105 25.1435 72.4212 25.2017 72.4434 25.2558C72.4655 25.31 72.4987 25.3589 72.5408 25.3993C72.5817 25.4406 72.6302 25.4734 72.6837 25.4957C72.7371 25.5181 72.7944 25.5296 72.8523 25.5296C72.9102 25.5296 72.9674 25.5181 73.0209 25.4957C73.0744 25.4734 73.1229 25.4406 73.1638 25.3993C73.2051 25.3585 73.2375 25.3095 73.259 25.2553C73.2804 25.2012 73.2904 25.1431 73.2884 25.0849C73.2893 24.9971 73.2642 24.911 73.2164 24.8377C73.1686 24.7643 73.1002 24.707 73.02 24.6731C72.9398 24.6391 72.8513 24.63 72.766 24.647C72.6806 24.664 72.6022 24.7063 72.5408 24.7684Z" fill="#575756"/>
<path d="M71.276 24.7685C71.2352 24.8101 71.2032 24.8596 71.1818 24.914C71.1604 24.9684 71.15 25.0265 71.1514 25.085C71.1493 25.1433 71.1594 25.2013 71.1808 25.2555C71.2023 25.3096 71.2347 25.3586 71.276 25.3994C71.3169 25.4407 71.3654 25.4735 71.4189 25.4959C71.4723 25.5182 71.5296 25.5297 71.5875 25.5297C71.6454 25.5297 71.7027 25.5182 71.7561 25.4959C71.8096 25.4735 71.8581 25.4407 71.899 25.3994C71.9411 25.359 71.9742 25.3101 71.9964 25.256C72.0186 25.2018 72.0293 25.1436 72.0278 25.085C72.0284 24.9973 72.0033 24.9114 71.9554 24.8382C71.9076 24.765 71.8392 24.7077 71.7591 24.6738C71.679 24.6399 71.5906 24.6308 71.5053 24.6477C71.4201 24.6645 71.3417 24.7066 71.2801 24.7685H71.276Z" fill="#575756"/>
<path d="M73.9801 28.3206C73.9825 28.0734 73.9439 27.8276 73.8659 27.5933C73.7942 27.3852 73.6811 27.194 73.5336 27.0316C73.3859 26.8731 73.2059 26.7487 73.0061 26.6669C72.7869 26.5786 72.5525 26.5352 72.3166 26.5391C72.0304 26.5352 71.7469 26.5946 71.4859 26.713C71.2457 26.8231 71.0269 26.9758 70.84 27.1636C70.6589 27.3452 70.5174 27.5629 70.4246 27.8029C70.3289 28.0376 70.2795 28.2889 70.2792 28.5427C70.2742 28.7906 70.3202 29.0368 70.4142 29.2658C70.491 29.4596 70.6078 29.6347 70.7569 29.7793H69.0955C68.8939 29.7893 68.6929 29.7498 68.5098 29.664C68.3823 29.599 68.2714 29.505 68.1858 29.3895C68.1145 29.2903 68.0656 29.1766 68.0425 29.0562C68.0238 28.9595 68.0134 28.8613 68.0114 28.7628C68.0483 28.1836 67.8797 27.61 67.5358 27.1448C67.3718 26.952 67.1661 26.7997 66.9345 26.6998C66.703 26.5999 66.4519 26.5549 66.2004 26.5684C65.9391 26.5659 65.6801 26.6187 65.4403 26.7235C65.2157 26.8191 65.0139 26.962 64.8484 27.1427C64.6786 27.3339 64.5462 27.5558 64.458 27.7966C64.3625 28.0597 64.3147 28.338 64.3167 28.6182C64.3215 28.8135 64.2977 29.0084 64.2461 29.1967C64.2087 29.3254 64.1458 29.4452 64.0613 29.5488C63.9937 29.6305 63.9043 29.6908 63.8038 29.7227C63.7078 29.7538 63.6076 29.7694 63.5068 29.7688H62.9668C62.7933 29.7731 62.6206 29.7439 62.458 29.6829C62.3284 29.6307 62.2125 29.5489 62.1195 29.444C62.0313 29.3411 61.9693 29.2181 61.9388 29.0856C61.9036 28.938 61.8862 28.7867 61.8869 28.635V26.9079H61.1351V29.0437C61.1441 29.2287 61.1032 29.4127 61.0167 29.576C60.964 29.6477 60.8932 29.7037 60.8118 29.7384C60.7303 29.773 60.6412 29.785 60.5536 29.773H53.7105V28.3751C53.7133 28.1209 53.6711 27.8682 53.5859 27.6289C53.5088 27.4145 53.391 27.2173 53.2391 27.0484C53.0869 26.8843 52.9013 26.7556 52.6949 26.6711C52.4655 26.5804 52.2207 26.5355 51.9743 26.5391C51.707 26.5369 51.4428 26.5964 51.2017 26.713C50.9649 26.8258 50.7531 26.9854 50.5787 27.1825C50.4025 27.3866 50.2652 27.6218 50.1737 27.8762C50.077 28.145 50.0278 28.4287 50.0283 28.7146C50.0293 28.9406 50.0664 29.165 50.1384 29.379C50.2112 29.5983 50.331 29.7987 50.4894 29.9659C50.6701 30.1496 50.8874 30.2925 51.127 30.385C51.4311 30.5018 51.7549 30.5574 52.0802 30.5485H60.5951C60.714 30.5492 60.8328 30.54 60.9502 30.5213C61.0622 30.5033 61.1708 30.4679 61.2721 30.4165C61.3755 30.359 61.4672 30.2822 61.5421 30.1901C61.6344 30.0717 61.7092 29.9403 61.7643 29.8003C61.7919 29.9195 61.8429 30.0319 61.9142 30.1309C61.9855 30.2299 62.0758 30.3135 62.1797 30.3767C62.403 30.4968 62.6536 30.5561 62.9066 30.5485H63.5462C63.7602 30.5419 63.967 30.4687 64.1381 30.3389C64.3396 30.1894 64.4858 29.9762 64.5535 29.7332C64.7049 30.0021 64.9251 30.2251 65.1911 30.3788C65.4731 30.5258 65.7876 30.5979 66.1049 30.5883C66.2514 30.5882 66.3978 30.5784 66.5431 30.559C66.6869 30.5391 66.8269 30.4974 66.9584 30.4353C67.1058 30.3652 67.2411 30.2718 67.3592 30.1587C67.5085 30.0149 67.6377 29.8513 67.7435 29.6724C67.7767 29.8168 67.839 29.9527 67.9265 30.0717C68.0141 30.1907 68.125 30.2902 68.2523 30.3641C68.3682 30.4313 68.4946 30.4781 68.6261 30.5024C68.7589 30.5276 68.8938 30.5403 69.029 30.5401H73.951L73.9801 28.3206ZM52.9628 29.7877H52.0574C51.8943 29.7886 51.7319 29.7653 51.5755 29.7185C51.4247 29.6772 51.2835 29.606 51.1602 29.509C51.0357 29.4065 50.938 29.2748 50.8757 29.1254C50.8007 28.9422 50.7646 28.7451 50.7697 28.5469C50.7632 28.2074 50.8884 27.8787 51.1186 27.631C51.2206 27.5239 51.3428 27.4384 51.4779 27.3795C51.6094 27.3237 51.7507 27.2952 51.8933 27.2957C52.0442 27.2872 52.1949 27.3162 52.3321 27.3801C52.4693 27.4441 52.5889 27.541 52.6804 27.6625C52.879 27.9691 52.9744 28.3322 52.9525 28.6978L52.9628 29.7877ZM67.245 29.1128C67.2025 29.2518 67.1318 29.3802 67.0373 29.4901C66.94 29.6018 66.8195 29.6906 66.6843 29.75C66.3563 29.8786 65.9925 29.8786 65.6646 29.75C65.5306 29.6884 65.4105 29.6 65.3115 29.4901C65.2163 29.3816 65.1455 29.2536 65.1038 29.1149C65.0575 28.9629 65.0351 28.8045 65.0374 28.6454C65.0343 28.4537 65.0645 28.2629 65.1267 28.0816C65.1805 27.9271 65.2638 27.7847 65.3717 27.6625C65.4754 27.5482 65.6003 27.4556 65.7393 27.39C65.8767 27.326 66.0263 27.2931 66.1775 27.2936C66.3213 27.2946 66.4631 27.3275 66.5929 27.39C66.7307 27.4557 66.8542 27.5483 66.9563 27.6625C67.0655 27.7854 67.1513 27.9275 67.2097 28.0816C67.3244 28.415 67.3338 28.776 67.2367 29.1149L67.245 29.1128ZM73.2221 29.7877H72.1463C71.9493 29.7666 71.7589 29.7038 71.5876 29.6033C71.4292 29.5142 71.2945 29.3876 71.1951 29.2344C71.0689 29.0263 71.0088 28.7842 71.0227 28.5406C71.0202 28.3632 71.0534 28.1871 71.1204 28.023C71.1839 27.8753 71.2732 27.7404 71.3841 27.6247C71.4896 27.5151 71.617 27.4294 71.7579 27.3732C71.8988 27.3175 72.0489 27.289 72.2003 27.2894C72.3593 27.2848 72.5175 27.3155 72.6634 27.3795C72.7845 27.4323 72.8924 27.5118 72.9791 27.6122C73.0606 27.7069 73.1221 27.8175 73.1598 27.937C73.1983 28.0489 73.2187 28.1665 73.22 28.2849L73.2221 29.7877Z" fill="#575756"/>
<path d="M81.0412 23.6865H80.3081V30.5548H81.0412V23.6865Z" fill="#575756"/>
<path d="M50.4956 12.3959C50.6763 12.5796 50.8936 12.7225 51.1332 12.815C51.4369 12.9334 51.761 12.9897 52.0864 12.9806H67.7102C67.8299 12.9805 67.9493 12.9707 68.0674 12.9513C68.1789 12.9335 68.2868 12.8982 68.3873 12.8465C68.4914 12.7901 68.5832 12.7131 68.6572 12.6201C68.7523 12.5044 68.83 12.3752 68.8878 12.2366C68.9156 12.3559 68.9667 12.4685 69.038 12.5678C69.1093 12.6671 69.1994 12.7512 69.3031 12.815C69.527 12.9338 69.7772 12.9929 70.03 12.9869H72.1442C72.2639 12.9868 72.3833 12.9769 72.5014 12.9576C72.6128 12.9395 72.7206 12.9042 72.8212 12.8528C72.9254 12.7964 73.0172 12.7194 73.0912 12.6264C73.1847 12.508 73.2609 12.3767 73.3176 12.2366C73.3449 12.3562 73.3957 12.469 73.4671 12.5684C73.5385 12.6677 73.6289 12.7516 73.733 12.815C73.9575 12.934 74.2084 12.9932 74.4619 12.9869H81.0018C81.0018 12.9869 81.0662 11.4506 81.0018 10.8114C80.8834 9.73616 80.2375 8.67354 78.5096 8.67354C77.923 8.66798 77.3409 8.77834 76.7962 8.9984L76.898 9.67329C77.2996 9.50253 77.7276 9.40393 78.1628 9.38195C78.5595 9.35052 79.3569 9.35261 79.7412 9.72359C80.4473 10.4027 80.2168 12.2009 80.2168 12.2009H79.2863V11.4825C79.2875 11.3153 79.2594 11.1493 79.2033 10.992C79.1527 10.8509 79.0751 10.7213 78.9748 10.6106C78.8753 10.5025 78.7533 10.418 78.6176 10.3633C78.467 10.3028 78.3061 10.2729 78.1441 10.2752C77.9679 10.2733 77.7937 10.3128 77.6353 10.3905C77.4819 10.4649 77.3449 10.5697 77.2324 10.6986C77.1158 10.8329 77.025 10.9878 76.9645 11.1555C76.9016 11.333 76.8699 11.5203 76.871 11.7088C76.8711 11.8577 76.895 12.0056 76.9416 12.1469C76.9416 12.1678 76.9624 12.1867 76.9707 12.2056H74.5035C74.3294 12.2117 74.1558 12.1832 73.9926 12.1217C73.8629 12.0695 73.7471 11.9877 73.654 11.8828C73.5677 11.7795 73.5059 11.6576 73.4734 11.5265C73.439 11.3781 73.4223 11.2261 73.4235 11.0738V9.34046H72.6696V11.4762C72.6781 11.6609 72.638 11.8446 72.5533 12.0085C72.5004 12.0798 72.4296 12.1357 72.3482 12.1703C72.2668 12.2049 72.1778 12.2171 72.0902 12.2056H70.0674C69.894 12.2117 69.7211 12.1832 69.5586 12.1217C69.4287 12.0701 69.3127 11.9882 69.2201 11.8828C69.1322 11.7805 69.0702 11.6582 69.0394 11.5265C69.0033 11.3784 68.9858 11.2263 68.9875 11.0738V9.34046H68.2336V11.4762C68.2433 11.661 68.2031 11.845 68.1173 12.0085C68.0643 12.0798 67.9935 12.1357 67.9121 12.1703C67.8308 12.2049 67.7417 12.2171 67.6542 12.2056H53.7105V10.7988C53.7135 10.5452 53.6713 10.2932 53.5859 10.0547C53.5098 9.83983 53.3919 9.64244 53.2391 9.47417C53.0885 9.30729 52.9025 9.17689 52.6949 9.09272C52.4658 9.00046 52.2209 8.95487 51.9743 8.95858C51.707 8.95643 51.4428 9.01593 51.2017 9.13254C50.9648 9.24601 50.7529 9.40638 50.5787 9.60412C50.4026 9.8075 50.2653 10.042 50.1737 10.2958C50.0772 10.5645 50.028 10.8483 50.0283 11.1341C50.0294 11.3608 50.0666 11.5858 50.1384 11.8006C50.2116 12.0236 50.3337 12.2271 50.4956 12.3959ZM77.9198 12.1716C77.8444 12.1499 77.7738 12.1136 77.7121 12.0647C77.6507 12.0133 77.6023 11.948 77.5709 11.874C77.5337 11.7823 77.516 11.6838 77.519 11.5847C77.518 11.4972 77.5342 11.4103 77.5667 11.329C77.5952 11.2558 77.6375 11.1889 77.6913 11.132C77.7399 11.0782 77.7993 11.0354 77.8656 11.0065C77.9318 10.9776 78.0034 10.9632 78.0756 10.9644C78.1505 10.9601 78.2253 10.9745 78.2934 11.0063C78.3615 11.0381 78.4208 11.0863 78.466 11.1467C78.5644 11.2996 78.6117 11.4803 78.601 11.6623V12.2072H78.1524C78.0737 12.2072 77.9954 12.1959 77.9198 12.1737V12.1716ZM50.8736 10.4429C50.9329 10.2955 51.0188 10.1604 51.127 10.0447C51.2281 9.93553 51.3504 9.8485 51.4862 9.78898C51.6177 9.73315 51.759 9.70464 51.9016 9.70514C52.0525 9.69666 52.2032 9.72566 52.3404 9.78961C52.4776 9.85356 52.5972 9.95049 52.6887 10.0719C52.8885 10.3782 52.9854 10.7412 52.9649 11.1073V12.2056H52.0594C51.8963 12.2065 51.734 12.1832 51.5776 12.1364C51.4267 12.095 51.2856 12.0238 51.1623 11.9268C51.0402 11.8218 50.946 11.6879 50.8881 11.537C50.8129 11.3538 50.7768 11.1567 50.7822 10.9585C50.7775 10.7821 50.8086 10.6067 50.8736 10.4429Z" fill="#575756"/>
<path d="M51.3118 7.92626C51.3696 7.92741 51.427 7.91667 51.4806 7.89469C51.5342 7.87271 51.5827 7.83995 51.6233 7.79841C51.6847 7.73599 51.7264 7.65667 51.7433 7.57041C51.7601 7.48415 51.7514 7.39479 51.7181 7.31353C51.6848 7.23227 51.6285 7.16273 51.5562 7.11365C51.484 7.06456 51.3989 7.0381 51.3118 7.0376C51.255 7.03751 51.1988 7.04919 51.1466 7.0719C51.0945 7.09461 51.0475 7.12788 51.0086 7.16964C50.9671 7.21062 50.9342 7.25953 50.9117 7.31352C50.8893 7.3675 50.8777 7.42547 50.8777 7.48402C50.8777 7.54258 50.8893 7.60055 50.9117 7.65453C50.9342 7.70852 50.9671 7.75743 51.0086 7.79841C51.0479 7.83941 51.095 7.8719 51.1471 7.89388C51.1993 7.91587 51.2553 7.92688 51.3118 7.92626Z" fill="#575756"/>
<path d="M52.5808 7.92623C52.6382 7.92799 52.6954 7.91773 52.7486 7.89608C52.8019 7.87444 52.8501 7.84189 52.8903 7.80048C52.9312 7.75921 52.9637 7.7102 52.9859 7.65626C53.008 7.60231 53.0194 7.54449 53.0194 7.48609C53.0194 7.4277 53.008 7.36987 52.9859 7.31593C52.9637 7.26198 52.9312 7.21297 52.8903 7.17171C52.8505 7.12855 52.8022 7.09413 52.7486 7.07059C52.695 7.04706 52.6372 7.03491 52.5788 7.03491C52.5203 7.03491 52.4625 7.04706 52.4089 7.07059C52.3553 7.09413 52.3071 7.12855 52.2672 7.17171C52.1861 7.25585 52.1406 7.36865 52.1406 7.48609C52.1406 7.60354 52.1861 7.71634 52.2672 7.80048C52.3079 7.84242 52.3568 7.87528 52.4108 7.89694C52.4648 7.91861 52.5228 7.92858 52.5808 7.92623Z" fill="#575756"/>
<path d="M51.3118 16.8821C51.3696 16.8832 51.427 16.8725 51.4806 16.8505C51.5342 16.8285 51.5827 16.7958 51.6233 16.7542C51.6847 16.6918 51.7264 16.6125 51.7433 16.5262C51.7601 16.44 51.7514 16.3506 51.7181 16.2693C51.6848 16.1881 51.6285 16.1185 51.5562 16.0695C51.484 16.0204 51.3989 15.9939 51.3118 15.9934C51.255 15.9933 51.1988 16.005 51.1466 16.0277C51.0945 16.0504 51.0475 16.0837 51.0086 16.1255C50.9671 16.1664 50.9342 16.2153 50.9117 16.2693C50.8893 16.3233 50.8777 16.3813 50.8777 16.4398C50.8777 16.4984 50.8893 16.5564 50.9117 16.6103C50.9342 16.6643 50.9671 16.7132 51.0086 16.7542C51.0479 16.7952 51.095 16.8277 51.1471 16.8497C51.1993 16.8717 51.2553 16.8827 51.3118 16.8821Z" fill="#575756"/>
<path d="M52.5808 16.882C52.6382 16.8838 52.6954 16.8735 52.7486 16.8519C52.8019 16.8303 52.8501 16.7977 52.8903 16.7563C52.9312 16.715 52.9637 16.666 52.9859 16.6121C53.008 16.5581 53.0194 16.5003 53.0194 16.4419C53.0194 16.3835 53.008 16.3257 52.9859 16.2717C52.9637 16.2178 52.9312 16.1688 52.8903 16.1275C52.8505 16.0844 52.8022 16.0499 52.7486 16.0264C52.695 16.0029 52.6372 15.9907 52.5788 15.9907C52.5203 15.9907 52.4625 16.0029 52.4089 16.0264C52.3553 16.0499 52.3071 16.0844 52.2672 16.1275C52.1861 16.2117 52.1406 16.3245 52.1406 16.4419C52.1406 16.5593 52.1861 16.6722 52.2672 16.7563C52.3079 16.7982 52.3568 16.8311 52.4108 16.8528C52.4648 16.8744 52.5228 16.8844 52.5808 16.882Z" fill="#575756"/>
<path d="M51.3118 25.7913C51.3696 25.7924 51.427 25.7817 51.4806 25.7597C51.5342 25.7377 51.5827 25.7049 51.6233 25.6634C51.6847 25.601 51.7264 25.5217 51.7433 25.4354C51.7601 25.3491 51.7514 25.2598 51.7181 25.1785C51.6848 25.0973 51.6285 25.0277 51.5562 24.9786C51.484 24.9295 51.3989 24.9031 51.3118 24.9026C51.255 24.9025 51.1988 24.9142 51.1466 24.9369C51.0945 24.9596 51.0475 24.9929 51.0086 25.0346C50.9671 25.0756 50.9342 25.1245 50.9117 25.1785C50.8893 25.2325 50.8777 25.2905 50.8777 25.349C50.8777 25.4076 50.8893 25.4655 50.9117 25.5195C50.9342 25.5735 50.9671 25.6224 51.0086 25.6634C51.0479 25.7044 51.095 25.7369 51.1471 25.7589C51.1993 25.7809 51.2553 25.7919 51.3118 25.7913Z" fill="#575756"/>
<path d="M52.5808 25.7912C52.6382 25.793 52.6954 25.7827 52.7486 25.7611C52.8019 25.7394 52.8501 25.7069 52.8903 25.6655C52.9312 25.6242 52.9637 25.5752 52.9859 25.5212C53.008 25.4673 53.0194 25.4095 53.0194 25.3511C53.0194 25.2927 53.008 25.2349 52.9859 25.1809C52.9637 25.127 52.9312 25.078 52.8903 25.0367C52.8505 24.9935 52.8022 24.9591 52.7486 24.9356C52.695 24.912 52.6372 24.8999 52.5788 24.8999C52.5203 24.8999 52.4625 24.912 52.4089 24.9356C52.3553 24.9591 52.3071 24.9935 52.2672 25.0367C52.1861 25.1208 52.1406 25.2336 52.1406 25.3511C52.1406 25.4685 52.1861 25.5813 52.2672 25.6655C52.3079 25.7074 52.3568 25.7403 52.4108 25.7619C52.4648 25.7836 52.5228 25.7936 52.5808 25.7912Z" fill="#575756"/>
<path d="M69.6729 7.61309H69.432C69.2859 7.61635 69.1404 7.59365 69.0021 7.54603C68.8906 7.50858 68.787 7.45028 68.6968 7.37416C68.621 7.30932 68.5613 7.2275 68.5224 7.13523C68.4854 7.04925 68.4663 6.9565 68.4663 6.86276C68.4596 6.78581 68.4741 6.70849 68.5081 6.63933C68.5422 6.57017 68.5946 6.51185 68.6594 6.47083C68.8098 6.38475 68.981 6.34266 69.1537 6.34926C69.2121 6.34811 69.2704 6.35162 69.3282 6.35974L69.4881 6.3807L69.5504 5.90284C69.4759 5.88522 69.4002 5.87331 69.324 5.86721C69.2409 5.86721 69.1662 5.85673 69.0914 5.85673C68.9323 5.85339 68.7738 5.87968 68.6241 5.93428C68.4973 5.97923 68.3812 6.05064 68.2835 6.14387C68.1943 6.22632 68.1233 6.32676 68.075 6.43869C68.0267 6.55061 68.0022 6.67152 68.0032 6.7936C68.0074 6.92956 68.0355 7.06369 68.0862 7.18972C68.1527 7.35185 68.2567 7.49557 68.3894 7.6089H67.6875V8.09306H69.6729V7.61309Z" fill="#575756"/>
<path d="M71.2907 14.9618C71.3771 14.9624 71.4617 14.937 71.5338 14.8889C71.6058 14.8408 71.662 14.7721 71.6952 14.6916C71.7284 14.611 71.7371 14.5224 71.7202 14.4369C71.7032 14.3514 71.6614 14.2729 71.6001 14.2115C71.5595 14.1696 71.511 14.1364 71.4576 14.1137C71.4041 14.091 71.3466 14.0793 71.2886 14.0793C71.2306 14.0793 71.1731 14.091 71.1197 14.1137C71.0662 14.1364 71.0177 14.1696 70.9771 14.2115C70.9161 14.2734 70.8748 14.3522 70.8583 14.4379C70.8419 14.5236 70.851 14.6123 70.8846 14.6927C70.9182 14.7731 70.9748 14.8417 71.0471 14.8896C71.1194 14.9375 71.2042 14.9626 71.2907 14.9618Z" fill="#575756"/>
<path d="M72.8668 14.8361C72.9076 14.7956 72.94 14.7473 72.9621 14.6941C72.9842 14.6408 72.9956 14.5837 72.9956 14.5259C72.9956 14.4682 72.9842 14.411 72.9621 14.3577C72.94 14.3045 72.9076 14.2562 72.8668 14.2157C72.8256 14.1746 72.7766 14.1423 72.7227 14.1207C72.6688 14.0991 72.6112 14.0886 72.5532 14.09C72.4401 14.0935 72.3329 14.1413 72.2541 14.2233C72.1754 14.3052 72.1313 14.4149 72.1313 14.5291C72.1313 14.6432 72.1754 14.7529 72.2541 14.8349C72.3329 14.9168 72.4401 14.9646 72.5532 14.9681C72.6115 14.9689 72.6693 14.9578 72.7232 14.9355C72.777 14.9132 72.8259 14.8801 72.8668 14.8382V14.8361Z" fill="#575756"/>
<path d="M50.4956 21.0607C50.6769 21.2438 50.894 21.3865 51.1332 21.4799C51.4373 21.5967 51.7612 21.6522 52.0864 21.6434H55.2494C55.4905 21.6517 55.7286 21.5867 55.9327 21.4568C56.1409 21.2975 56.2966 21.0783 56.3792 20.8281C56.4797 20.9946 56.6059 21.1439 56.753 21.2703C56.9929 21.4709 57.2849 21.5975 57.5941 21.635C57.7271 21.6512 57.861 21.6596 57.9949 21.6602C58.2835 21.6693 58.5705 21.615 58.8361 21.5009C59.0505 21.4073 59.2398 21.2636 59.3885 21.0817C59.5301 20.9003 59.6346 20.6922 59.6959 20.4697C59.7605 20.2435 59.7933 20.0093 59.7935 19.7738C59.7962 19.483 59.7591 19.1931 59.6834 18.9124C59.619 18.6709 59.5058 18.4455 59.3511 18.2501C59.1967 18.065 59.0029 17.9174 58.7841 17.8184C58.5392 17.7145 58.2762 17.6611 58.0105 17.6611C57.7449 17.6611 57.4819 17.7145 57.2369 17.8184C57.0111 17.9152 56.8075 18.0578 56.6388 18.2375C56.4682 18.4274 56.3344 18.6477 56.2442 18.8873C56.1453 19.1553 56.0967 19.4396 56.1009 19.7256C56.1009 20.4927 55.8288 20.8763 55.2847 20.8763H53.7147V19.4615C53.7176 19.2073 53.6754 18.9546 53.59 18.7154C53.5134 18.5007 53.3956 18.3034 53.2432 18.1348C53.0914 17.9709 52.9056 17.8428 52.6991 17.7597C52.4696 17.669 52.2249 17.6241 51.9784 17.6276C51.711 17.6244 51.4466 17.684 51.2059 17.8016C50.9687 17.9136 50.7566 18.0734 50.5828 18.2711C50.4062 18.4749 50.2689 18.7102 50.1779 18.9648C50.0812 19.2335 50.032 19.5173 50.0325 19.8032C50.0334 20.0292 50.0706 20.2536 50.1425 20.4676C50.2166 20.6889 50.3386 20.8909 50.4998 21.0586L50.4956 21.0607ZM56.9212 19.1535C56.9763 18.9986 57.061 18.8562 57.1704 18.7343C57.2723 18.619 57.3968 18.5262 57.536 18.4618C57.6732 18.3971 57.8227 18.3635 57.9742 18.3633C58.1182 18.3643 58.2602 18.3979 58.3895 18.4618C58.5284 18.5267 58.6528 18.6194 58.7551 18.7343C58.8639 18.857 58.9491 18.9992 59.0063 19.1535C59.0712 19.3341 59.1028 19.5251 59.0998 19.7172C59.1021 19.8763 59.0797 20.0347 59.0333 20.1867C58.9908 20.3257 58.9201 20.4541 58.8257 20.564C58.7283 20.6752 58.6077 20.7632 58.4726 20.8218C58.3155 20.8908 58.1454 20.9244 57.9742 20.9203C57.7953 20.9265 57.6174 20.8929 57.4529 20.8218C57.3194 20.7625 57.2003 20.6746 57.104 20.564C57.0109 20.454 56.9403 20.3265 56.8963 20.1888C56.8493 20.0369 56.8262 19.8785 56.8278 19.7193C56.8241 19.5274 56.8551 19.3363 56.9192 19.1555L56.9212 19.1535ZM50.8736 19.0969C50.9334 18.9497 51.0192 18.8148 51.127 18.6986C51.2265 18.5914 51.3468 18.5059 51.4804 18.4475C51.614 18.3891 51.7581 18.359 51.9037 18.3591C52.0553 18.3518 52.2064 18.3821 52.3436 18.4476C52.4809 18.513 52.6001 18.6114 52.6908 18.7343C52.8927 19.0442 52.989 19.4121 52.9649 19.7822V20.8805H52.0594C51.8963 20.8814 51.734 20.8581 51.5776 20.8113C51.4268 20.77 51.2856 20.6987 51.1623 20.6017C51.0391 20.4936 50.9448 20.3559 50.8881 20.2014C50.8129 20.0182 50.7768 19.8211 50.7822 19.6229C50.7776 19.4459 50.8087 19.2698 50.8736 19.1052V19.0969Z" fill="#575756"/>
<path d="M74.921 21.6435C75.0524 21.6413 75.1811 21.6053 75.2948 21.5387C75.4628 21.4176 75.5984 21.2563 75.6894 21.0692C75.8236 21.2596 76.0047 21.4114 76.2148 21.5094C76.4361 21.6036 76.6746 21.6493 76.9147 21.6435H77.8742C78.0718 21.6495 78.2684 21.6138 78.4515 21.5387C78.5974 21.4771 78.7259 21.3799 78.8254 21.2558C78.923 21.1323 78.9937 20.9895 79.033 20.8366C79.0776 20.677 79.1 20.512 79.0995 20.3462V14.7773H78.3456V20.1512C78.3519 20.2831 78.3321 20.4149 78.2875 20.539C78.2528 20.6203 78.1994 20.6922 78.1317 20.7486C78.0715 20.7976 78.0001 20.8307 77.924 20.845C77.8556 20.8584 77.7861 20.8654 77.7163 20.8659H76.9895C76.8241 20.8721 76.6607 20.8284 76.5201 20.7402C76.3908 20.6583 76.2838 20.5452 76.2086 20.4111C76.1261 20.2551 76.0666 20.0878 76.0321 19.9144C75.9911 19.7143 75.9606 19.5121 75.9407 19.3087C75.9288 19.1098 75.8947 18.9129 75.8389 18.7218C75.7828 18.5246 75.6905 18.3398 75.5669 18.1769C75.4369 18.0107 75.2733 17.8742 75.0871 17.7766C74.8604 17.6652 74.6102 17.6112 74.3582 17.6194C74.2303 17.6202 74.1026 17.63 73.976 17.6487C73.8431 17.6676 73.7164 17.6906 73.5918 17.7116C73.4727 17.7338 73.3548 17.7625 73.2388 17.7975C73.1266 17.8311 73.0311 17.8604 72.9625 17.8877L73.1515 18.6317C73.3207 18.5584 73.4967 18.5022 73.677 18.464C73.831 18.4279 73.9882 18.4068 74.1463 18.4012C74.4026 18.3884 74.6538 18.4771 74.8462 18.6485C75.052 18.8892 75.1694 19.1942 75.1785 19.512C75.2133 19.8045 75.2702 20.0939 75.3488 20.3776C75.4013 20.5522 75.4775 20.7187 75.5752 20.8722H71.4672C71.4662 20.346 71.421 19.8209 71.3323 19.3024C71.2532 19.0833 71.1224 18.8869 70.9513 18.7302C70.7801 18.5736 70.5737 18.4613 70.3499 18.4033C70.1194 18.3383 67.0914 18.3047 66.8194 18.3047H66.6117L69.0436 16.628L68.6282 16.0726L65.513 18.2775V19.0404H68.6552C69.1349 19.0362 69.6143 19.0642 70.0903 19.1242C70.2549 19.1671 70.4009 19.2637 70.5057 19.3988C70.6115 19.5539 70.6739 19.7349 70.6864 19.9228C70.6864 19.9857 70.6988 20.4971 70.7051 20.8785H64.1797V19.4638C64.1816 19.2096 64.1394 18.9571 64.0551 18.7176C63.9808 18.5028 63.8642 18.3054 63.7125 18.1371C63.5599 17.9731 63.3734 17.845 63.1663 17.7619C62.934 17.6707 62.6865 17.6259 62.4373 17.6299C62.1693 17.627 61.9042 17.6865 61.6627 17.8038C61.4289 17.9166 61.2204 18.0764 61.05 18.2733C60.8733 18.4766 60.7365 18.7121 60.6471 18.9671C60.5528 19.2363 60.505 19.5199 60.5059 19.8054C60.5062 20.0313 60.5426 20.2557 60.6139 20.4698C60.6872 20.69 60.8077 20.8911 60.9669 21.0588C61.147 21.2422 61.3636 21.3851 61.6024 21.4779C61.9074 21.5944 62.2318 21.6499 62.5578 21.6414H63.4425C63.4456 21.8976 63.3961 22.1517 63.2971 22.3876C63.2182 22.565 63.0969 22.7198 62.944 22.8382C62.7943 22.9505 62.6209 23.0266 62.4373 23.0604C62.2367 23.0989 62.033 23.1179 61.8288 23.1169C61.7 23.1169 61.565 23.1169 61.4259 23.1044L61.0002 23.0708C60.9856 23.1903 60.9732 23.3077 60.9628 23.425C60.9524 23.5424 60.9441 23.6661 60.9337 23.8002C61.0791 23.8233 61.2244 23.8379 61.3615 23.8463C61.4986 23.8547 61.6357 23.8463 61.7769 23.8463C62.1006 23.8489 62.4233 23.808 62.7364 23.7248C63.0129 23.6514 63.2706 23.5192 63.4923 23.337C63.7114 23.1514 63.8825 22.9147 63.9907 22.6475C64.1177 22.3238 64.1832 21.979 64.1839 21.6309H74.9334L74.921 21.6435ZM63.43 20.868H62.5183C62.3553 20.8697 62.193 20.8471 62.0365 20.801C61.8858 20.7592 61.7447 20.688 61.6211 20.5914C61.4971 20.4869 61.4007 20.3529 61.3408 20.2015C61.2663 20.0182 61.231 19.8211 61.2369 19.6231C61.2301 19.2853 61.3528 18.9579 61.5796 18.7093C61.6806 18.5991 61.8048 18.5132 61.943 18.4577C62.0788 18.4015 62.2241 18.3724 62.3708 18.3718C62.5187 18.3667 62.6657 18.3971 62.7996 18.4605C62.9336 18.5239 63.0507 18.6185 63.1413 18.7365C63.3529 19.0426 63.4554 19.412 63.4321 19.7845L63.43 20.868Z" fill="#575756"/>
<path d="M81.0412 14.7773H80.3081V21.6456H81.0412V14.7773Z" fill="#575756"/>
</g>
<defs>
<linearGradient id="paint0_linear_1150_14830" x1="90.7106" y1="2.87205" x2="90.7106" y2="32.787" gradientUnits="userSpaceOnUse">
<stop stop-color="#00B0B2"/>
<stop offset="0.33" stop-color="#058AB3"/>
<stop offset="0.51" stop-color="#077BB4"/>
<stop offset="0.59" stop-color="#1276B2"/>
<stop offset="0.73" stop-color="#2F6AAC"/>
<stop offset="0.91" stop-color="#5D56A3"/>
<stop offset="1" stop-color="#754C9E"/>
</linearGradient>
<linearGradient id="paint1_linear_1150_14830" x1="94.1773" y1="2.87663" x2="94.1773" y2="32.7834" gradientUnits="userSpaceOnUse">
<stop stop-color="#00B0B2"/>
<stop offset="0.33" stop-color="#058AB3"/>
<stop offset="0.51" stop-color="#077BB4"/>
<stop offset="0.59" stop-color="#1276B2"/>
<stop offset="0.73" stop-color="#2F6AAC"/>
<stop offset="0.91" stop-color="#5D56A3"/>
<stop offset="1" stop-color="#754C9E"/>
</linearGradient>
<linearGradient id="paint2_linear_1150_14830" x1="97.1353" y1="2.86665" x2="97.1353" y2="32.7932" gradientUnits="userSpaceOnUse">
<stop stop-color="#00B0B2"/>
<stop offset="0.33" stop-color="#058AB3"/>
<stop offset="0.51" stop-color="#077BB4"/>
<stop offset="0.59" stop-color="#1276B2"/>
<stop offset="0.73" stop-color="#2F6AAC"/>
<stop offset="0.91" stop-color="#5D56A3"/>
<stop offset="1" stop-color="#754C9E"/>
</linearGradient>
<linearGradient id="paint3_linear_1150_14830" x1="92.7429" y1="2.86767" x2="92.7429" y2="32.8285" gradientUnits="userSpaceOnUse">
<stop stop-color="#00B0B2"/>
<stop offset="0.33" stop-color="#058AB3"/>
<stop offset="0.51" stop-color="#077BB4"/>
<stop offset="0.59" stop-color="#1276B2"/>
<stop offset="0.73" stop-color="#2F6AAC"/>
<stop offset="0.91" stop-color="#5D56A3"/>
<stop offset="1" stop-color="#754C9E"/>
</linearGradient>
<linearGradient id="paint4_linear_1150_14830" x1="101.491" y1="2.87177" x2="101.491" y2="32.7867" gradientUnits="userSpaceOnUse">
<stop stop-color="#00B0B2"/>
<stop offset="0.33" stop-color="#058AB3"/>
<stop offset="0.51" stop-color="#077BB4"/>
<stop offset="0.59" stop-color="#1276B2"/>
<stop offset="0.73" stop-color="#2F6AAC"/>
<stop offset="0.91" stop-color="#5D56A3"/>
<stop offset="1" stop-color="#754C9E"/>
</linearGradient>
<linearGradient id="paint5_linear_1150_14830" x1="103.863" y1="3.41236" x2="103.863" y2="31.4897" gradientUnits="userSpaceOnUse">
<stop stop-color="#00B0B2"/>
<stop offset="0.33" stop-color="#058AB3"/>
<stop offset="0.51" stop-color="#077BB4"/>
<stop offset="0.59" stop-color="#1276B2"/>
<stop offset="0.73" stop-color="#2F6AAC"/>
<stop offset="0.91" stop-color="#5D56A3"/>
<stop offset="1" stop-color="#754C9E"/>
</linearGradient>
<linearGradient id="paint6_linear_1150_14830" x1="100.909" y1="2.93106" x2="100.909" y2="31.5743" gradientUnits="userSpaceOnUse">
<stop stop-color="#00B0B2"/>
<stop offset="0.33" stop-color="#058AB3"/>
<stop offset="0.51" stop-color="#077BB4"/>
<stop offset="0.59" stop-color="#1276B2"/>
<stop offset="0.73" stop-color="#2F6AAC"/>
<stop offset="0.91" stop-color="#5D56A3"/>
<stop offset="1" stop-color="#754C9E"/>
</linearGradient>
<linearGradient id="paint7_linear_1150_14830" x1="105.311" y1="2.846" x2="105.311" y2="32.8067" gradientUnits="userSpaceOnUse">
<stop stop-color="#00B0B2"/>
<stop offset="0.33" stop-color="#058AB3"/>
<stop offset="0.51" stop-color="#077BB4"/>
<stop offset="0.59" stop-color="#1276B2"/>
<stop offset="0.73" stop-color="#2F6AAC"/>
<stop offset="0.91" stop-color="#5D56A3"/>
<stop offset="1" stop-color="#754C9E"/>
</linearGradient>
<linearGradient id="paint8_linear_1150_14830" x1="96.5506" y1="2.1106" x2="96.5506" y2="32.0256" gradientUnits="userSpaceOnUse">
<stop stop-color="#00B0B2"/>
<stop offset="0.33" stop-color="#058AB3"/>
<stop offset="0.51" stop-color="#077BB4"/>
<stop offset="0.59" stop-color="#1276B2"/>
<stop offset="0.73" stop-color="#2F6AAC"/>
<stop offset="0.91" stop-color="#5D56A3"/>
<stop offset="1" stop-color="#754C9E"/>
</linearGradient>
<linearGradient id="paint9_linear_1150_14830" x1="107.333" y1="2.87361" x2="107.333" y2="32.7886" gradientUnits="userSpaceOnUse">
<stop stop-color="#00B0B2"/>
<stop offset="0.33" stop-color="#058AB3"/>
<stop offset="0.51" stop-color="#077BB4"/>
<stop offset="0.59" stop-color="#1276B2"/>
<stop offset="0.73" stop-color="#2F6AAC"/>
<stop offset="0.91" stop-color="#5D56A3"/>
<stop offset="1" stop-color="#754C9E"/>
</linearGradient>
<linearGradient id="paint10_linear_1150_14830" x1="96.2787" y1="2.35759" x2="96.2787" y2="32.2717" gradientUnits="userSpaceOnUse">
<stop stop-color="#00B0B2"/>
<stop offset="0.33" stop-color="#058AB3"/>
<stop offset="0.51" stop-color="#077BB4"/>
<stop offset="0.59" stop-color="#1276B2"/>
<stop offset="0.73" stop-color="#2F6AAC"/>
<stop offset="0.91" stop-color="#5D56A3"/>
<stop offset="1" stop-color="#754C9E"/>
</linearGradient>
<linearGradient id="paint11_linear_1150_14830" x1="103.832" y1="2.36331" x2="103.832" y2="32.2784" gradientUnits="userSpaceOnUse">
<stop stop-color="#00B0B2"/>
<stop offset="0.33" stop-color="#058AB3"/>
<stop offset="0.51" stop-color="#077BB4"/>
<stop offset="0.59" stop-color="#1276B2"/>
<stop offset="0.73" stop-color="#2F6AAC"/>
<stop offset="0.91" stop-color="#5D56A3"/>
<stop offset="1" stop-color="#754C9E"/>
</linearGradient>
<linearGradient id="paint12_linear_1150_14830" x1="673.591" y1="2.36851" x2="673.591" y2="32.2796" gradientUnits="userSpaceOnUse">
<stop stop-color="#00B0B2"/>
<stop offset="0.33" stop-color="#058AB3"/>
<stop offset="0.51" stop-color="#077BB4"/>
<stop offset="0.59" stop-color="#1276B2"/>
<stop offset="0.73" stop-color="#2F6AAC"/>
<stop offset="0.91" stop-color="#5D56A3"/>
<stop offset="1" stop-color="#754C9E"/>
</linearGradient>
<linearGradient id="paint13_linear_1150_14830" x1="681.153" y1="2.36356" x2="681.153" y2="32.2786" gradientUnits="userSpaceOnUse">
<stop stop-color="#00B0B2"/>
<stop offset="0.33" stop-color="#058AB3"/>
<stop offset="0.51" stop-color="#077BB4"/>
<stop offset="0.59" stop-color="#1276B2"/>
<stop offset="0.73" stop-color="#2F6AAC"/>
<stop offset="0.91" stop-color="#5D56A3"/>
<stop offset="1" stop-color="#754C9E"/>
</linearGradient>
<clipPath id="clip0_1150_14830">
<rect width="110" height="33" fill="white" transform="translate(0 0.5)"/>
</clipPath>
</defs>
</svg>
