<svg width="16" height="16" viewBox="0 0 16 16" fill="none" xmlns="http://www.w3.org/2000/svg">
<g id="elements">
<g id="Icon">
<path d="M11.0349 6.33778C11.2215 6.13422 11.2078 5.81794 11.0042 5.63134C10.8006 5.44475 10.4844 5.4585 10.2978 5.66206L6.98397 9.27711L5.68656 7.9797C5.4913 7.78444 5.17472 7.78444 4.97945 7.9797C4.78419 8.17496 4.78419 8.49155 4.97945 8.68681L6.64612 10.3535C6.74255 10.4499 6.87419 10.5028 7.01054 10.4998C7.14688 10.4968 7.2761 10.4383 7.36825 10.3378L11.0349 6.33778Z" fill="#1B8354"/>
<path fill-rule="evenodd" clip-rule="evenodd" d="M7.99967 15.1666C4.04163 15.1666 0.833008 11.958 0.833008 7.99992C0.833008 4.04188 4.04163 0.833252 7.99967 0.833252C11.9577 0.833252 15.1663 4.04188 15.1663 7.99992C15.1663 11.958 11.9577 15.1666 7.99967 15.1666ZM1.83301 7.99992C1.83301 11.4057 4.59392 14.1666 7.99967 14.1666C11.4054 14.1666 14.1663 11.4057 14.1663 7.99992C14.1663 4.59416 11.4054 1.83325 7.99967 1.83325C4.59392 1.83325 1.83301 4.59416 1.83301 7.99992Z" fill="#1B8354"/>
</g>
</g>
</svg>
