<svg width="65" height="32" viewBox="0 0 65 32" fill="none" xmlns="http://www.w3.org/2000/svg">
<g id="Saudi_Vision_2030_logo 1" clip-path="url(#clip0_249_2319)">
<g id="Group">
<g id="Group_2">
<path id="Vector" d="M46.4415 24.119V24.1654C46.4415 27.2294 44.1511 29.481 40.429 29.481C37.4229 29.481 35.3472 28.3203 33.9159 26.6723L36.445 24.3277C37.59 25.5814 38.783 26.2774 40.4769 26.2774C41.8607 26.2774 42.8389 25.5117 42.8389 24.3046C42.8206 24.2726 43.1088 22.1926 39.5702 22.1926H38.0434L37.4705 19.9174L42.8281 14.6742L40.6811 16.0182H34.8942V12.9546H46.1789V15.647L41.9562 19.5696C44.2226 19.9411 46.4415 21.1014 46.4415 24.119ZM35.9677 5.5248C35.9677 4.05376 37.0516 2.86976 38.5729 2.86976H40.2872L39.8384 3.08768C39.8588 7.11968 39.7564 7.62752 40.021 8.21696L38.5919 8.21664C37.0707 8.21664 35.9677 7.01408 35.9677 5.54336V5.5248ZM38.5729 8.89216H40.0951V8.35872C40.2061 8.54624 40.3555 8.69184 40.5758 8.7936C41.06 9.0176 40.708 8.8768 54.5944 8.9184V2.19456H53.862V8.20576C53.862 8.20576 41.1647 8.25344 40.9234 8.14784C40.714 8.056 40.6378 7.84608 40.603 7.6224C40.5475 7.2592 40.5813 7.25248 40.5712 2.19456H38.5919C36.5668 2.19456 35.188 3.75776 35.188 5.54336V5.56192C35.188 7.3472 36.5477 8.89216 38.5729 8.89216ZM59.9924 1.4816H58.3877C58.4225 0.96448 58.177 0 59.258 0H59.7747V0.49664C59.2744 0.5328 58.9865 0.37792 58.9865 0.76736V0.93216H59.9924V1.4816ZM61.8472 8.99104C61.6518 8.99104 61.4532 8.96448 61.252 8.91072L61.4444 8.22496C61.7756 8.3168 62.1991 8.32224 62.3737 8.0336C62.5776 7.69184 62.5047 7.57152 62.5156 2.19456H63.2479C63.2269 7.21376 63.2985 7.35392 63.1793 7.93568C63.0388 8.61632 62.6153 8.99104 61.8472 8.99104ZM40.5712 1.4816H39.8384V0.76896H40.5712V1.4816ZM56.6918 3.94048C57.0355 3.288 57.7571 2.9248 58.4947 2.91712V2.91584H59.6782L59.26 3.11904V6.31904C58.6835 6.3024 58.2784 6.37248 57.7446 6.20736C57.0158 5.984 56.5221 5.43744 56.5221 4.64416C56.5221 4.38912 56.5786 4.15424 56.6918 3.94048ZM56.6918 6.46592C57.6455 7.12832 58.9458 7.01888 59.0138 7.03136L59.26 6.52864C59.2202 7.016 59.3975 7.69696 58.9304 8.03808C58.5354 8.32576 57.8313 8.31648 57.3966 8.216C57.2167 8.17472 57.0106 8.10336 56.7785 8.00256L56.5497 8.68832C57.0139 8.85504 57.4577 8.99104 57.9505 8.99104C58.6648 8.99104 59.1835 8.82624 59.5072 8.49696C59.8305 8.16704 59.9924 7.7232 59.9924 7.16512V2.19456C59.0909 2.22208 58.4071 2.10592 57.5844 2.38176C55.38 3.12064 55.336 5.52512 56.6918 6.46592ZM39.106 1.4816H38.3733V0.76896H39.106V1.4816ZM31.5243 2.18688H32.2807V8.8784H31.6616L26.7902 2.85952L27.2209 3.83488V8.8784H26.4642V2.18688H27.1913L31.8431 7.94368L31.5243 7.12256V2.18688ZM2.9575 8.92608L0 2.18688H0.864697C0.908687 2.29056 3.26576 7.84416 3.50475 8.40736L3.4299 7.672L5.7676 2.18688H6.60242L3.64525 8.92608H2.9575ZM16.0635 2.18688H16.8396V8.87808H16.0635V2.18688ZM24.3881 5.55168C24.3881 7.07168 23.2684 8.29504 21.6962 8.29504C20.1241 8.29504 18.9843 7.05248 18.9843 5.5328V5.51328C18.9843 3.9936 20.1047 2.77024 21.6765 2.77024C23.2487 2.77024 24.3881 4.0128 24.3881 5.5328V5.55168ZM21.6962 2.07232C19.6034 2.07232 18.1787 3.68768 18.1787 5.5328V5.55168C18.1787 7.39648 19.5837 8.99296 21.6765 8.99296C23.7693 8.99296 25.1941 7.3776 25.1941 5.5328V5.51328C25.1941 3.6688 23.789 2.07232 21.6962 2.07232ZM14.7829 7.06208V7.08096C14.7829 8.22784 13.8004 8.97376 12.4347 8.97376C11.3441 8.97376 10.4502 8.62016 9.62492 7.90304L10.1062 7.3488C10.8235 7.97952 11.5112 8.29472 12.4646 8.29472C13.388 8.29472 13.997 7.81728 13.997 7.15744V7.13856C13.997 5.27104 9.90002 6.50304 9.90002 3.936V3.91712C9.90002 2.8656 10.853 2.0912 12.1599 2.0912C13.1618 2.0912 13.8791 2.36864 14.5767 2.9136L14.125 3.49632C12.5657 2.25984 10.6761 2.73344 10.6761 3.85024V3.86944C10.6761 4.50016 11.0296 4.85376 12.543 5.16928C14.0758 5.4944 14.7829 6.03936 14.7829 7.06208ZM8.43293 8.8784H7.65687V2.1872H8.43293V8.8784ZM53.6063 9.63072H54.339V10.3434H53.6063V9.63072ZM52.1412 9.63072H52.8739V10.3434H52.1412V9.63072ZM6.14217 26.1149H12.5102V29.2026H0.151338V26.3706C6.32667 21.2621 8.5974 20.2637 8.5974 18.0378C8.5974 16.6682 7.66672 15.9254 6.35457 15.9254C5.06606 15.9254 4.18331 16.6214 2.94273 18.1069L0.366035 16.088C2.01237 13.9059 3.61111 12.7219 6.59323 12.7219C10.0527 12.7219 12.3431 14.695 12.3431 17.736V17.7821C12.3431 21.5952 9.38167 22.8243 4.30346 26.8134L3.59437 27.3459L6.14217 26.1149ZM61.2986 21.1248C61.2986 23.9101 59.2468 26.185 56.288 26.185C53.3295 26.185 51.2302 23.8637 51.2302 21.0781V21.0317C51.2302 18.2464 53.2823 15.9718 56.2404 15.9718C59.1986 15.9718 61.2986 18.2931 61.2986 21.0781V21.1248ZM56.288 12.6758C51.135 12.6758 47.3889 16.4592 47.3889 21.0781V21.1248C47.3889 25.744 51.0867 29.481 56.2404 29.481C61.3941 29.481 65.1395 25.6973 65.1395 21.0781V21.0317C65.1395 16.4128 61.4414 12.6758 56.288 12.6758Z" fill="#1B8354"/>
<path id="Vector_2" d="M22.4934 11.6069L23.3394 12.3967L22.5275 13.2194L21.6819 12.4297" fill="#29367B"/>
<path id="Vector_3" d="M24.4292 12.4297L25.2745 13.2194L26.0864 12.3967L25.2407 11.6069" fill="#B1AEB3"/>
<path id="Vector_4" d="M23.238 13.4668L23.8969 14.0815L24.5285 13.4409L23.8703 12.8262" fill="#D0DA33"/>
<path id="Vector_5" d="M25.6526 13.8186L26.3111 14.4337L26.9427 13.793L26.2842 13.178" fill="#71BA44"/>
<path id="Vector_6" d="M22.1614 14.4463L22.8199 15.0613L23.4515 14.4207L22.7936 13.8057" fill="#D0DA33"/>
<path id="Vector_7" d="M24.3711 14.521L25.0293 15.1361L25.6612 14.4954L25.0027 13.8804" fill="#27B8BE"/>
<path id="Vector_8" d="M23.5066 15.258L23.9698 15.6906L24.4143 15.2398L23.9511 14.8071" fill="#71BA44"/>
<path id="Vector_9" d="M25.2542 15.5975L25.7174 16.0302L26.1622 15.5793L25.699 15.147" fill="#58B75E"/>
<path id="Vector_10" d="M29.0706 12.1694L30.5075 11.9126L30.7704 13.3108L29.3335 13.5676L29.0706 12.1694Z" fill="#3088C8"/>
<path id="Vector_11" d="M27.1951 12.7554L28.3479 12.5496L28.5586 13.6714L27.4058 13.8772L27.1951 12.7554Z" fill="#1E3871"/>
<path id="Vector_12" d="M29.4236 14.3184L30.5763 14.1123L30.7873 15.2341L29.6346 15.4401L29.4236 14.3184Z" fill="#27B8BE"/>
<path id="Vector_13" d="M27.834 14.4829L28.7317 14.3226L28.8958 15.1957L27.9981 15.3561L27.834 14.4829Z" fill="#D0DA33"/>
<path id="Vector_14" d="M29.5803 16.1421L30.478 15.9818L30.6422 16.8552L29.7445 17.0156L29.5803 16.1421Z" fill="#B1AEB3"/>
<path id="Vector_15" d="M26.4888 14.8379L27.3868 14.6775L27.5509 15.551L26.6529 15.7114L26.4888 14.8379Z" fill="#27B8BE"/>
<path id="Vector_16" d="M28.1182 15.9822L29.0159 15.8219L29.18 16.6953L28.2823 16.8556L28.1182 15.9822Z" fill="#71BA44"/>
<path id="Vector_17" d="M26.9741 16.0876L27.6057 15.9748L27.7213 16.5892L27.0897 16.702L26.9741 16.0876Z" fill="#B1AEB3"/>
<path id="Vector_18" d="M28.1875 17.3579L28.8188 17.2454L28.934 17.8595L28.3027 17.9721L28.1875 17.3579Z" fill="#58B75E"/>
<path id="Vector_19" d="M33.3443 16.7495L32.7163 18.0334L34.036 18.6439L34.6634 17.3604" fill="#29367B"/>
<path id="Vector_20" d="M31.4716 16.1565L30.968 17.1863L32.0264 17.6762L32.53 16.6464" fill="#27B8BE"/>
<path id="Vector_21" d="M32.3376 18.6931L31.834 19.7232L32.8927 20.2128L33.3963 19.183" fill="#71BA44"/>
<path id="Vector_22" d="M30.9506 17.9207L30.5586 18.7226L31.3829 19.104L31.7752 18.3021" fill="#D0DA33"/>
<path id="Vector_23" d="M31.3691 20.2607L30.9768 21.0627L31.8008 21.4441L32.1934 20.6422" fill="#D0DA33"/>
<path id="Vector_24" d="M29.646 17.4431L29.2537 18.245L30.078 18.6265L30.4703 17.8246" fill="#3088C8"/>
<path id="Vector_25" d="M30.2797 19.2986L29.8875 20.1005L30.7114 20.4819L31.1041 19.68" fill="#B1AEB3"/>
<path id="Vector_26" d="M29.2883 18.7332L29.0122 19.2973L29.592 19.5655L29.868 19.0016" fill="#71BA44"/>
<path id="Vector_27" d="M29.2317 21.0156L29.507 20.4516L30.0866 20.7204L29.8112 21.2844L29.2317 21.0156Z" fill="#27B8BE"/>
<path id="Vector_28" d="M34.0551 22.8962L32.7742 23.5798L33.477 24.8262L34.758 24.1426" fill="#3088C8"/>
<path id="Vector_29" d="M32.8932 21.3494L31.8657 21.8978L32.4294 22.8975L33.4569 22.349" fill="#27B8BE"/>
<path id="Vector_30" d="M32.0703 23.8994L31.0425 24.4479L31.6065 25.4479L32.634 24.8994" fill="#27B8BE"/>
<path id="Vector_31" d="M31.4099 22.4834L30.6099 22.9106L31.0485 23.6888L31.8491 23.262" fill="#29367B"/>
<path id="Vector_32" d="M30.3419 24.6196L29.5415 25.0468L29.9804 25.8251L30.7808 25.3982" fill="#58B75E"/>
<path id="Vector_33" d="M30.639 21.354L29.8386 21.7809L30.2775 22.5598L31.0782 22.1326" fill="#1E3871"/>
<path id="Vector_34" d="M30.0372 23.2192L29.2368 23.6464L29.6757 24.4247L30.4761 23.9978" fill="#D0DA33"/>
<path id="Vector_35" d="M29.573 22.1965L29.01 22.497L29.3189 23.0445L29.8816 22.7444" fill="#B1AEB3"/>
<path id="Vector_36" d="M28.7166 23.7166L28.1536 24.017L28.4621 24.5646L29.0252 24.2644" fill="#27B8BE"/>
<path id="Vector_37" d="M29.3044 29.5176L29.4833 28.1065L30.9334 28.2812L30.7546 29.6922L29.3044 29.5176Z" fill="#71BA44"/>
<path id="Vector_38" d="M29.6172 27.3625L29.7611 26.2307L30.9242 26.3712L30.7803 27.5031L29.6172 27.3625Z" fill="#1E3871"/>
<path id="Vector_39" d="M27.4155 28.9622L27.5594 27.8303L28.7228 27.9709L28.5789 29.1027L27.4155 28.9622Z" fill="#27B8BE"/>
<path id="Vector_40" d="M28.0217 27.2212L28.1335 26.3399L29.0392 26.4491L28.9275 27.3303L28.0217 27.2212Z" fill="#71BA44"/>
<path id="Vector_41" d="M25.8701 28.3447L25.9819 27.4634L26.8876 27.5726L26.7758 28.4539L25.8701 28.3447Z" fill="#B1AEB3"/>
<path id="Vector_42" d="M28.075 25.8638L28.187 24.9822L29.0931 25.0916L28.981 25.9732L28.075 25.8638Z" fill="#B1AEB3"/>
<path id="Vector_43" d="M26.4653 27.0332L26.5774 26.1519L27.4834 26.2614L27.3714 27.1427L26.4653 27.0332Z" fill="#71BA44"/>
<path id="Vector_44" d="M27.0068 25.7131L27.0855 25.0932L27.7225 25.17L27.6438 25.79L27.0068 25.7131Z" fill="#B1AEB3"/>
<path id="Vector_45" d="M25.3965 26.457L25.4751 25.8371L26.1124 25.9139L26.0338 26.5338L25.3965 26.457Z" fill="#B1AEB3"/>
<path id="Vector_46" d="M25.1635 30.8807L24.0927 29.9133L23.0986 30.9553L24.1695 31.9223" fill="#D0DA33"/>
<path id="Vector_47" d="M24.9663 10.9693L23.8954 10.002L22.9014 11.0439L23.9722 12.0109" fill="#71BA44"/>
<path id="Vector_48" d="M26.3062 29.3199L25.4471 28.5439L24.6497 29.3798L25.5088 30.1555" fill="#27B8BE"/>
<path id="Vector_49" d="M23.5592 29.3644L22.6997 28.5884L21.9023 29.4242L22.7615 30.1999" fill="#71BA44"/>
<path id="Vector_50" d="M24.732 28.3083L24.0629 27.7041L23.4421 28.3547L24.1109 28.9588" fill="#3088C8"/>
<path id="Vector_51" d="M22.3117 27.9955L21.643 27.3914L21.0222 28.0419L21.6913 28.6464" fill="#D0DA33"/>
<path id="Vector_52" d="M25.5908 27.2404L24.9218 26.6362L24.301 27.2868L24.9697 27.8909" fill="#D0DA33"/>
<path id="Vector_53" d="M23.5816 27.2726L22.9125 26.6685L22.2917 27.319L22.9605 27.9232" fill="#B1AEB3"/>
<path id="Vector_54" d="M24.4327 26.522L23.9622 26.0967L23.5256 26.5546L23.9961 26.9796" fill="#1E3871"/>
<path id="Vector_55" d="M22.6801 26.2104L22.2096 25.7854L21.7727 26.243L22.2431 26.668" fill="#B1AEB3"/>
<path id="Vector_56" d="M17.2031 28.5852L18.6358 28.3053L18.9224 29.699L17.4897 29.9789L17.2031 28.5852Z" fill="#3088C8"/>
<path id="Vector_57" d="M19.4084 28.1892L20.5576 27.9647L20.7875 29.083L19.6384 29.3075L19.4084 28.1892Z" fill="#27B8BE"/>
<path id="Vector_58" d="M17.155 26.6614L18.3041 26.4367L18.5342 27.5549L17.3852 27.7796L17.155 26.6614Z" fill="#71BA44"/>
<path id="Vector_59" d="M19.0454 26.6707L19.9402 26.4958L20.1193 27.3665L19.2244 27.5413L19.0454 26.6707Z" fill="#D0DA33"/>
<path id="Vector_60" d="M20.384 26.2935L21.2789 26.1186L21.4579 26.9896L20.5631 27.1645L20.384 26.2935Z" fill="#29367B"/>
<path id="Vector_61" d="M18.7351 25.176L19.6299 25.0012L19.809 25.8719L18.9141 26.0467L18.7351 25.176Z" fill="#3088C8"/>
<path id="Vector_62" d="M20.1956 25.26L20.8252 25.1372L20.9509 25.7497L20.3213 25.8725L20.1956 25.26Z" fill="#71BA44"/>
<path id="Vector_63" d="M18.9617 24.0088L19.5909 23.8857L19.717 24.4982L19.0877 24.6212L18.9617 24.0088Z" fill="#B1AEB3"/>
<path id="Vector_64" d="M14.5718 25.1888L15.1775 23.8953L13.8476 23.3059L13.2419 24.5993" fill="#27B8BE"/>
<path id="Vector_65" d="M16.4541 25.7516L16.94 24.7139L15.8734 24.2412L15.3872 25.279" fill="#D0DA33"/>
<path id="Vector_66" d="M15.5446 23.2295L16.0308 22.1917L14.9639 21.7188L14.478 22.7568" fill="#3088C8"/>
<path id="Vector_67" d="M16.1138 23.6123L16.4919 22.8041L17.322 23.1731L16.9438 23.9813L16.1138 23.6123Z" fill="#27B8BE"/>
<path id="Vector_68" d="M18.0561 25.9997L18.4347 25.1917L17.6041 24.8237L17.2256 25.6317" fill="#B1AEB3"/>
<path id="Vector_69" d="M15.6575 21.2783L16.0358 20.4702L16.8657 20.8393L16.4875 21.6475L15.6575 21.2783Z" fill="#29367B"/>
<path id="Vector_70" d="M17.428 24.0674L17.8063 23.2592L18.6363 23.6284L18.258 24.4365L17.428 24.0674Z" fill="#58B75E"/>
<path id="Vector_71" d="M16.762 22.2241L17.1405 21.4161L17.9704 21.7855L17.5918 22.5935L16.762 22.2241Z" fill="#D0DA33"/>
<path id="Vector_72" d="M18.5929 23.1398L18.8591 22.5715L18.2748 22.3123L18.0085 22.8809" fill="#1E3871"/>
<path id="Vector_73" d="M18.3441 21.4235L18.6103 20.8548L18.026 20.5959L17.7598 21.1646" fill="#71BA44"/>
<path id="Vector_74" d="M13.7556 19.0541L15.0251 18.3501L14.3009 17.1152L13.0317 17.8192" fill="#27B8BE"/>
<path id="Vector_75" d="M14.944 20.5824L15.9623 20.0176L15.3813 19.0269L14.3633 19.592" fill="#71BA44"/>
<path id="Vector_76" d="M15.7238 18.0192L16.7421 17.4544L16.1611 16.4634L15.1431 17.0285" fill="#1E3871"/>
<path id="Vector_77" d="M16.4082 19.4243L17.2007 18.9843L16.7486 18.2131L15.9558 18.6528" fill="#3088C8"/>
<path id="Vector_78" d="M17.4397 17.2717L18.2322 16.8317L17.7801 16.0605L16.9873 16.5002" fill="#71BA44"/>
<path id="Vector_79" d="M17.1977 20.5415L17.9908 20.1018L17.5387 19.3303L16.7456 19.7703" fill="#27B8BE"/>
<path id="Vector_80" d="M17.768 18.6668L18.5608 18.2271L18.1087 17.4556L17.3159 17.8956" fill="#D0DA33"/>
<path id="Vector_81" d="M18.2495 19.6819L18.8073 19.3725L18.4891 18.8301L17.9314 19.1392" fill="#B1AEB3"/>
<path id="Vector_82" d="M19.0798 18.1482L19.6379 17.8388L19.3198 17.2964L18.7617 17.6058" fill="#71BA44"/>
<path id="Vector_83" d="M16.7844 13.6162L16.9394 12.2028L18.392 12.3542L18.237 13.7676L16.7844 13.6162Z" fill="#71BA44"/>
<path id="Vector_84" d="M16.8279 15.531L16.9523 14.3973L18.118 14.5189L17.9935 15.6526L16.8279 15.531Z" fill="#B1AEB3"/>
<path id="Vector_85" d="M19.0015 13.8962L19.126 12.7622L20.2916 12.8838L20.1671 14.0178L19.0015 13.8962Z" fill="#27B8BE"/>
<path id="Vector_86" d="M18.7126 15.4263L18.8097 14.5433L19.7171 14.6381L19.6201 15.521L18.7126 15.4263Z" fill="#D0DA33"/>
<path id="Vector_87" d="M20.842 14.2646L20.9387 13.3817L21.8462 13.476L21.7495 14.359L20.842 14.2646Z" fill="#3088C8"/>
<path id="Vector_88" d="M18.6804 16.7815L18.7774 15.8985L19.6849 15.9933L19.5879 16.8762L18.6804 16.7815Z" fill="#27B8BE"/>
<path id="Vector_89" d="M20.2708 15.585L20.3678 14.702L21.2752 14.7968L21.1782 15.6797L20.2708 15.585Z" fill="#71BA44"/>
<path id="Vector_90" d="M20.05 16.6826L20.1182 16.0615L20.7567 16.1281L20.6885 16.7492L20.05 16.6826Z" fill="#1E3871"/>
<path id="Vector_91" d="M21.6472 15.9111L21.715 15.29L22.3539 15.3563L22.2861 15.9774L21.6472 15.9111Z" fill="#B1AEB3"/>
<path id="Vector_92" d="M28.5413 21.8352C27.7764 21.4058 26.7121 21.281 25.6094 21.6746C25.1275 21.8522 24.6449 22.1622 24.2379 22.4659C23.9815 20.9507 24.1065 19.5443 24.1663 18.8534C24.1666 18.8496 24.1712 18.8477 24.1748 18.8499C24.7254 19.1875 24.5711 20.1309 24.4555 20.4006C24.4532 20.4061 24.4614 20.4096 24.4654 20.4051C25.1515 19.6154 24.8163 18.7434 24.6755 18.5226C24.6499 18.4826 24.8051 18.6038 24.9325 18.7629C25.4121 19.3581 25.1905 20.0266 25.2441 20.0109C25.2454 20.0106 25.247 20.0109 25.2477 20.0093C25.5664 19.3997 25.464 18.6266 24.8084 18.0682C24.7785 18.0435 24.8954 18.0806 24.9325 18.0934C25.4916 18.2826 25.7831 18.8438 25.7792 19.3443C25.7792 19.4544 26.1567 18.4042 25.2441 17.8704C25.0733 17.7709 24.898 17.7162 24.7835 17.7027C24.6942 17.6934 25.2723 17.6086 25.6784 17.8768C25.9223 18.0371 25.9863 18.231 25.9801 18.1766C25.9092 17.4736 25.0589 17.1958 24.5435 17.4067C24.489 17.4333 24.7464 17.0614 25.2441 17.0902C25.3399 17.0957 25.4285 17.1158 25.4995 17.1488C25.5044 17.151 25.509 17.1446 25.5054 17.1405C25.1295 16.7216 24.511 16.713 24.1827 17.1974C24.1804 17.2006 24.1755 17.2006 24.1735 17.1974C24.0491 16.9802 23.945 16.7021 23.9001 16.4397C23.8892 16.3725 23.8662 16.7645 23.6168 17.1974C23.6148 17.2006 23.6102 17.2006 23.6079 17.1974C23.2786 16.7117 22.6608 16.7213 22.2852 17.1405C22.2813 17.1446 22.2859 17.151 22.2911 17.1488C22.542 17.0326 23.0157 17.0669 23.253 17.3987C23.256 17.4032 23.2517 17.409 23.2464 17.4067C22.7153 17.1891 21.8808 17.4845 21.8102 18.1766C21.8099 18.1824 21.8178 18.1856 21.8207 18.1805C21.8444 18.1373 21.9028 18.0451 22.0121 17.9517C22.4369 17.5869 23.105 17.6925 23.0068 17.7027C22.7458 17.7341 22.2101 17.9606 22.0121 18.4784C21.8503 18.9014 22.0062 19.4586 22.0121 19.3206C22.0174 18.8499 22.2941 18.2195 22.9773 18.0589C22.9825 18.0576 22.9865 18.0646 22.9822 18.0682C21.9205 18.9779 22.5626 20.095 22.5528 20.0067C22.52 19.6461 22.4927 19.0022 23.1063 18.5162C23.1109 18.5126 23.1181 18.5174 23.1148 18.5226C22.974 18.7434 22.6391 19.6154 23.3249 20.4051C23.3288 20.4096 23.3371 20.4061 23.3348 20.4006C23.2195 20.1309 23.0652 19.1875 23.6154 18.8499C23.619 18.8477 23.6236 18.8496 23.624 18.8534C23.684 19.5443 23.8091 20.9507 23.5524 22.4659C22.6805 21.8163 21.822 21.3904 20.7164 21.4378C20.1603 21.4614 19.6327 21.6192 19.2489 21.8352C19.2352 21.8429 19.2453 21.8624 19.2601 21.8579C20.8684 21.3568 22.2603 21.9648 23.5544 23.0144C22.9008 23.5696 22.3076 24.1507 21.9629 24.3261C21.8824 24.2189 21.7429 24.1571 21.5903 24.1894C21.3027 24.2512 21.2341 24.6022 21.39 24.7533C21.955 25.3027 22.8384 24.2125 23.8951 23.3011C24.9122 24.1773 25.8363 25.3024 26.4003 24.7533C26.4452 24.7094 26.4974 24.5648 26.4705 24.4499C26.4026 24.1632 26.0116 24.0803 25.8274 24.3261C25.4958 24.1632 24.9138 23.5898 24.2359 23.0144C25.5392 21.9555 26.916 21.3645 28.5298 21.8579C28.5449 21.8624 28.5551 21.8429 28.5413 21.8352Z" fill="#727A82"/>
</g>
</g>
</g>
<defs>
<clipPath id="clip0_249_2319">
<rect width="65" height="32" fill="white"/>
</clipPath>
</defs>
</svg>
