<svg width="18" height="18" viewBox="0 0 18 18" fill="none" xmlns="http://www.w3.org/2000/svg">
<g id="elements">
<g id="Icon">
<path d="M0.0410156 8.99996C0.0410156 13.94 4.05935 17.9583 8.99935 17.9583L9.00016 17.9591C13.9402 17.9591 17.9585 13.9408 17.9585 9.00077C17.9585 8.39827 17.8985 7.79579 17.7793 7.20996C17.711 6.87163 17.381 6.65331 17.0427 6.72164C16.7043 6.78997 16.486 7.11996 16.5544 7.45829C16.6569 7.96246 16.7085 8.48161 16.7085 9.00077C16.7085 13.2508 13.2502 16.7091 9.00016 16.7091C4.75016 16.7091 1.29183 13.2508 1.29183 9.00077C1.29183 4.75077 4.75016 1.29244 9.00016 1.29244C10.3552 1.29244 11.6877 1.64912 12.8535 2.32328C13.1527 2.49578 13.5352 2.39414 13.7077 2.09497C13.8802 1.7958 13.7785 1.4133 13.4793 1.2408C12.1227 0.456637 10.5743 0.041626 8.99935 0.041626C4.05935 0.041626 0.0410156 4.05996 0.0410156 8.99996Z" fill="#161616"/>
<path d="M7.99417 12.635C8.17599 12.9575 8.49705 12.9583 8.71825 12.9583L8.71908 12.9575H8.72319C8.94604 12.9558 9.15079 12.8325 9.25852 12.635C9.26838 12.6158 10.3851 10.7845 11.8924 8.74121C13.9746 6.09485 16.0088 4.33409 17.5555 3.75243C17.8746 3.63243 18.0374 3.27246 17.919 2.94912C17.8006 2.62579 17.4454 2.4608 17.1263 2.5808C13.7194 3.86163 9.96819 9.00329 8.70181 11.1225C7.22656 8.9158 6.07694 8.79161 5.84011 8.79161C5.84011 8.79161 5.30023 8.79161 5.23251 9.33545C5.14527 10.0361 5.84011 10.0514 5.84011 10.0514C5.84011 10.0325 6.6143 10.1875 7.99417 12.635Z" fill="#161616"/>
</g>
</g>
</svg>
