<svg width="18" height="16" viewBox="0 0 18 16" fill="none" xmlns="http://www.w3.org/2000/svg">
<g id="elements">
<path id="Icon" fill-rule="evenodd" clip-rule="evenodd" d="M11.4332 0.322297C9.80565 0.281404 8.19403 0.281402 6.56649 0.322292L6.51802 0.323509C5.24733 0.355414 4.22485 0.381086 3.40542 0.523794C2.5475 0.673203 1.85024 0.959768 1.26118 1.55106C0.674599 2.13988 0.389537 2.82712 0.24297 3.67113C0.103412 4.47477 0.0821566 5.4723 0.0558263 6.708L0.054783 6.75695C0.0370772 7.58724 0.0370775 8.41268 0.0547842 9.24297L0.0558275 9.29192C0.0821588 10.5276 0.103415 11.5251 0.242973 12.3288C0.389541 13.1728 0.674603 13.86 1.26119 14.4489C1.85024 15.0402 2.54751 15.3267 3.40542 15.4761C4.22484 15.6188 5.24731 15.6445 6.51798 15.6764L6.5665 15.6776C8.19403 15.7185 9.80565 15.7185 11.4332 15.6776L11.4817 15.6764C12.7524 15.6445 13.7748 15.6188 14.5943 15.4761C15.4522 15.3267 16.1494 15.0402 16.7385 14.4489C17.3251 13.86 17.6101 13.1728 17.7567 12.3288C17.8963 11.5251 17.9175 10.5276 17.9439 9.29191L17.9449 9.24297C17.9626 8.41269 17.9626 7.58725 17.9449 6.75696L17.9439 6.70802C17.9175 5.47231 17.8963 4.47479 17.7567 3.67114C17.6101 2.82714 17.3251 2.13989 16.7385 1.55108C16.1494 0.959782 15.4522 0.673217 14.5943 0.523806C13.7748 0.381097 12.7523 0.355422 11.4817 0.323514L11.4332 0.322297ZM6.59789 1.5719C8.20449 1.53153 9.79518 1.53154 11.4018 1.5719C12.7323 1.60533 13.6621 1.63028 14.3798 1.75527C15.0694 1.87537 15.4994 2.07838 15.8529 2.43328C15.9979 2.57878 16.117 2.73542 16.215 2.9152L11.2643 5.72033C10.2182 6.31304 9.58342 6.54163 8.99992 6.54163C8.41642 6.54163 7.78163 6.31304 6.73555 5.72033L1.78468 2.91513C1.88275 2.73537 2.00181 2.57875 2.14674 2.43327C2.5003 2.07837 2.93027 1.87536 3.61988 1.75526C4.33758 1.63027 5.26733 1.60533 6.59789 1.5719ZM1.43402 4.15315C1.34779 4.813 1.32874 5.64701 1.3045 6.7836C1.28717 7.59612 1.28717 8.4038 1.3045 9.21632C1.33214 10.5126 1.35305 11.4153 1.47454 12.1149C1.59086 12.7848 1.79073 13.2093 2.14675 13.5667C2.5003 13.9216 2.93028 14.1246 3.61989 14.2447C4.33758 14.3697 5.26734 14.3946 6.59789 14.428C8.2045 14.4684 9.79518 14.4684 11.4018 14.428C12.7323 14.3946 13.6621 14.3697 14.3798 14.2447C15.0694 14.1246 15.4994 13.9216 15.8529 13.5667C16.209 13.2093 16.4088 12.7848 16.5251 12.1149C16.6466 11.4153 16.6675 10.5126 16.6952 9.21632C16.7125 8.4038 16.7125 7.59613 16.6952 6.78361C16.6709 5.64707 16.6519 4.81307 16.5657 4.15324L11.8805 6.80788C10.8028 7.41853 9.927 7.79163 8.99992 7.79163C8.07285 7.79163 7.19707 7.41853 6.11933 6.80788L1.43402 4.15315Z" fill="#161616"/>
</g>
</svg>
