<svg width="18" height="18" viewBox="0 0 18 18" fill="none" xmlns="http://www.w3.org/2000/svg">
<g id="elements">
<g id="Icon">
<path d="M9.625 9.83333C9.625 10.1785 9.34518 10.4583 9 10.4583C8.65482 10.4583 8.375 10.1785 8.375 9.83333V2.78173L8.36995 2.78768C8.19441 2.99485 8.02252 3.21379 7.86178 3.41854L7.82444 3.46609C7.66425 3.67003 7.49573 3.88429 7.36484 4.01895C7.12426 4.26647 6.72857 4.27209 6.48105 4.03151C6.23353 3.79092 6.22791 3.39523 6.46849 3.14771C6.54241 3.07167 6.66376 2.92016 6.84142 2.69397L6.88062 2.64404C7.03901 2.44227 7.22485 2.20551 7.41628 1.97959C7.62145 1.73746 7.85109 1.48597 8.08066 1.29045C8.1957 1.19247 8.32536 1.09583 8.46485 1.02118C8.59939 0.949183 8.78476 0.875 9 0.875C9.21524 0.875 9.40061 0.949183 9.53515 1.02118C9.67464 1.09583 9.80431 1.19247 9.91934 1.29045C10.1489 1.48597 10.3786 1.73746 10.5837 1.97959C10.7751 2.2055 10.9609 2.4422 11.1193 2.64397L11.1586 2.69397C11.3362 2.92016 11.4576 3.07167 11.5315 3.14771C11.7721 3.39524 11.7665 3.79092 11.519 4.03151C11.2714 4.27209 10.8757 4.26647 10.6352 4.01895C10.5043 3.88429 10.3357 3.67003 10.1756 3.46609L10.1383 3.41864C9.97755 3.21388 9.80561 2.99487 9.63005 2.78768L9.625 2.78173V9.83333Z" fill="#161616"/>
<path d="M2.1984 7.41815C2.24524 7.07617 2.00598 6.76096 1.664 6.71411C1.32202 6.66727 1.00681 6.90653 0.959962 7.24851C0.903951 7.65741 0.875 8.07529 0.875 8.5C0.875 13.2248 4.4753 17.125 9 17.125C13.5247 17.125 17.125 13.2248 17.125 8.5C17.125 8.07529 17.096 7.65741 17.04 7.24851C16.9932 6.90653 16.678 6.66727 16.336 6.71411C15.994 6.76096 15.7548 7.07617 15.8016 7.41815C15.8499 7.77093 15.875 8.13214 15.875 8.5C15.875 12.6117 12.7596 15.875 9 15.875C5.24043 15.875 2.125 12.6117 2.125 8.5C2.125 8.13215 2.15007 7.77094 2.1984 7.41815Z" fill="#161616"/>
</g>
</g>
</svg>
