<svg width="16" height="16" viewBox="0 0 16 16" fill="none" xmlns="http://www.w3.org/2000/svg">
<g id="elements">
<g id="Icon">
<path d="M14.2231 1.83133C12.7844 0.334054 10.4412 0.334056 9.00253 1.83133L8.40793 2.45016C8.16877 2.69906 8.17667 3.09471 8.42557 3.33387C8.67448 3.57303 9.07013 3.56513 9.30928 3.31622L9.90388 2.69739C10.8507 1.71204 12.3749 1.71204 13.3217 2.69739C14.282 3.6968 14.282 5.32711 13.3217 6.32653L10.6222 9.13602C10.4725 9.29188 10.3094 9.42216 10.1376 9.52772C9.21422 10.0953 8.00484 9.96908 7.2044 9.13602C7.07419 9.00051 6.96177 8.85368 6.867 8.69847C6.68711 8.40388 6.30247 8.31089 6.00787 8.49078C5.71327 8.67066 5.62028 9.05531 5.80017 9.34991C5.94144 9.58127 6.10912 9.80026 6.30304 10.0021C7.51513 11.2636 9.37323 11.4648 10.7922 10.5926C11.0544 10.4315 11.3004 10.2343 11.5236 10.0021L14.2231 7.19259C15.6482 5.70937 15.6482 3.31455 14.2231 1.83133Z" fill="#161616"/>
<path d="M9.69746 5.99799C8.2588 4.50072 5.91554 4.50072 4.47688 5.99799L1.77736 8.80749C0.352207 10.2907 0.352208 12.6855 1.77736 14.1688C3.21602 15.666 5.55928 15.666 6.99794 14.1688L7.59275 13.5497C7.83191 13.3008 7.82401 12.9052 7.57511 12.666C7.32621 12.4268 6.93056 12.4347 6.69141 12.6836L6.09659 13.3027C5.14981 14.288 3.6255 14.288 2.67871 13.3027C1.71842 12.3033 1.71842 10.673 2.67871 9.67356L5.37823 6.86406C6.32501 5.8787 7.84932 5.8787 8.79611 6.86406C8.92628 6.99954 9.03868 7.14633 9.13343 7.30149C9.31334 7.59608 9.69799 7.68905 9.99258 7.50914C10.2872 7.32923 10.3801 6.94458 10.2002 6.64999C10.059 6.4187 9.89133 6.19977 9.69746 5.99799Z" fill="#161616"/>
</g>
</g>
</svg>
