<svg width="18" height="18" viewBox="0 0 18 18" fill="none" xmlns="http://www.w3.org/2000/svg">
<g id="elements">
<g id="Icon">
<path d="M13.9998 8.16663C13.5396 8.16663 13.1665 8.53972 13.1665 8.99996C13.1665 9.4602 13.5396 9.83329 13.9998 9.83329H14.0073C14.4676 9.83329 14.8407 9.4602 14.8407 8.99996C14.8407 8.53972 14.4676 8.16663 14.0073 8.16663H13.9998Z" fill="#161616"/>
<path fill-rule="evenodd" clip-rule="evenodd" d="M9.8765 0.0416269H8.12317C7.37445 0.0416033 6.75008 0.0415837 6.25444 0.108221C5.73128 0.178559 5.25894 0.333284 4.87939 0.712842C4.49983 1.0924 4.3451 1.56473 4.27477 2.0879C4.20813 2.58354 4.20815 3.20789 4.20817 3.95661L4.20817 5.0453C3.88415 5.04969 3.59741 5.05937 3.34294 5.08062C2.86184 5.12081 2.44276 5.20551 2.054 5.40542C1.58859 5.64474 1.18904 5.99213 0.892362 6.41887C0.642809 6.77784 0.511311 7.17877 0.420857 7.64131C0.333535 8.08785 0.276005 8.64204 0.205075 9.32531L0.19872 9.38652C0.113539 10.2069 0.0448949 10.868 0.041629 11.4027C0.038267 11.9531 0.101854 12.44 0.330518 12.8877C0.598921 13.4133 1.01305 13.8526 1.52301 14.1583C1.95388 14.4167 2.43987 14.5242 3.00259 14.5752C3.38849 14.6102 3.8423 14.6206 4.37588 14.6237C4.32547 14.8517 4.28417 15.0536 4.25569 15.2323C4.20616 15.5432 4.1854 15.8388 4.24276 16.1323C4.37445 16.806 4.7891 17.3973 5.39283 17.7169C5.66145 17.8591 5.95057 17.9112 6.24887 17.9352C6.53697 17.9583 6.89269 17.9583 7.31741 17.9583H10.6823C11.107 17.9583 11.4627 17.9583 11.7508 17.9352C12.0491 17.9112 12.3382 17.8591 12.6068 17.7169C13.2105 17.3973 13.6252 16.806 13.7569 16.1323C13.8142 15.8388 13.7935 15.5432 13.7439 15.2323C13.7155 15.0536 13.6742 14.8517 13.6238 14.6237C14.1574 14.6206 14.6112 14.6102 14.9971 14.5752C15.5598 14.5242 16.0458 14.4167 16.4767 14.1583C16.9866 13.8526 17.4008 13.4133 17.6692 12.8877C17.8978 12.44 17.9614 11.9531 17.958 11.4027C17.9548 10.868 17.8861 10.2069 17.8009 9.38643L17.7946 9.32532C17.7237 8.64204 17.6661 8.08785 17.5788 7.64131C17.4884 7.17877 17.3569 6.77783 17.1073 6.41887C16.8106 5.99213 16.4111 5.64474 15.9457 5.40542C15.5569 5.20551 15.1378 5.12081 14.6567 5.08062C14.4023 5.05937 14.1155 5.04969 13.7915 5.0453L13.7915 3.95663C13.7915 3.20793 13.7916 2.58353 13.7249 2.0879C13.6546 1.56473 13.4998 1.0924 13.1203 0.712843C12.7407 0.333284 12.2684 0.178559 11.7452 0.108221C11.2496 0.0415837 10.6252 0.0416033 9.8765 0.0416269ZM4.91886 12.7703C4.81293 12.9471 4.73797 13.146 4.67233 13.3747C4.01117 13.3734 3.51473 13.3665 3.11538 13.3303C2.636 13.2869 2.36477 13.2056 2.16583 13.0863C1.85251 12.8984 1.60339 12.6318 1.44375 12.3192C1.34494 12.1257 1.28881 11.868 1.29161 11.4103C1.29445 10.9439 1.35608 10.3436 1.4454 9.48324C1.52004 8.76426 1.57235 8.26612 1.64762 7.88121C1.72099 7.50605 1.80691 7.29321 1.91871 7.13239C2.09653 6.87661 2.33873 6.66459 2.62563 6.51706C2.80979 6.42236 3.04641 6.35975 3.447 6.32628C3.85581 6.29213 4.37917 6.29163 5.12813 6.29163H12.8715C13.6205 6.29163 14.1439 6.29213 14.5527 6.32628C14.9533 6.35975 15.1899 6.42236 15.374 6.51706C15.6609 6.66458 15.9031 6.87661 16.081 7.13239C16.1928 7.29321 16.2787 7.50605 16.3521 7.88122C16.4273 8.26612 16.4796 8.76426 16.5543 9.48324C16.6436 10.3436 16.7052 10.9439 16.7081 11.4103C16.7109 11.868 16.6547 12.1257 16.5559 12.3192C16.3963 12.6318 16.1472 12.8984 15.8338 13.0863C15.6349 13.2056 15.3637 13.2869 14.8843 13.3303C14.4849 13.3665 13.9885 13.3734 13.3273 13.3747C13.2617 13.146 13.1867 12.9471 13.0808 12.7703C12.8252 12.3438 12.439 12.0116 11.9753 11.8385C11.6237 11.7072 11.2286 11.7077 10.7512 11.7082H7.24844C6.77107 11.7077 6.37594 11.7072 6.02438 11.8385C5.56066 12.0116 5.17442 12.3438 4.91886 12.7703ZM12.5415 5.04163V3.99996C12.5415 3.19662 12.5402 2.65699 12.4861 2.25446C12.4344 1.8699 12.345 1.70532 12.2364 1.59673C12.1278 1.48813 11.9632 1.39878 11.5787 1.34707C11.1761 1.29296 10.6365 1.29163 9.83317 1.29163H8.1665C7.36316 1.29163 6.82353 1.29296 6.421 1.34707C6.03645 1.39878 5.87187 1.48813 5.76327 1.59673C5.65467 1.70532 5.56532 1.8699 5.51362 2.25446C5.4595 2.65699 5.45817 3.19662 5.45817 3.99996V5.04163H12.5415ZM7.34259 12.9583C6.72038 12.9583 6.57314 12.9679 6.46164 13.0095C6.2775 13.0783 6.10899 13.2161 5.99112 13.4128C5.91435 13.5409 5.8651 13.7212 5.71623 14.3673C5.60604 14.8455 5.53087 15.1732 5.49013 15.429C5.44984 15.6819 5.4533 15.8094 5.46954 15.8925C5.53411 16.2228 5.73115 16.4816 5.97767 16.6121C6.02789 16.6387 6.12128 16.6709 6.34885 16.6892C6.58095 16.7078 6.88612 16.7083 7.34259 16.7083H10.6571C11.1135 16.7083 11.4187 16.7078 11.6508 16.6892C11.8784 16.6709 11.9718 16.6387 12.022 16.6121C12.2685 16.4816 12.4655 16.2228 12.5301 15.8925C12.5463 15.8094 12.5498 15.6819 12.5095 15.429C12.4688 15.1732 12.3936 14.8455 12.2834 14.3673C12.1345 13.7212 12.0853 13.5409 12.0085 13.4128C11.8907 13.2161 11.7221 13.0783 11.538 13.0095C11.4265 12.9679 11.2793 12.9583 10.6571 12.9583H7.34259Z" fill="#161616"/>
</g>
</g>
</svg>
