<svg width="18" height="18" viewBox="0 0 18 18" fill="none" xmlns="http://www.w3.org/2000/svg">
<path d="M8.16015 12.3333C8.16015 11.8731 8.53324 11.5 8.99348 11.5H9.00096C9.4612 11.5 9.8343 11.8731 9.8343 12.3333C9.8343 12.7936 9.4612 13.1666 9.00096 13.1666H8.99348C8.53324 13.1666 8.16015 12.7936 8.16015 12.3333Z" fill="#D92D20"/>
<path d="M8.37499 9.83331C8.37499 10.1785 8.65481 10.4583 8.99999 10.4583C9.34517 10.4583 9.62499 10.1785 9.62499 9.83331V6.49998C9.62499 6.1548 9.34517 5.87498 8.99999 5.87498C8.65481 5.87498 8.37499 6.1548 8.37499 6.49998V9.83331Z" fill="#D92D20"/>
<path fill-rule="evenodd" clip-rule="evenodd" d="M7.63498 0.679147C8.52202 0.384702 9.47796 0.384702 10.365 0.679147C11.2484 0.972374 11.942 1.66782 12.6388 2.64494C13.3333 3.61881 14.1007 4.9767 15.0898 6.72706L15.1287 6.79578C16.118 8.54641 16.8854 9.90423 17.3636 11.0054C17.8442 12.1119 18.0835 13.0673 17.8925 13.9851C17.7003 14.9092 17.2261 15.7496 16.5357 16.3847C15.8468 17.0183 14.9089 17.2856 13.728 17.414C12.5537 17.5417 11.0176 17.5417 9.04062 17.5416H8.95937C6.98234 17.5417 5.44627 17.5417 4.27201 17.414C3.09105 17.2856 2.15315 17.0183 1.46434 16.3847C0.773842 15.7496 0.299723 14.9092 0.107451 13.9851C-0.0835115 13.0673 0.155823 12.1119 0.636369 11.0054C1.11459 9.90423 1.88195 8.54641 2.87131 6.79577L2.91014 6.72706C3.89933 4.9767 4.66672 3.61881 5.36121 2.64494C6.05801 1.66782 6.7516 0.972374 7.63498 0.679147ZM9.97121 1.8655C9.33984 1.65592 8.66015 1.65592 8.02878 1.8655C7.53212 2.03036 7.03285 2.45373 6.37894 3.3707C5.72729 4.28451 4.99164 5.58451 3.97887 7.37659C2.96617 9.16854 2.23186 10.4696 1.78291 11.5033C1.33318 12.5389 1.22051 13.1983 1.33124 13.7305C1.47091 14.4018 1.81461 15.0085 2.31059 15.4647C2.70012 15.8231 3.30709 16.0517 4.40711 16.1713C5.50579 16.2908 6.97383 16.2916 8.99999 16.2916C11.0262 16.2916 12.4942 16.2908 13.5929 16.1713C14.6929 16.0517 15.2999 15.8231 15.6894 15.4647C16.1854 15.0085 16.5291 14.4018 16.6687 13.7305C16.7795 13.1983 16.6668 12.5389 16.2171 11.5033C15.7681 10.4696 15.0338 9.16854 14.0211 7.37659C13.0083 5.58451 12.2727 4.28451 11.621 3.3707C10.9671 2.45373 10.4679 2.03036 9.97121 1.8655Z" fill="#D92D20"/>
</svg>
