<svg width="18" height="18" viewBox="0 0 18 18" fill="none" xmlns="http://www.w3.org/2000/svg">
<path d="M8.57585 8.79266C8.51797 8.79173 8.45105 8.7917 8.36848 8.7917C8.0233 8.7917 7.74348 8.51188 7.74348 8.1667C7.74348 7.82152 8.0233 7.5417 8.36848 7.5417L8.39718 7.5417C8.56811 7.54163 8.75294 7.54156 8.90896 7.56253C9.09173 7.5871 9.32522 7.6503 9.52172 7.8468C9.71822 8.0433 9.78141 8.27679 9.80598 8.45956C9.82696 8.61557 9.82689 8.8004 9.82682 8.97133L9.82681 13.1667C9.82681 13.5119 9.54699 13.7917 9.20181 13.7917C8.85664 13.7917 8.57681 13.5119 8.57681 13.1667V9.00004C8.57681 8.91747 8.57679 8.85054 8.57585 8.79266Z" fill="#175CD3"/>
<path d="M8.99348 4.83335C8.53324 4.83335 8.16015 5.20645 8.16015 5.66669C8.16015 6.12692 8.53324 6.50002 8.99348 6.50002H9.00096C9.4612 6.50002 9.8343 6.12692 9.8343 5.66669C9.8343 5.20645 9.4612 4.83335 9.00096 4.83335H8.99348Z" fill="#175CD3"/>
<path fill-rule="evenodd" clip-rule="evenodd" d="M0.0416565 9.00002C0.0416565 13.9476 4.05244 17.9584 8.99999 17.9584C13.9475 17.9584 17.9583 13.9476 17.9583 9.00002C17.9583 4.05247 13.9475 0.041687 8.99999 0.041687C4.05244 0.041687 0.0416565 4.05247 0.0416565 9.00002ZM8.99999 16.7084C4.74279 16.7084 1.29166 13.2572 1.29166 9.00002C1.29166 4.74283 4.74279 1.29169 8.99999 1.29169C13.2572 1.29169 16.7083 4.74283 16.7083 9.00002C16.7083 13.2572 13.2572 16.7084 8.99999 16.7084Z" fill="#175CD3"/>
<path d="M8.57585 8.79266C8.51797 8.79173 8.45105 8.7917 8.36848 8.7917C8.0233 8.7917 7.74348 8.51188 7.74348 8.1667C7.74348 7.82152 8.0233 7.5417 8.36848 7.5417L8.39718 7.5417C8.56811 7.54163 8.75294 7.54156 8.90896 7.56253C9.09173 7.5871 9.32522 7.6503 9.52172 7.8468C9.71822 8.0433 9.78141 8.27679 9.80598 8.45956C9.82696 8.61557 9.82689 8.8004 9.82682 8.97133L9.82681 13.1667C9.82681 13.5119 9.54699 13.7917 9.20181 13.7917C8.85664 13.7917 8.57681 13.5119 8.57681 13.1667V9.00004C8.57681 8.91747 8.57679 8.85054 8.57585 8.79266Z" stroke="#175CD3"/>
<path d="M8.99348 4.83335C8.53324 4.83335 8.16015 5.20645 8.16015 5.66669C8.16015 6.12692 8.53324 6.50002 8.99348 6.50002H9.00096C9.4612 6.50002 9.8343 6.12692 9.8343 5.66669C9.8343 5.20645 9.4612 4.83335 9.00096 4.83335H8.99348Z" stroke="#175CD3"/>
<path fill-rule="evenodd" clip-rule="evenodd" d="M0.0416565 9.00002C0.0416565 13.9476 4.05244 17.9584 8.99999 17.9584C13.9475 17.9584 17.9583 13.9476 17.9583 9.00002C17.9583 4.05247 13.9475 0.041687 8.99999 0.041687C4.05244 0.041687 0.0416565 4.05247 0.0416565 9.00002ZM8.99999 16.7084C4.74279 16.7084 1.29166 13.2572 1.29166 9.00002C1.29166 4.74283 4.74279 1.29169 8.99999 1.29169C13.2572 1.29169 16.7083 4.74283 16.7083 9.00002C16.7083 13.2572 13.2572 16.7084 8.99999 16.7084Z" stroke="#175CD3"/>
</svg>
