<svg width="18" height="18" viewBox="0 0 18 18" fill="none" xmlns="http://www.w3.org/2000/svg">
<path d="M8.16015 11.5C8.16015 11.0398 8.53324 10.6667 8.99348 10.6667H9.00096C9.4612 10.6667 9.8343 11.0398 9.8343 11.5C9.8343 11.9603 9.4612 12.3334 9.00096 12.3334H8.99348C8.53324 12.3334 8.16015 11.9603 8.16015 11.5Z" fill="#B54708"/>
<path d="M8.37499 9.00002C8.37499 9.3452 8.65481 9.62502 8.99999 9.62502C9.34517 9.62502 9.62499 9.3452 9.62499 9.00002V5.66669C9.62499 5.32151 9.34517 5.04169 8.99999 5.04169C8.65481 5.04169 8.37499 5.32151 8.37499 5.66669V9.00002Z" fill="#B54708"/>
<path fill-rule="evenodd" clip-rule="evenodd" d="M0.0416565 9.00002C0.0416565 4.05247 4.05244 0.041687 8.99999 0.041687C13.9475 0.041687 17.9583 4.05247 17.9583 9.00002C17.9583 13.9476 13.9475 17.9584 8.99999 17.9584C4.05244 17.9584 0.0416565 13.9476 0.0416565 9.00002ZM8.99999 1.29169C4.74279 1.29169 1.29166 4.74283 1.29166 9.00002C1.29166 13.2572 4.74279 16.7084 8.99999 16.7084C13.2572 16.7084 16.7083 13.2572 16.7083 9.00002C16.7083 4.74283 13.2572 1.29169 8.99999 1.29169Z" fill="#B54708"/>
</svg>
